<svg id="blue_card" data-name="blue card" xmlns="http://www.w3.org/2000/svg" xmlns:xlink="http://www.w3.org/1999/xlink" viewBox="0 0 449.77 517.25"><defs><style>.cls-1{fill:none;}.cls-2{isolation:isolate;}.cls-3{clip-path:url(#clip-path);}.cls-4{fill:#003b76;}.cls-5{fill:#003d7b;}.cls-6{fill:#003f7f;}.cls-7{fill:#004284;}.cls-8{fill:#048;}.cls-9{fill:#00468d;}.cls-10{fill:#004891;}.cls-11{fill:#004b96;}.cls-12{fill:#004d9a;}.cls-13{fill:#004f9f;}.cls-14{fill:#0051a3;}.cls-15{fill:#0054a8;}.cls-16{fill:#0056ad;}.cls-17{fill:#0058b1;}.cls-18{clip-path:url(#clip-path-2);}.cls-19{fill:#005ebe;}.cls-20{fill:#005ab4;}.cls-21{clip-path:url(#clip-path-3);}.cls-22{fill:#005ab6;}.cls-23{fill:#005dba;}.cls-24{fill:#005fbf;}.cls-25{fill:#0061c3;}.cls-26{fill:#0063c8;}.cls-27{fill:#06c;}.cls-28{fill:#0068d1;}.cls-29{fill:#006ad5;}.cls-30{fill:#006cda;}.cls-31{fill:#006fde;}.cls-32{fill:#0071e3;}.cls-33{fill:#1f82e6;}.cls-34{fill:#2b89e8;}.cls-35{fill:#358fe9;}.cls-36{fill:#003e7d;}.cls-37{fill:#fff;}</style><clipPath id="clip-path" transform="translate(-425.11 -274.88)"><path class="cls-1" d="M429.72,283.44l13.73-7.61c2.43-1.34,5.62-1.32,9.13.39l-13.73,7.61C435.34,282.12,432.15,282.1,429.72,283.44Z"/></clipPath><clipPath id="clip-path-2" transform="translate(-425.11 -274.88)"><path class="cls-1" d="M870.27,783.57l-13.73,7.61c2.85-1.58,4.63-5,4.61-9.88l13.73-7.61C874.91,778.52,873.12,782,870.27,783.57Z"/></clipPath><clipPath id="clip-path-3" transform="translate(-425.11 -274.88)"><path class="cls-1" d="M846.05,482.44l13.73-7.61c7.63,3.72,13.85,14,13.89,23l-13.73,7.61C859.9,496.44,853.68,486.16,846.05,482.44Z"/></clipPath></defs><title>bluecard</title><g class="cls-2"><g class="cls-2"><g class="cls-3"><g class="cls-2"><path class="cls-4" d="M429.72,283.44l13.73-7.61a7.38,7.38,0,0,1,1.08-.49l-13.73,7.61a7.38,7.38,0,0,0-1.08.49" transform="translate(-425.11 -274.88)"/><path class="cls-5" d="M430.8,282.95l13.73-7.61a7.67,7.67,0,0,1,1-.28l-13.73,7.61a7.67,7.67,0,0,0-1,.28" transform="translate(-425.11 -274.88)"/><path class="cls-6" d="M431.79,282.67l13.73-7.61a8.14,8.14,0,0,1,.83-.13l-13.73,7.61a8.14,8.14,0,0,0-.83.13" transform="translate(-425.11 -274.88)"/><path class="cls-7" d="M432.62,282.54l13.73-7.61q.36,0,.72,0l-13.73,7.61q-.37,0-.72,0" transform="translate(-425.11 -274.88)"/><path class="cls-8" d="M433.34,282.49l13.73-7.61h.66L434,282.5h-.66" transform="translate(-425.11 -274.88)"/><path class="cls-9" d="M434,282.5l13.73-7.61.64.05-13.73,7.61-.64-.05" transform="translate(-425.11 -274.88)"/><path class="cls-10" d="M434.65,282.55l13.73-7.61.6.09-13.73,7.61-.6-.09" transform="translate(-425.11 -274.88)"/><path class="cls-11" d="M435.25,282.63,449,275l.59.12-13.73,7.61-.59-.12" transform="translate(-425.11 -274.88)"/><path class="cls-12" d="M435.84,282.75l13.73-7.61.58.15-13.73,7.61-.58-.15" transform="translate(-425.11 -274.88)"/><path class="cls-13" d="M436.42,282.9l13.73-7.61.57.17L437,283.07l-.57-.17" transform="translate(-425.11 -274.88)"/><path class="cls-14" d="M437,283.07l13.73-7.61.57.2-13.73,7.61-.57-.2" transform="translate(-425.11 -274.88)"/><path class="cls-15" d="M437.56,283.27l13.73-7.61.57.23-13.73,7.61-.57-.23" transform="translate(-425.11 -274.88)"/><path class="cls-16" d="M438.13,283.5l13.73-7.61.57.26-13.73,7.61-.57-.26" transform="translate(-425.11 -274.88)"/><path class="cls-17" d="M438.7,283.76l13.73-7.61.15.07-13.73,7.61-.15-.07" transform="translate(-425.11 -274.88)"/></g></g></g><g class="cls-2"><g class="cls-18"><g class="cls-2"><path class="cls-15" d="M861.16,781.29l13.73-7.61q0,.1,0,.19l-13.73,7.61q0-.1,0-.19" transform="translate(-425.11 -274.88)"/><path class="cls-14" d="M861.16,781.48l13.73-7.61q0,.34,0,.67l-13.73,7.61q0-.33,0-.67" transform="translate(-425.11 -274.88)"/><path class="cls-13" d="M861.14,782.15l13.73-7.61q0,.34,0,.66l-13.73,7.61q0-.33,0-.66" transform="translate(-425.11 -274.88)"/><path class="cls-12" d="M861.1,782.81l13.73-7.61q0,.34-.07.66L861,783.47q0-.33.07-.66" transform="translate(-425.11 -274.88)"/><path class="cls-11" d="M861,783.47l13.73-7.61q0,.34-.09.66l-13.73,7.61q.05-.32.09-.66" transform="translate(-425.11 -274.88)"/><path class="cls-10" d="M860.94,784.14l13.73-7.61q-.06.34-.13.66l-13.73,7.61q.07-.33.13-.66" transform="translate(-425.11 -274.88)"/><path class="cls-9" d="M860.81,784.8l13.73-7.61q-.08.35-.17.69l-13.73,7.61q.09-.34.17-.69" transform="translate(-425.11 -274.88)"/><path class="cls-8" d="M860.65,785.49l13.73-7.61q-.1.36-.21.7l-13.73,7.61q.11-.34.21-.7" transform="translate(-425.11 -274.88)"/><path class="cls-7" d="M860.44,786.19l13.73-7.61q-.13.38-.28.75l-13.73,7.61q.15-.36.28-.75" transform="translate(-425.11 -274.88)"/><path class="cls-6" d="M860.16,786.93l13.73-7.61q-.18.43-.38.82l-13.73,7.61q.21-.39.38-.82" transform="translate(-425.11 -274.88)"/><path class="cls-5" d="M859.78,787.76l13.73-7.61a9.39,9.39,0,0,1-.56.95l-13.73,7.61a9.39,9.39,0,0,0,.56-.95" transform="translate(-425.11 -274.88)"/><path class="cls-4" d="M859.21,788.7l13.73-7.61a7.8,7.8,0,0,1-2.67,2.47l-13.73,7.61a7.8,7.8,0,0,0,2.67-2.47" transform="translate(-425.11 -274.88)"/></g></g></g><polygon class="cls-19" points="13.74 8.96 27.47 1.35 434.67 199.95 420.94 207.56 13.74 8.96"/><polygon class="cls-20" points="434.83 230.52 448.56 222.92 449.77 498.81 436.05 506.41 434.83 230.52"/><g class="cls-2"><g class="cls-21"><g class="cls-2"><path class="cls-17" d="M846.05,482.44l13.73-7.61.43.22-13.73,7.61-.43-.22" transform="translate(-425.11 -274.88)"/><path class="cls-22" d="M846.48,482.65,860.21,475l.58.32L847.05,483l-.58-.32" transform="translate(-425.11 -274.88)"/><path class="cls-23" d="M847.05,483l13.73-7.61.59.35-13.73,7.61-.59-.35" transform="translate(-425.11 -274.88)"/><path class="cls-24" d="M847.64,483.32l13.73-7.61.59.38-13.73,7.61-.59-.38" transform="translate(-425.11 -274.88)"/><path class="cls-25" d="M848.23,483.7,862,476.09l.61.43-13.73,7.61-.61-.43" transform="translate(-425.11 -274.88)"/><path class="cls-26" d="M848.84,484.13l13.73-7.61.61.46-13.73,7.61-.61-.46" transform="translate(-425.11 -274.88)"/><path class="cls-27" d="M849.46,484.59,863.19,477l.64.52-13.73,7.61-.64-.52" transform="translate(-425.11 -274.88)"/><path class="cls-28" d="M850.1,485.12l13.73-7.61.65.57-13.73,7.61-.65-.57" transform="translate(-425.11 -274.88)"/><path class="cls-29" d="M850.75,485.69l13.73-7.61.66.62-13.73,7.61-.66-.62" transform="translate(-425.11 -274.88)"/><path class="cls-30" d="M851.41,486.31l13.73-7.61.67.69L852.09,487l-.67-.69" transform="translate(-425.11 -274.88)"/><path class="cls-31" d="M852.09,487l13.73-7.61.68.74-13.73,7.61-.68-.74" transform="translate(-425.11 -274.88)"/><path class="cls-32" d="M852.76,487.74l13.73-7.61q.35.4.69.81l-13.73,7.61q-.34-.41-.69-.81" transform="translate(-425.11 -274.88)"/><path class="cls-33" d="M853.45,488.55l13.73-7.61q.38.47.75,1l-13.73,7.61q-.37-.49-.75-1" transform="translate(-425.11 -274.88)"/><path class="cls-34" d="M854.2,489.51l13.73-7.61q.77,1,1.45,2.13l-13.73,7.61q-.68-1.1-1.45-2.13" transform="translate(-425.11 -274.88)"/><path class="cls-35" d="M855.65,491.64,869.38,484l.28.46-13.73,7.61-.28-.46" transform="translate(-425.11 -274.88)"/><path class="cls-34" d="M855.93,492.11l13.73-7.61q.54.9,1,1.85L857,494q-.48-.94-1-1.85" transform="translate(-425.11 -274.88)"/><path class="cls-33" d="M857,494l13.73-7.61q.27.52.51,1.05L857.46,495q-.24-.53-.51-1.05" transform="translate(-425.11 -274.88)"/><path class="cls-32" d="M857.46,495l13.73-7.61q.21.45.4.9l-13.73,7.61q-.19-.45-.4-.9" transform="translate(-425.11 -274.88)"/><path class="cls-31" d="M857.86,495.91l13.73-7.61q.17.4.33.81l-13.73,7.61q-.16-.41-.33-.81" transform="translate(-425.11 -274.88)"/><path class="cls-30" d="M858.19,496.72l13.73-7.61q.15.4.3.8l-13.73,7.61q-.14-.4-.3-.8" transform="translate(-425.11 -274.88)"/><path class="cls-29" d="M858.48,497.52l13.73-7.61q.14.39.27.79l-13.73,7.61q-.13-.4-.27-.79" transform="translate(-425.11 -274.88)"/><path class="cls-28" d="M858.75,498.32l13.73-7.61q.13.39.24.78L859,499.1q-.11-.39-.24-.78" transform="translate(-425.11 -274.88)"/><path class="cls-27" d="M859,499.1l13.73-7.61q.11.39.21.78l-13.73,7.61q-.1-.39-.21-.78" transform="translate(-425.11 -274.88)"/><path class="cls-26" d="M859.2,499.88l13.73-7.61q.1.38.18.76l-13.73,7.61q-.08-.38-.18-.76" transform="translate(-425.11 -274.88)"/><path class="cls-25" d="M859.38,500.64,873.11,493q.08.38.16.75l-13.73,7.61q-.07-.38-.16-.75" transform="translate(-425.11 -274.88)"/><path class="cls-24" d="M859.54,501.39l13.73-7.61q.07.36.13.73l-13.73,7.61q-.06-.36-.13-.73" transform="translate(-425.11 -274.88)"/><path class="cls-23" d="M859.66,502.12l13.73-7.61q.06.36.1.72l-13.73,7.61q0-.36-.1-.72" transform="translate(-425.11 -274.88)"/><path class="cls-22" d="M859.77,502.84l13.73-7.61q0,.35.08.7l-13.73,7.61q0-.35-.08-.7" transform="translate(-425.11 -274.88)"/><path class="cls-17" d="M859.84,503.54l13.73-7.61q0,.35.05.69l-13.73,7.61q0-.35-.05-.69" transform="translate(-425.11 -274.88)"/><path class="cls-16" d="M859.9,504.23l13.73-7.61q0,.34,0,.68l-13.73,7.61q0-.34,0-.68" transform="translate(-425.11 -274.88)"/><path class="cls-15" d="M859.93,504.91l13.73-7.61q0,.24,0,.49l-13.73,7.61q0-.24,0-.49" transform="translate(-425.11 -274.88)"/></g></g></g><path class="cls-36" d="M846.05,482.44c7.63,3.72,13.85,14,13.89,23l1.22,275.89c0,9-6.11,13.21-13.74,9.49l-407.2-198.6c-7.63-3.72-13.85-14-13.89-23l-1.22-275.89c0-9,6.11-13.21,13.74-9.49Z" transform="translate(-425.11 -274.88)"/></g><g id="Réteg_7" data-name="Réteg 7"><rect class="cls-37" x="455" y="375" width="53" height="10" rx="5" ry="5" transform="translate(-207.51 -448.59) rotate(26.24)"/><rect class="cls-37" x="453.85" y="405.92" width="75.24" height="10" rx="5" ry="5" transform="translate(-192.81 -449.82) rotate(26.24)"/><rect class="cls-37" x="451.53" y="442.91" width="120.43" height="10" rx="5" ry="5" transform="translate(-174.37 -454.97) rotate(26.24)"/><rect class="cls-37" x="453.85" y="458.92" width="75.24" height="10" rx="5" ry="5" transform="translate(-169.38 -444.36) rotate(26.24)"/><rect class="cls-37" x="530.9" y="428.87" width="16.21" height="10" rx="5" ry="5" transform="translate(-177.77 -468.46) rotate(26.24)"/></g></svg>