<svg id="Réteg_1" data-name="Réteg 1" xmlns="http://www.w3.org/2000/svg" viewBox="0 0 123 204.98"><defs><style>.cls-1{fill:#dadada;}.cls-1,.cls-14{opacity:0.3;}.cls-2{fill:#0066ba;}.cls-3{fill:#0071e3;}.cls-4{fill:#414042;}.cls-5{fill:#fff;}.cls-6{fill:#1d374e;}.cls-7{fill:#0f2034;}.cls-8{fill:#bababa;}.cls-9{fill:#f0c6b4;}.cls-10{fill:#2a4e68;}.cls-11{fill:#faf0be;}.cls-12{fill:#ddce92;}.cls-13{fill:#6c839a;}.cls-14{fill:#9b9b9b;}.cls-15{fill:#7ca1bf;}.cls-16{fill:#232d3d;}.cls-17{fill:#343f51;}.cls-18{fill:#c7a496;}.cls-19{fill:#303033;}</style></defs><title>Design tervezés</title><path class="cls-1" d="M121.85,174.58c-1.67,0-3-.87-3-2V163.3H102.34c-1.69,0-3-.86-3-2s1.32-2,3-2h16.53v-9.3c0-1.11,1.31-2,3-2s3,.87,3,2v9.3h16.53c1.69,0,3,.86,3,2s-1.32,2-3,2H124.83v9.31C124.83,173.72,123.52,174.58,121.85,174.58Zm-19.51-14.07c-1.13,0-1.88.5-1.88.83s.75.83,1.88.83H120v10.43c0,.34.74.85,1.86.85s1.86-.5,1.86-.85V162.18h17.66c1.13,0,1.88-.5,1.88-.83s-.75-.83-1.88-.83H123.71V150.08c0-.35-.72-.85-1.86-.85s-1.86.51-1.86.85v10.43Z" transform="translate(-70 -0.63)"/><path class="cls-2" d="M124.27,150.08c0-.78-1.09-1.41-2.42-1.41s-2.42.63-2.42,1.41v9.66H99.89v1.61c0,.76,1.1,1.39,2.44,1.39h17.1v9.87c0,.78,1.09,1.42,2.42,1.42s2.42-.64,2.42-1.42v-9.87h17.09c1.35,0,2.45-.63,2.45-1.39v-1.61H124.27Z" transform="translate(-70 -0.63)"/><path class="cls-3" d="M141.36,158.34H124.27v-9.87c0-.79-1.09-1.42-2.42-1.42s-2.42.63-2.42,1.42v9.87h-17.1c-1.35,0-2.44.62-2.44,1.4s1.1,1.39,2.44,1.39h17.1V171c0,.78,1.09,1.41,2.42,1.41s2.42-.63,2.42-1.41v-9.87h17.09c1.35,0,2.45-.63,2.45-1.39S142.71,158.34,141.36,158.34Z" transform="translate(-70 -0.63)"/><path class="cls-4" d="M123.22,79.45a2.62,2.62,0,0,0-.86-.29l-.51,0a2.76,2.76,0,0,0-1.34.32c-.75.44-.75,1.14,0,1.56a3,3,0,0,0,2.7,0A.83.83,0,0,0,123.22,79.45Z" transform="translate(-70 -0.63)"/><path class="cls-2" d="M123.22,81a3,3,0,0,1-2.7,0,1,1,0,0,1-.56-.73v79.49a1,1,0,0,0,.56.79,2.87,2.87,0,0,0,2.7,0,.93.93,0,0,0,.56-.83V80.24A.94.94,0,0,1,123.22,81Z" transform="translate(-70 -0.63)"/><polygon class="cls-3" points="0.06 58.59 0 121 1.83 122.06 103.53 1.06 101.69 0 0.06 58.59"/><polygon class="cls-5" points="4.09 117.9 102.28 61.29 102.33 4.73 4.14 61.34 4.09 117.9"/><polygon class="cls-6" points="46.18 95.38 48.9 96.95 48.9 94.92 47.18 93.76 46.18 95.38"/><path class="cls-2" d="M71.84,122.69,173.47,64.09l.06-62.41L71.89,60.28ZM74.14,62,172.33,5.36l0,56.44L74.09,118.4Z" transform="translate(-70 -0.63)"/><polygon class="cls-7" points="48.9 96.95 58.11 91.65 58.11 89.62 48.9 94.92 48.9 96.95"/><path class="cls-8" d="M126.92,61.94l-8.47,4.89c-2.1-3.72-1.61-12.24-1.61-12.24l8.47-4.89S125.39,60.49,126.92,61.94Z" transform="translate(-70 -0.63)"/><path class="cls-3" d="M121.77,52.91a1.21,1.21,0,0,1-.55.95c-.31.17-.55,0-.55-.32a1.21,1.21,0,0,1,.55-.95C121.52,52.42,121.77,52.56,121.77,52.91Z" transform="translate(-70 -0.63)"/><path class="cls-8" d="M145.18,44.81l-8.47,4.89c-2.1-3.72-1.61-12.24-1.61-12.24l8.47-4.89S143.65,43.36,145.18,44.81Z" transform="translate(-70 -0.63)"/><path class="cls-3" d="M140,35.78a1.21,1.21,0,0,1-.55.95c-.3.18-.55,0-.55-.32a1.21,1.21,0,0,1,.55-.95C139.78,35.29,140,35.43,140,35.78Z" transform="translate(-70 -0.63)"/><path class="cls-8" d="M103.08,82.25l-8.47,4.89C92.52,83.43,93,74.9,93,74.9L101.47,70S101.55,80.8,103.08,82.25Z" transform="translate(-70 -0.63)"/><path class="cls-3" d="M97.93,73.22a1.21,1.21,0,0,1-.55.95c-.3.18-.55,0-.55-.32a1.21,1.21,0,0,1,.55-.95C97.69,72.73,97.93,72.87,97.93,73.22Z" transform="translate(-70 -0.63)"/><path class="cls-8" d="M110.8,64.76l-8.47,4.89c-2.1-3.72-1.61-12.24-1.61-12.24l8.47-4.89S109.28,63.3,110.8,64.76Z" transform="translate(-70 -0.63)"/><path class="cls-3" d="M105.65,55.73a1.21,1.21,0,0,1-.55.95c-.3.18-.55,0-.55-.32a1.21,1.21,0,0,1,.55-.95C105.41,55.23,105.65,55.38,105.65,55.73Z" transform="translate(-70 -0.63)"/><path class="cls-8" d="M154.24,57.61l-8.47,4.89c-2.1-3.72-1.61-12.24-1.61-12.24l8.47-4.89S152.71,56.15,154.24,57.61Z" transform="translate(-70 -0.63)"/><path class="cls-3" d="M149.09,48.57a1.21,1.21,0,0,1-.55.95c-.3.17-.55,0-.55-.32a1.21,1.21,0,0,1,.55-.95C148.84,48.08,149.09,48.23,149.09,48.57Z" transform="translate(-70 -0.63)"/><path class="cls-8" d="M166,40.48l-8.47,4.89c-2.1-3.72-1.61-12.24-1.61-12.24l8.47-4.89S164.52,39,166,40.48Z" transform="translate(-70 -0.63)"/><path class="cls-3" d="M160.89,31.44a1.21,1.21,0,0,1-.55.95c-.3.18-.55,0-.55-.32a1.21,1.21,0,0,1,.55-1C160.65,31,160.89,31.09,160.89,31.44Z" transform="translate(-70 -0.63)"/><path class="cls-8" d="M141.4,71.5l-8.47,4.89c-2.1-3.72-1.61-12.24-1.61-12.24l8.47-4.89S139.87,70,141.4,71.5Z" transform="translate(-70 -0.63)"/><path class="cls-3" d="M136.25,62.47a1.21,1.21,0,0,1-.55.95c-.3.17-.55,0-.55-.32a1.21,1.21,0,0,1,.55-.95C136,62,136.25,62.12,136.25,62.47Z" transform="translate(-70 -0.63)"/><path class="cls-8" d="M120,83.91,111.5,88.8c-2.1-3.72-1.61-12.24-1.61-12.24l8.47-4.89S118.44,82.46,120,83.91Z" transform="translate(-70 -0.63)"/><path class="cls-3" d="M114.82,74.88a1.21,1.21,0,0,1-.55.95c-.3.18-.55,0-.55-.32a1.22,1.22,0,0,1,.55-.95C114.58,74.39,114.82,74.53,114.82,74.88Z" transform="translate(-70 -0.63)"/><path class="cls-8" d="M91.09,101.26l-8.47,4.89C80.53,102.43,81,93.91,81,93.91L89.48,89S89.57,99.8,91.09,101.26Z" transform="translate(-70 -0.63)"/><path class="cls-3" d="M85.95,92.23a1.22,1.22,0,0,1-.55.95c-.3.18-.55,0-.55-.32a1.21,1.21,0,0,1,.55-.95C85.7,91.73,85.95,91.88,85.95,92.23Z" transform="translate(-70 -0.63)"/><path class="cls-8" d="M88.66,74.47l-8.47,4.89c-2.1-3.72-1.61-12.24-1.61-12.24L87,62.23S87.13,73,88.66,74.47Z" transform="translate(-70 -0.63)"/><path class="cls-3" d="M83.51,65.43a1.21,1.21,0,0,1-.55.95c-.3.17-.55,0-.55-.32a1.2,1.2,0,0,1,.55-.95C83.26,64.94,83.51,65.08,83.51,65.43Z" transform="translate(-70 -0.63)"/><path class="cls-1" d="M136.72,202.38c-7.46,4.31-19.56,4.31-27,0s-7.46-11.29,0-15.6,19.56-4.31,27,0S144.19,198.07,136.72,202.38Z" transform="translate(-70 -0.63)"/><path class="cls-5" d="M115.86,185.51c-1.62-.42-6.75,1.45-4.19,4.16,2.8,3,4.37,5.38,5.07,6s3.67.66,4.14-.44-.89-6.7-.89-6.7S116.82,185.76,115.86,185.51Z" transform="translate(-70 -0.63)"/><path class="cls-5" d="M130.57,191.17c1.81,0,5.39,1.73,3.59,4-.6.78-3.81,4.72-4.87,6a3.3,3.3,0,0,1-3.95.56c-.84-.56,0-4.33,0-4.33S129.61,191.28,130.57,191.17Z" transform="translate(-70 -0.63)"/><path class="cls-6" d="M109.67,132.36c-2.68,17.82,2.95,21.06,2.53,30.13-.75,10.88,4.08,18.42,2.72,26-.51,2.85,5.15,2.2,5.06,0-.4-11.28,2-17.53-.94-25.22.27-2.31,2.23-15.37,2.72-22.83a261.75,261.75,0,0,0,3.56,28.93c-2.37,13.62,1,17.56,0,28,5.16.92,5.63-3.09,5.63-3.09-1.88-11.46,2.91-12.87.8-28.6-.36-6.84,4.71-16.69,1.76-33.39C132.66,130.63,110.17,130.57,109.67,132.36Z" transform="translate(-70 -0.63)"/><polygon class="cls-7" points="45.39 139.85 60.24 138.76 44.91 141.29 45.39 139.85"/><path class="cls-9" d="M140.11,122.41c-3.09,3-6.11,5.29-6.11,5.29a5.47,5.47,0,0,0-2.09-.4c-.68.14,1.05,4.48,1.05,4.48s2.81.66,3.52-.66c4.88-3.23,7.62-4.81,7.62-4.81l-1.41-2.53A21,21,0,0,0,140.11,122.41Z" transform="translate(-70 -0.63)"/><path class="cls-10" d="M132.38,99.83l-3.24-.25-14.77.67s-3.06.5-4,.56c-3.66.24-2.65,8.63-2.65,8.63a30.62,30.62,0,0,1,2.79,11.77,46.31,46.31,0,0,1-1.41,11c2.81.28,3.09,8.3,12.66,8.3s8.65-6.61,12.16-8.37c-.16-.72-2.25-7.8-2.25-11.39s2.84-9.54,2.84-9.54Z" transform="translate(-70 -0.63)"/><path class="cls-11" d="M122.51,77.24c-.8-.47-3.37-1.55-5.34-.61-3.84,1.83-6.13,14.73-6,16a4.77,4.77,0,0,1,.5-.52s-1,5.91,2.81,9.89a1,1,0,0,1,.59-.87s2,2.14,6.59,2.55a4.59,4.59,0,0,0,2.77-1.69,2.71,2.71,0,0,1,0,1.28,6,6,0,0,0,4.11-3.53,6.67,6.67,0,0,1-.25,1.8c4.51-3.35,2.59-11.41,2.59-11.41S127.62,74.7,122.51,77.24Z" transform="translate(-70 -0.63)"/><path class="cls-12" d="M123.42,81.83c-1,.14-.9-4.59-.9-4.59S124.44,81.69,123.42,81.83Z" transform="translate(-70 -0.63)"/><path class="cls-13" d="M142.58,119.66a4.67,4.67,0,0,0-2.43,2.36c-.42,1.48,2.36,5,4.22,4.64,2.23-.46,3.55-1.86,3.72-2.88C148.13,121.35,145.18,118.26,142.58,119.66Z" transform="translate(-70 -0.63)"/><path class="cls-10" d="M132.38,99.83c.32-.1,4.34-2,7.8,6.75.7,1.78,9.46,11.89,9.56,13.43s-2.18,4.08-2.18,4.08a4.7,4.7,0,0,1-5-3.8l-8.06-9.12S130.86,105,132.38,99.83Z" transform="translate(-70 -0.63)"/><path class="cls-9" d="M101.7,93.92s3.2-6.63,4.21-7.62,2.53-1.68,2.73-2.69a5,5,0,0,0-.56-2.48s.42-6.56-.26-6.56-1.08,2.81-1.08,2.81-3.49.66-4.24,1.83,0,4.52,0,5c-.52,1.81-5.17,7.52-5.17,7.52l1.61,2.15Z" transform="translate(-70 -0.63)"/><path class="cls-13" d="M100.9,97.42a4.49,4.49,0,0,0,.91-3.19c-.33-1.5-4-3.31-5.48-2.09-1.75,1.47-2.42,3.26-2.09,4.24C95.37,98.54,99.28,99.89,100.9,97.42Z" transform="translate(-70 -0.63)"/><path class="cls-10" d="M110.8,100.78s-1.56-1.19-6.2-1.7A34.52,34.52,0,0,0,100,97.69a4.71,4.71,0,0,0-5.47-2c-.26.42-3,4.41-1,6.09s14.18,7.69,14.18,7.69l2.74-4.22Z" transform="translate(-70 -0.63)"/><path class="cls-14" d="M176.91,178.93c-6.77,3.91-17.74,3.91-24.51,0s-6.77-10.24,0-14.15,17.74-3.91,24.51,0S183.68,175,176.91,178.93Z" transform="translate(-70 -0.63)"/><path class="cls-5" d="M166.7,163.43c-1,.52-.66,1.47-.33,2.2,1.26,2.81,6,4.59,6,4.59s2.22,4,4,4.91a2.27,2.27,0,0,0,3.13-.69,4.23,4.23,0,0,0,.39-2.33C177.42,171.9,171.27,168,166.7,163.43Z" transform="translate(-70 -0.63)"/><path d="M172.37,162.64c-1.08-.33-4.69-.42-5.67.09s-.66,1.47-.33,2.2c1.26,2.81,6,4.59,6,4.59s2.74,4.3,4,4.91a2.27,2.27,0,0,0,3.13-.69c1-1.41-.19-6.42-.19-6.42S172,162.37,172.37,162.64Z" transform="translate(-70 -0.63)"/><path class="cls-15" d="M173.64,158s-1.27-.19-1.88,1.5a22.51,22.51,0,0,0,.09,6.38c1.63,3.73,6.55,3.12,7.78,1.92s1.5-6,1.4-7.21a2.63,2.63,0,0,0-.73-1.48Z" transform="translate(-70 -0.63)"/><path class="cls-16" d="M172.89,160c2,2.27,7.09,2.34,7.55.28a59.38,59.38,0,0,0,.89-19.85c1.31-6.38,4-25.39,4-25.39s-14.72,6.27-15.21,8.41C172.68,144.34,172.16,159.14,172.89,160Z" transform="translate(-70 -0.63)"/><path class="cls-5" d="M151.12,171.85a2.75,2.75,0,0,0,.88,4.78,36.31,36.31,0,0,0,7.8,1.65c2.25,1.12,5.77,1.32,6.23,1,2.18-1.53-.62-3.24-.62-3.24S153.13,175.35,151.12,171.85Z" transform="translate(-70 -0.63)"/><path d="M158,170.17c-2.79.47-5.47.15-6.87,1A2.75,2.75,0,0,0,152,176a36.31,36.31,0,0,0,7.8,1.65c2.25,1.13,5.77,1.32,6.23,1,2.18-1.53,1-6.24,1-6.24S160.79,169.7,158,170.17Z" transform="translate(-70 -0.63)"/><path class="cls-15" d="M159.07,163.06a2.22,2.22,0,0,0-1,1,21.38,21.38,0,0,0,.06,6.4c1.63,3.73,7.74,3.09,9,1.9s1-5.87.86-7.07a2.61,2.61,0,0,0-.73-1.48Z" transform="translate(-70 -0.63)"/><path class="cls-17" d="M159.95,114.31c-3.8,11.6-1.83,27.71-1.83,27.71s-.05,20.83.87,22.46c1.38,2.44,5.82,2.87,7.53,1.27,1.1-1,2.13-11.79.61-19.5,2.74-8.23,6.4-23,6.4-23s8.33-3.25,10.16-4.92c2-1.84,2.1-4.91,1.35-8.77C184.43,108.3,161,111.71,159.95,114.31Z" transform="translate(-70 -0.63)"/><path class="cls-9" d="M192,84.78s1.62,7.17.83,8.58c-2,3.66-10,1.22-10,1.22l.45-8.32Z" transform="translate(-70 -0.63)"/><path class="cls-18" d="M185.1,87.14c.78,2.27,2.14,6,2.14,6S184.43,90.1,185.1,87.14Z" transform="translate(-70 -0.63)"/><path class="cls-17" d="M181.49,68.75s3.88-1.78,6.17-.39c4.92,3,2.31,7,4.28,15.46.85,3.67-7.62,5-7.88,3.18Z" transform="translate(-70 -0.63)"/><path class="cls-9" d="M166.8,65.62c1.33.12,2,.16,2.22.56a29.21,29.21,0,0,1-.14,6.28c.09.42,2.42,2,7.06.12s3.56-4.23,3.56-4.23a13.09,13.09,0,0,1-.49-3.74,27.48,27.48,0,0,0-4-2.23l-5.75.28-2,1S166.39,65.52,166.8,65.62Z" transform="translate(-70 -0.63)"/><path class="cls-5" d="M161.28,77.87c4.57-2.52,6.68-4.34,7.59-5.4,9.68-.12,10.62-4.11,10.62-4.11s6.54.31,8,6.64c1,4.29-3.45,17.13-3.31,22.67a82.1,82.1,0,0,0,1.48,12.07s-2.95,6.11-14.21,8.31c-7.88,1.54-12.09-3.31-12.09-3.31a195.76,195.76,0,0,0,.46-25.33C159.53,87.38,159.95,80.17,161.28,77.87Z" transform="translate(-70 -0.63)"/><path class="cls-9" d="M157.75,71.1c-1.88,2.32-10,9.84-11.16,12.93s-.46,7,1.2,7.56c2.07.7,7.71-1.12,7.71-1.12l2.25-11.3L161,74.23l-.82-3.12A2.57,2.57,0,0,0,157.75,71.1Z" transform="translate(-70 -0.63)"/><path class="cls-18" d="M152.87,82c-1.94,1.41-4.64,3.55-4.64,3.55S149.85,82.27,152.87,82Z" transform="translate(-70 -0.63)"/><path class="cls-9" d="M166.53,52.74c-1.47,1.35-1.1,4.72-1.1,4.72a13.32,13.32,0,0,0,.36,7.63c.57,1.47,3.24-.55,3.24-.55a1.74,1.74,0,0,0,2.23-.92l2.13-2.93-2.84-9.28A34.37,34.37,0,0,0,166.53,52.74Z" transform="translate(-70 -0.63)"/><path class="cls-19" d="M167,53c-.35,3,.56,5.15.32,7.48.41.4,1.35-.58,2.46.63s1.37,4.65,1.37,4.65a4.3,4.3,0,0,0,3.24,1A7,7,0,0,0,179,64.62c1.31-3.8,2-3.28,2.43-7.76a7,7,0,0,1,1.32.21,5.77,5.77,0,0,0-1.5-2,4.83,4.83,0,0,0,.21-2.64,1,1,0,0,1-.88.46s-2.22-3.48-5.31-4.16a2.85,2.85,0,0,0,.16.68s-4.24-1.6-7.2-.86c.84.6.32,1.16.32,1.16s-3.13,2-3.13,3.13A1.33,1.33,0,0,1,167,53Z" transform="translate(-70 -0.63)"/><path class="cls-9" d="M157.79,70.95a31.05,31.05,0,0,0,.82-4.66,7.06,7.06,0,0,1,2.85-3.5c1.2-.56,4.72-.3,4.92.79s-2.67,5.19-2.36,5.5,2.44-2.51,3-2.05-1.16,3.28-1.62,3.93A16.59,16.59,0,0,1,161,74.23C160,74.19,157.21,72.67,157.79,70.95Z" transform="translate(-70 -0.63)"/><path class="cls-17" d="M167.4,81.82c-1.5-4.69-6.5-4.51-9.05-3s-3.28,2.26-5.1,3c-2.81,1.17-.29,9.31,2.44,8.62s4.13-1,6.19-1.58S168.9,86.51,167.4,81.82Z" transform="translate(-70 -0.63)"/></svg>