<svg id="Réteg_1" data-name="Réteg 1" xmlns="http://www.w3.org/2000/svg" viewBox="0 0 189.65 204.2"><defs><style>.cls-1,.cls-22{fill:#dadada;}.cls-1,.cls-17{opacity:0.3;}.cls-2{fill:#f0c6b4;}.cls-3{fill:#c7a496;}.cls-4{fill:#fff;}.cls-5{fill:#232d3d;}.cls-6{fill:#343f51;}.cls-7{fill:#faf0be;}.cls-8{fill:#ddce92;}.cls-9{fill:#3576ab;opacity:0.5;}.cls-10{fill:#303033;}.cls-11{fill:#121214;}.cls-12{fill:#414042;}.cls-13{fill:#58595b;}.cls-14{fill:#231f20;}.cls-15{fill:#bcbec0;}.cls-16{fill:#a7a9ac;}.cls-17{fill:#9b9b9b;}.cls-18{fill:#0071e3;}.cls-19{fill:#0066ba;}.cls-20{fill:#535359;}.cls-21{fill:#939598;}.cls-23{fill:#bababa;}.cls-24{fill:#b8b8b8;}.cls-25{fill:#603913;}</style></defs><title>Kivitelezés</title><path class="cls-1" d="M213.51,150.28c-8.23,4.75-21.56,4.75-29.79,0s-8.22-12.45,0-17.2,21.56-4.75,29.79,0S221.73,145.53,213.51,150.28Z" transform="translate(-35.35 -1.04)"/><path class="cls-2" d="M185.34,25.47s-6.24,4.76-7.15,7.65c-.11,8.67,7.38,14,12,21.32,1.09.4,2-11.21,2-11.21l-2.9-3a17.56,17.56,0,0,0-2.83-4.92,24.51,24.51,0,0,0,4.12-2.22Z" transform="translate(-35.35 -1.04)"/><path class="cls-3" d="M180.49,34.78s3,2.51,5.94.53A20.74,20.74,0,0,1,180.49,34.78Z" transform="translate(-35.35 -1.04)"/><path class="cls-4" d="M194.27,17.92c-3.62.26-4.63,4-8.93,7.54-2.43,2.62,3.44,7.9,5.68,7.64s8.27-9.41,8.27-9.41S197.89,17.67,194.27,17.92Z" transform="translate(-35.35 -1.04)"/><path class="cls-4" d="M192.77,137.3c-2.12.35-9.92,4.76-9.52,2.09-1,.54-1.82,1-2,1.68a1.33,1.33,0,0,0,.49,1.31c5.08,1.37,9.94-3,11.57-3.42s6.9-.6,7.63-2.17-1.28-3.44-1.28-3.44S201.38,136.17,192.77,137.3Z" transform="translate(-35.35 -1.04)"/><path class="cls-4" d="M190.12,132.45s-6.48,3.85-8.24,4.76-1.07,3.85-.32,4.2c5.08,1.36,10.09-3,11.71-3.45s6.9-.59,7.63-2.17,0-4.31,0-4.31Z" transform="translate(-35.35 -1.04)"/><path class="cls-5" d="M190.55,65.83c-3.64,12.81-1.6,31.21-2.67,38.06-.54,4,2.67,16.1,2.25,28.57,6.13,4.87,11.21-1.44,11.21-1.44s.88-15.53-2.33-26.55c0,0,5.1-16.94,6.11-26.79C205.31,75.43,192,62.32,190.55,65.83Z" transform="translate(-35.35 -1.04)"/><path class="cls-4" d="M207.14,137.59s-.17,3.82-1.24,5.55c-1.9,3.06-1.66,4.13-.37,5.26,6.58,1.92,8.3-.69,9-2.92.51-1.64.41-6.18-.23-9C214.11,135.62,207.14,137.59,207.14,137.59Z" transform="translate(-35.35 -1.04)"/><path class="cls-4" d="M207,136.84a33.22,33.22,0,0,1-1.72,5.38c-.9,1.82-1.5,4.65-.4,5.12,6.58,1.93,8.31-.4,9.27-2.64.68-1.58.11-8.24.11-8.24Z" transform="translate(-35.35 -1.04)"/><path class="cls-6" d="M218.18,65.49c3.83,8.12-.95,33.24-.24,38.72,1,7.92-1.29,25.25-2.14,30.39-1.71,5-7.68,3.44-9.63,1.6-.57-6,.05-16.26-.64-28.14s-2-27.63-2-27.63-9.68-2.86-13-14.6c1.21-1.15,1.5.1,2.36-4.31C193.58,60.07,205.31,73.93,218.18,65.49Z" transform="translate(-35.35 -1.04)"/><polygon class="cls-6" points="156.7 15.02 163.84 10.21 164.19 9.55 156.33 14.27 156.7 15.02"/><path class="cls-3" d="M211.36,21.85a9.56,9.56,0,0,1-1.44-3c-.25-1.38-1-1.42-1-1.42l-7.12,4.47-3.1,1.58.24,8.19,8.7.91,4-7Z" transform="translate(-35.35 -1.04)"/><path class="cls-4" d="M211.36,21.85a9.84,9.84,0,0,1-1.55,4.05c-1.18,1.43-5.62,5-8.91,3.62s-3-3.84-3-3.84L193.31,28,192.23,57l-1.69,8.87s11.13,8,19.74,7,7.94-6.2,7.94-6.2a13.61,13.61,0,0,0-1-4.88c-1-2.73,1.53-27.12,1.53-27.12l-6.42-11.79Z" transform="translate(-35.35 -1.04)"/><path class="cls-2" d="M192.23,57c-.28,2.4,2.61,4.77,1.29,7.1-.85,1.49-4.58-1.72-4.82-4.49-.18-2,1.93-5.21,1.93-5.21A2.63,2.63,0,0,1,192.23,57Z" transform="translate(-35.35 -1.04)"/><path class="cls-6" d="M199.29,24.1c-5.77,14.68-3.59,36.84-3.59,36.84S191,59,190.21,54.43s-1.79-16.94.18-24.9a16,16,0,0,1,6.74-9.63S197.69,23.54,199.29,24.1Z" transform="translate(-35.35 -1.04)"/><path class="cls-6" d="M212.37,22.82c-4.76,2.17-8.1,8.18-8.75,13.52A159.48,159.48,0,0,0,202.8,65s14.43,5.55,15.24-4.23C219.12,48,223,42.74,223,42.74l-2.14-13.21S213.65,23.73,212.37,22.82Z" transform="translate(-35.35 -1.04)"/><path class="cls-2" d="M194,9c-1.44,6.18,0,7.4,0,7.4s-.22,2.68,1.6,9.73c1.06,2.87,9,2.25,12.48-6.14,0,0,2.63-2,3-4.25,1.59-4-3.61-2.17-4.22.56C196.33,16.72,194.52,8.59,194,9Z" transform="translate(-35.35 -1.04)"/><path class="cls-2" d="M195.08,29.48c.52-1.2,2.85-3.49,4.37-3.57s2.88,1.56,3.35,2.69-.3,5.82-.82,8.42a5.8,5.8,0,0,0-4.86.8,18.32,18.32,0,0,1-1.32-2C195.24,34.73,194.56,30.68,195.08,29.48Z" transform="translate(-35.35 -1.04)"/><path class="cls-7" d="M194,9c1.6,10.51,11.72,6.18,12.16,9.27.76.24,2-3.69,3.65-3.25s-1.36,3.6-.12,3.81c1.44.24,7.45-14.15-4.95-16.86C201-1.66,190.39,6.45,194,9Z" transform="translate(-35.35 -1.04)"/><path class="cls-8" d="M194.44,7.61c2.29-3.81,6.9-5.54,6.9-5.54S196,2.64,194.44,7.61Z" transform="translate(-35.35 -1.04)"/><path class="cls-4" d="M208.64,43.81a25.75,25.75,0,0,1,4.07-4.95s2.82-9.44,8.12-9.33c7.92,6.53,2.14,13.21,2.14,13.21s-3.64,5-7.29,9.74Z" transform="translate(-35.35 -1.04)"/><path class="cls-2" d="M215.67,52.48c-3.2,4.15-6.4,8.09-7.15,8.24-1.61.32-6-.11-7.92-2.78s-3.48-20.11-3.48-20.11,2.49-2.09,4.86-.8c1.57,4.33,4.35,10.32,4.35,10.32s1-1.65,2.31-3.53a7,7,0,0,1,5.66,3.05C216.87,50.61,215.67,52.48,215.67,52.48Z" transform="translate(-35.35 -1.04)"/><path class="cls-3" d="M208.52,56.12a59.23,59.23,0,0,0-2.2-8.77S210.07,52.75,208.52,56.12Z" transform="translate(-35.35 -1.04)"/><path class="cls-9" d="M197,18.41c-.15,0-.15.54,0,1.18a4.38,4.38,0,0,0,2.77,3.15c.71.13.9-.71.89-1.42a2.63,2.63,0,0,0-.12-.83C200.33,19.86,197.4,18.27,197,18.41Z" transform="translate(-35.35 -1.04)"/><path class="cls-4" d="M197.16,19.15a.73.73,0,0,0,.27.55c.13,0,.21-.11.18-.36a.71.71,0,0,0-.27-.55C197.22,18.74,197.13,18.89,197.16,19.15Z" transform="translate(-35.35 -1.04)"/><polygon class="cls-6" points="165.78 20.24 171.8 16.19 172.4 15.3 165.42 19.49 165.78 20.24"/><path class="cls-6" d="M200.69,20.14c-.23-.59-3.65-2.52-3.83-2.23a.78.78,0,0,0-.07.16l-.71-.41c0-.08,0-.15-.07-.23-.19-.52-3.61-2.52-3.83-2.19a.63.63,0,0,0-.09.28l-.41-.2,0,.53.38.27c0,.27.08.48.08.48a2.41,2.41,0,0,1,.09-.81c.26-.41,3.19,1.35,3.58,2a1.8,1.8,0,0,1-.1,1.27l.05,0a1.42,1.42,0,0,0,.24-.42l.76.44a4.12,4.12,0,0,0,.24.71l0,0c-.18-.73-.23-1.32-.09-1.38.39-.18,3.32,1.43,3.58,2.15a3.39,3.39,0,0,1,.09.91,2.83,2.83,0,0,0,.08-.39l.37.17,0-.49-.4-.26A1.83,1.83,0,0,0,200.69,20.14Zm-4.56-1.78a1.17,1.17,0,0,1,0-.12l.6.35a1.17,1.17,0,0,0,0,.14Z" transform="translate(-35.35 -1.04)"/><path class="cls-9" d="M192.28,15.7a1.67,1.67,0,0,0-.11.69,3.47,3.47,0,0,0,.89,2.46c1.61,1.4,2.47.82,2.77.06a1.45,1.45,0,0,0,0-1.15C195.46,17.15,192.53,15.36,192.28,15.7Z" transform="translate(-35.35 -1.04)"/><path class="cls-4" d="M192.34,16.46a.72.72,0,0,0,.25.55c.13.06.21-.08.2-.33a.74.74,0,0,0-.25-.55C192.42,16.07,192.33,16.22,192.34,16.46Z" transform="translate(-35.35 -1.04)"/><path class="cls-10" d="M144.15,71c.76-14.95,3.28-25.17,6.06-26.54a1.49,1.49,0,0,1,1.35,0l28.19,16.24-4.65,48.81-28-16C143.95,91.54,143.45,84.57,144.15,71Z" transform="translate(-35.35 -1.04)"/><path d="M164.4,72.82a4.86,4.86,0,0,0,2.2,3.8c1.21.7,2.19.13,2.19-1.27a4.87,4.87,0,0,0-2.19-3.8C165.38,70.85,164.4,71.42,164.4,72.82Z" transform="translate(-35.35 -1.04)"/><path d="M151.34,65.29a4.85,4.85,0,0,0,2.2,3.8c1.21.7,2.19.13,2.2-1.27a4.85,4.85,0,0,0-2.2-3.8C152.33,63.32,151.34,63.89,151.34,65.29Z" transform="translate(-35.35 -1.04)"/><path class="cls-11" d="M174.42,85.46c-.75,14.94-1.21,25.44,1.56,24.07s4.55-13.69,5.31-28.64.23-21.4-2.55-20S175.19,70.51,174.42,85.46Z" transform="translate(-35.35 -1.04)"/><path class="cls-12" d="M115.81,139.56a3.07,3.07,0,0,1,6.14,0v1.82h-.6a3.07,3.07,0,0,1-4.94,0h-.6Z" transform="translate(-35.35 -1.04)"/><path class="cls-13" d="M115.81,141.38a3.07,3.07,0,1,0,3.07-3.07A3.06,3.06,0,0,0,115.81,141.38Z" transform="translate(-35.35 -1.04)"/><path class="cls-14" d="M117.09,141.35a1.79,1.79,0,1,0,1.79-1.79A1.79,1.79,0,0,0,117.09,141.35Z" transform="translate(-35.35 -1.04)"/><path class="cls-12" d="M169.57,139.56a3.07,3.07,0,1,1,6.13,0v1.82h-.59a3.07,3.07,0,0,1-4.94,0h-.6Z" transform="translate(-35.35 -1.04)"/><path class="cls-13" d="M169.57,141.38a3.07,3.07,0,1,0,3.07-3.07A3.07,3.07,0,0,0,169.57,141.38Z" transform="translate(-35.35 -1.04)"/><circle class="cls-14" cx="137.28" cy="140.31" r="1.79"/><rect class="cls-14" x="108.32" y="151.81" width="3.57" height="7.39"/><path d="M142.12,134.61v-13.3c0-1.08,1.51-2,3.34-2s3.34.88,3.34,2v13.3H175.7v2.21c0,1.06-1.52,1.92-3.36,1.92H148.79v13.6c0,1.08-1.5,1.94-3.34,1.94s-3.34-.86-3.34-1.94v-13.6H118.57c-1.85,0-3.37-.86-3.37-1.92v-2.21Z" transform="translate(-35.35 -1.04)"/><path class="cls-12" d="M142.12,150.13V136.53H118.57c-1.85,0-3.37-.87-3.37-1.92s1.52-1.93,3.37-1.93h23.54v-13.6c0-1.07,1.51-1.95,3.34-1.95s3.34.88,3.34,1.95v13.6h23.54c1.85,0,3.36.87,3.36,1.93s-1.52,1.92-3.36,1.92H148.79v13.59c0,1.08-1.5,1.95-3.34,1.95S142.12,151.21,142.12,150.13Z" transform="translate(-35.35 -1.04)"/><path class="cls-12" d="M147.83,115.77a4.86,4.86,0,0,0-2.35-.57l-.89.07a4.5,4.5,0,0,0-1.51.5c-1.31.76-1.31,2,0,2.75a5.27,5.27,0,0,0,4.74,0C149.14,117.76,149.14,116.53,147.83,115.77Z" transform="translate(-35.35 -1.04)"/><path d="M143.08,118.52a5.27,5.27,0,0,0,4.74,0,1.72,1.72,0,0,0,1-1.29v17.63h0a1.66,1.66,0,0,1-1,1.37,5.22,5.22,0,0,1-4.74,0,1.6,1.6,0,0,1-1-1.44V117.16A1.68,1.68,0,0,0,143.08,118.52Z" transform="translate(-35.35 -1.04)"/><path class="cls-12" d="M148,108.63a5.27,5.27,0,0,0-2.56-.61l-1,.06a4.86,4.86,0,0,0-1.64.54c-1.43.83-1.43,2.17,0,3a5.71,5.71,0,0,0,5.17,0C149.47,110.8,149.47,109.47,148,108.63Z" transform="translate(-35.35 -1.04)"/><path class="cls-14" d="M142.87,111.62a5.71,5.71,0,0,0,5.17,0,1.87,1.87,0,0,0,1.07-1.4v7.39h0A1.82,1.82,0,0,1,148,119.1a5.7,5.7,0,0,1-5.17,0,1.74,1.74,0,0,1-1.06-1.58v-7.38A1.81,1.81,0,0,0,142.87,111.62Z" transform="translate(-35.35 -1.04)"/><path class="cls-12" d="M130.84,97.9c8.13-4.69,14.82-7.05,15.8-5.68L176,109.51l-31.61,18.92S114.93,111.59,114.93,111C114.93,108.86,122.06,103,130.84,97.9Z" transform="translate(-35.35 -1.04)"/><path d="M144.14,127.89c0,2.16,7.14-.19,15.92-5.27S176,111.68,176,109.51s-7.13.19-15.93,5.27S144.14,125.73,144.14,127.89Z" transform="translate(-35.35 -1.04)"/><path class="cls-15" d="M137.52,71.45c4.57-2.33,5.63-3.9,5.63-3.9l7.17-15.62-2.57-2.57s-4.12,0-6.67,5.3c-1.43,3-6.18,9.08-6.43,9.36Z" transform="translate(-35.35 -1.04)"/><path class="cls-3" d="M163.08,51.94a6.53,6.53,0,0,0,1.14,2.75l-.32,3-5.18,5-8.93.48s-1.41-3.74-1.51-4.17.81-7,.81-7l7.15-4.07,6.6.38A36.9,36.9,0,0,0,163.08,51.94Z" transform="translate(-35.35 -1.04)"/><path class="cls-4" d="M103.6,148.67c-3.71,1.54-9.9,2.49-10.5,3.14s-.91,3,.41,3.26c6.54,1.12,10.09.36,10.09.36s6.73,1,8,.16a9,9,0,0,0,1.19-5.12S107.3,147.13,103.6,148.67Z" transform="translate(-35.35 -1.04)"/><path class="cls-6" d="M140.93,90.75c-9.47,3.16-25.92,18.69-31.48,23.67-2.36,2.12-2.46,25.44-6.79,33.09,4.41,6.55,13.32,1.74,13.32,1.74s5-17,3.85-29.25a225.19,225.19,0,0,0,23-9.43l8.75-9.87S150.4,87.59,140.93,90.75Z" transform="translate(-35.35 -1.04)"/><path class="cls-4" d="M110.18,161.06s-6.12,3.43-6.92,4.24a6.13,6.13,0,0,0-1.14,2.62s3.14,5,8.06,3c3.41-1.35,6-2.33,6.65-3.16s.75-5.29.75-5.29Z" transform="translate(-35.35 -1.04)"/><path class="cls-6" d="M141.08,91.51c.74,5.48,5.58,11,5.58,11s-18,15.41-22.17,24.2c-2.28,4.79-7.49,19.45-14.9,32-1,1.72,4.31,8.36,10.84,3.43,3.74-6.63,9.52-14.12,14.44-29.63-1.39.85,24.41-17.22,29.1-24.07s1.92-14.55,1.92-14.55S140.34,86,141.08,91.51Z" transform="translate(-35.35 -1.04)"/><path class="cls-5" d="M165.75,94.51c-12.28,9.43-24.68-3-24.68-3V88.17l24.68,3A12.83,12.83,0,0,1,165.75,94.51Z" transform="translate(-35.35 -1.04)"/><path class="cls-16" d="M171.26,60.5s-4-4.68-6.66-6c-3.13,1.26-4.89,7-13.48,7-2.33-4,.64-9.63.64-9.63s-1.68-1-2.57-.59c-6.58,4.86-8.16,12.79-8.1,16.4s1.12,7.63,0,20.52c.51,1.17,5.47,7,14.9,7.25s9.78-5,9.78-5Z" transform="translate(-35.35 -1.04)"/><path class="cls-2" d="M148.72,37.39c-2.46,5-1.37,6.61-1.37,6.61s-1.11,3.49.72,10.54c1.06,2.87,8.32,2.11,13.35-4.81,0,0,3.56-1.15,2.14-5.58-.35-1.46-6-3.41-6-3.41C149.94,40.52,149.27,37,148.72,37.39Z" transform="translate(-35.35 -1.04)"/><path class="cls-10" d="M148.65,34.26c-1.15,2.06.68,3.84,1.41,6,.55,1.64,6.8-.48,6.16,1.6s2.05,2.27,2.1,5.41c.76.24,2.21-1.6,3.85-1.16,1.59.81-.19,2.36-.74,3.58a1.64,1.64,0,0,0,1.66,2.22c7.1-5.56,1.61-18.8-3.39-19.1C157.49,30.28,149.62,32.53,148.65,34.26Z" transform="translate(-35.35 -1.04)"/><path class="cls-11" d="M150.68,39c4.27-4.7,7.62-5.7,7.62-5.7S153.29,33.42,150.68,39Z" transform="translate(-35.35 -1.04)"/><path class="cls-17" d="M139,203.8a13.34,13.34,0,0,1-12,0l-89.1-51.44c-3.31-1.91-3.31-5,0-6.94l43.64-25.19a13.32,13.32,0,0,1,12,0l89.1,51.44c3.31,1.91,3.31,5,0,6.94Z" transform="translate(-35.35 -1.04)"/><polygon class="cls-18" points="4.94 152.75 2.48 151.32 2.48 92.8 58.13 60.67 60.6 62.1 4.94 152.75"/><polygon class="cls-19" points="60.6 120.62 4.94 152.75 4.94 94.23 60.6 62.1 60.6 120.62"/><polygon class="cls-10" points="26.89 154.72 15.06 147.89 15.06 118.17 26.89 124.99 26.89 154.72"/><polygon class="cls-11" points="52.85 139.72 26.89 154.72 26.89 124.99 52.85 110 52.85 139.72"/><polygon class="cls-20" points="26.89 124.99 15.06 118.17 41.03 103.17 52.85 110 26.89 124.99"/><polygon class="cls-16" points="25.93 151.77 16.01 146.04 16.01 121.11 25.93 126.84 25.93 151.77"/><path class="cls-20" d="M55.81,129.49c0,1.14-.8,1.6-1.78,1a3.94,3.94,0,0,1-1.79-3.09c0-1.13.8-1.6,1.79-1A3.94,3.94,0,0,1,55.81,129.49Z" transform="translate(-35.35 -1.04)"/><polygon class="cls-20" points="25.08 140.56 16.86 135.82 16.86 135 25.08 139.75 25.08 140.56"/><polygon class="cls-20" points="25.08 143.81 16.86 139.07 16.86 138.26 25.08 143 25.08 143.81"/><polygon class="cls-20" points="25.08 145.11 16.86 140.37 16.86 139.56 25.08 144.3 25.08 145.11"/><polygon class="cls-20" points="25.08 146.41 16.86 141.67 16.86 140.85 25.08 145.6 25.08 146.41"/><polygon class="cls-10" points="21.16 135.96 21.79 136.32 22.48 134.98 21.86 134.62 21.16 135.41 21.16 135.96"/><polygon class="cls-11" points="22.48 134.98 21.79 135.77 21.79 136.32 22.48 136.31 23.65 135.63 23.65 134.31 22.48 134.98"/><polygon class="cls-20" points="23.03 133.95 23.65 134.31 22.48 134.98 21.86 134.62 23.03 133.95"/><polygon class="cls-18" points="15.32 146.46 15.32 145.33 17.68 145.43 17.68 146.57 16.07 146.89 15.32 146.46"/><polygon class="cls-18" points="19.52 144.38 17.72 143.34 15.88 144.39 15.32 145.33 16.07 145.76 17.68 145.43 19.52 144.38"/><polygon class="cls-19" points="19.52 145.51 19.52 144.38 17.68 145.43 17.68 146.57 19.52 145.51"/><polygon class="cls-19" points="100.17 173.9 97.68 175.34 12.01 105.18 14.5 103.74 100.17 153.2 100.17 173.9"/><polygon class="cls-18" points="97.68 175.34 12.01 125.89 12.01 105.18 97.68 154.64 97.68 175.34"/><polygon class="cls-18" points="91.58 202.77 89.12 201.34 89.12 142.82 144.77 110.69 147.23 112.11 91.58 202.77"/><polygon class="cls-19" points="147.23 170.63 91.58 202.77 91.58 144.25 147.23 112.11 147.23 170.63"/><path class="cls-19" d="M183.93,114.18a6.48,6.48,0,0,0-1.35-1L93.48,61.71a13.31,13.31,0,0,0-12,0L37.83,86.9a6.37,6.37,0,0,0-1.34,1H35.35v2.6a4.28,4.28,0,0,0,2.46,3.32l89.1,51.44a13.31,13.31,0,0,0,12,0l43.63-25.19a4.23,4.23,0,0,0,2.48-3.43h0v-2.49Z" transform="translate(-35.35 -1.04)"/><path class="cls-18" d="M139,142.86a13.35,13.35,0,0,1-12,0L37.83,91.41c-3.31-1.91-3.31-5,0-6.94L81.47,59.28a13.32,13.32,0,0,1,12,0l89.1,51.44c3.31,1.91,3.31,5,0,6.94Z" transform="translate(-35.35 -1.04)"/><path class="cls-16" d="M102,85.59V84.08a2,2,0,0,1,1.94,0l9.91-5.72a2.15,2.15,0,0,1,1.9-.07l31.92,18.39a2.14,2.14,0,0,1,2,0v1.45h0a.81.81,0,0,1-.46.65l-11.39,6.58a2.09,2.09,0,0,1-1.89.07L102.33,86.06a.55.55,0,0,1-.32-.47Z" transform="translate(-35.35 -1.04)"/><path class="cls-16" d="M102,85.59V84.08a2,2,0,0,1,1.94,0l9.91-5.72a2.15,2.15,0,0,1,1.9-.07l31.92,18.39a2.14,2.14,0,0,1,2,0v1.45h0a.81.81,0,0,1-.46.65l-11.39,6.58a2.09,2.09,0,0,1-1.89.07L102.33,86.06a.55.55,0,0,1-.32-.47Z" transform="translate(-35.35 -1.04)"/><path class="cls-4" d="M102.33,84.57,136,103.94a2.12,2.12,0,0,0,1.89-.07l11.39-6.6c.55-.31.61-.81.13-1.09L115.76,76.81a2.11,2.11,0,0,0-1.9.08l-11.39,6.58C101.91,83.8,101.84,84.29,102.33,84.57Z" transform="translate(-35.35 -1.04)"/><polygon class="cls-21" points="80.67 83.1 81.96 83.83 83.36 83.02 82.07 82.28 80.67 83.1"/><polygon class="cls-21" points="83.92 83.02 85.21 83.77 86.62 82.95 85.33 82.22 83.92 83.02"/><polygon class="cls-21" points="82.33 82.12 83.64 82.86 85.05 82.05 83.76 81.31 82.33 82.12"/><polygon class="cls-21" points="80.76 81.21 82.06 81.95 83.47 81.14 82.18 80.39 80.76 81.21"/><polygon class="cls-21" points="98.16 91.28 105.92 95.76 107.33 94.94 99.57 90.47 98.16 91.28"/><polygon class="cls-21" points="99.35 101.69 100.65 102.45 101.85 101.75 100.54 101.01 99.35 101.69"/><polygon class="cls-21" points="92.13 97.54 98.5 101.21 99.71 100.53 93.33 96.84 92.13 97.54"/><polygon class="cls-21" points="84.66 93.25 91.04 96.91 92.24 96.22 85.86 92.54 84.66 93.25"/><polygon class="cls-21" points="77.25 88.97 83.63 92.63 84.83 91.95 78.44 88.28 77.25 88.97"/><polygon class="cls-21" points="72.27 86.09 76.71 88.65 77.91 87.96 73.46 85.39 72.27 86.09"/><polygon class="cls-21" points="107.8 96.84 109.1 97.59 110.51 96.78 109.22 96.03 107.8 96.84"/><polygon class="cls-21" points="106.22 95.93 107.51 96.68 108.92 95.86 107.62 95.11 106.22 95.93"/><polygon class="cls-21" points="98.07 98.79 99.37 99.53 100.77 98.72 99.49 97.98 98.07 98.79"/><polygon class="cls-21" points="96.42 97.83 97.71 98.59 99.13 97.77 97.84 97.02 96.42 97.83"/><polygon class="cls-21" points="94.79 96.91 96.09 97.64 97.51 96.83 96.2 96.08 94.79 96.91"/><polygon class="cls-21" points="93.17 95.98 94.48 96.72 95.89 95.91 94.6 95.16 93.17 95.98"/><polygon class="cls-21" points="91.98 87.72 93.27 88.48 94.68 87.66 93.39 86.91 91.98 87.72"/><polygon class="cls-21" points="85.7 84.12 88.7 85.83 90.1 85.02 87.12 83.29 85.7 84.12"/><polygon class="cls-21" points="104.59 96.87 106 96.05 108.88 97.73 107.47 98.55 104.59 96.87"/><polygon class="cls-21" points="102.99 95.97 104.29 96.7 105.7 95.88 104.41 95.14 102.99 95.97"/><polygon class="cls-21" points="101.34 95.01 102.64 95.76 104.05 94.94 102.75 94.19 101.34 95.01"/><polygon class="cls-21" points="99.71 94.08 101.01 94.81 102.42 94 101.13 93.25 99.71 94.08"/><polygon class="cls-21" points="98.11 93.13 99.39 93.89 100.81 93.06 99.51 92.33 98.11 93.13"/><polygon class="cls-21" points="90.34 88.67 91.64 89.42 93.06 88.61 91.76 87.86 90.34 88.67"/><polygon class="cls-21" points="102.96 97.82 104.36 97 107.25 98.67 105.84 99.47 102.96 97.82"/><polygon class="cls-21" points="101.36 96.9 102.66 97.64 104.06 96.83 102.77 96.08 101.36 96.9"/><polygon class="cls-21" points="99.71 95.94 101.01 96.7 102.42 95.88 101.13 95.13 99.71 95.94"/><polygon class="cls-21" points="98.08 95.01 99.38 95.76 100.78 94.94 99.5 94.19 98.08 95.01"/><polygon class="cls-21" points="96.47 94.08 97.77 94.82 99.17 94.02 97.88 93.27 96.47 94.08"/><polygon class="cls-21" points="88.72 89.61 90.01 90.37 91.42 89.54 90.13 88.79 88.72 89.61"/><polygon class="cls-21" points="84.07 85.06 85.49 84.24 88.47 85.97 87.06 86.78 85.44 85.86 83.82 86.79 82.44 86 84.07 85.06 84.07 85.06"/><polygon class="cls-21" points="101.71 98.99 103.13 98.17 105.62 99.61 104.2 100.43 101.71 98.99"/><polygon class="cls-21" points="99.72 97.83 101.02 98.59 102.44 97.77 101.15 97.02 99.72 97.83"/><polygon class="cls-21" points="98.09 96.9 99.38 97.64 100.79 96.83 99.5 96.07 98.09 96.9"/><polygon class="cls-21" points="96.45 95.97 97.75 96.7 99.16 95.88 97.86 95.13 96.45 95.97"/><polygon class="cls-21" points="94.84 95.02 96.14 95.77 97.54 94.95 96.25 94.21 94.84 95.02"/><polygon class="cls-21" points="91.6 95.07 92.9 95.81 94.31 95 93.02 94.25 91.6 95.07"/><polygon class="cls-21" points="96.53 92.24 97.82 92.98 99.23 92.15 97.94 91.42 96.53 92.24"/><polygon class="cls-21" points="94.89 93.18 96.19 93.92 97.6 93.1 96.31 92.37 94.89 93.18"/><polygon class="cls-21" points="93.26 94.12 94.56 94.86 95.96 94.04 94.68 93.3 93.26 94.12"/><polygon class="cls-21" points="96.61 90.41 97.91 91.14 99.32 90.33 98.02 89.58 96.61 90.41"/><polygon class="cls-21" points="94.99 91.34 96.27 92.08 97.69 91.28 96.4 90.53 94.99 91.34"/><polygon class="cls-21" points="93.35 92.28 94.64 93.04 96.05 92.21 94.76 91.47 93.35 92.28"/><polygon class="cls-21" points="91.72 93.23 93.02 93.97 94.42 93.16 93.13 92.41 91.72 93.23"/><polygon class="cls-21" points="95.02 89.49 96.31 90.22 97.73 89.42 96.44 88.67 95.02 89.49"/><polygon class="cls-21" points="93.39 90.43 94.68 91.17 96.09 90.36 94.8 89.61 93.39 90.43"/><polygon class="cls-21" points="91.76 91.38 93.06 92.11 94.47 91.31 93.17 90.55 91.76 91.38"/><polygon class="cls-21" points="90.13 92.31 91.42 93.06 92.83 92.24 91.54 91.5 90.13 92.31"/><polygon class="cls-21" points="93.49 88.6 94.78 89.35 96.2 88.54 94.91 87.79 93.49 88.6"/><polygon class="cls-21" points="91.86 89.54 93.16 90.28 94.57 89.48 93.27 88.72 91.86 89.54"/><polygon class="cls-21" points="90.23 90.49 91.52 91.22 92.94 90.42 91.64 89.68 90.23 90.49"/><polygon class="cls-21" points="88.59 91.44 89.9 92.17 91.3 91.35 90.01 90.62 88.59 91.44"/><polygon class="cls-21" points="87.08 90.55 88.38 91.31 89.78 90.49 88.49 89.74 87.08 90.55"/><polygon class="cls-21" points="80.81 86.95 83.8 88.67 85.21 87.86 82.22 86.12 80.81 86.95"/><polygon class="cls-21" points="101.28 100.62 102.57 101.37 103.98 100.55 102.69 99.81 101.28 100.62"/><polygon class="cls-21" points="99.69 99.7 100.99 100.45 102.4 99.64 101.09 98.89 99.69 99.7"/><polygon class="cls-21" points="88.49 93.26 89.78 94 91.2 93.18 89.91 92.44 88.49 93.26"/><polygon class="cls-21" points="90.08 94.17 91.38 94.92 92.79 94.1 91.51 93.36 90.08 94.17"/><polygon class="cls-21" points="86.96 92.38 88.26 93.13 89.68 92.31 88.38 91.56 86.96 92.38"/><polygon class="cls-21" points="85.45 91.51 86.75 92.25 88.16 91.44 86.86 90.68 85.45 91.51"/><polygon class="cls-21" points="90.47 86.86 91.77 87.61 93.17 86.79 91.88 86.05 90.47 86.86"/><polygon class="cls-21" points="88.83 87.81 90.13 88.55 91.55 87.73 90.25 86.98 88.83 87.81"/><polygon class="cls-21" points="87.21 88.75 88.49 89.49 89.91 88.67 88.61 87.93 87.21 88.75"/><polygon class="cls-21" points="85.58 89.69 86.87 90.43 88.29 89.63 86.98 88.88 85.58 89.69"/><polygon class="cls-21" points="83.94 90.64 85.23 91.39 86.65 90.56 85.36 89.82 83.94 90.64"/><polygon class="cls-21" points="88.96 86 90.25 86.73 91.66 85.92 90.36 85.18 88.96 86"/><polygon class="cls-21" points="79.03 85.93 80.32 86.68 81.73 85.87 80.44 85.12 79.03 85.93"/><polygon class="cls-21" points="77.45 85.02 78.75 85.78 80.17 84.93 78.86 84.2 77.45 85.02"/><polygon class="cls-21" points="75.88 84.11 77.17 84.86 78.58 84.04 77.29 83.29 75.88 84.11"/><polygon class="cls-21" points="77.41 86.88 78.69 87.62 80.1 86.8 78.81 86.05 77.41 86.88"/><polygon class="cls-21" points="75.82 85.97 77.12 86.71 78.53 85.89 77.22 85.15 75.82 85.97"/><polygon class="cls-21" points="74.25 85.05 75.55 85.8 76.95 84.98 75.66 84.24 74.25 85.05"/><polygon class="cls-21" points="78.95 80.22 80.25 80.97 81.66 80.16 80.36 79.41 78.95 80.22"/><polygon class="cls-21" points="77.37 79.32 78.67 80.06 80.08 79.24 78.79 78.5 77.37 79.32"/><polygon class="cls-21" points="75.8 78.42 77.09 79.15 78.5 78.35 77.21 77.59 75.8 78.42"/><polygon class="cls-21" points="77.31 81.16 78.61 81.91 80.03 81.09 78.73 80.35 77.31 81.16"/><polygon class="cls-21" points="75.75 80.26 77.04 81 78.45 80.18 77.15 79.46 75.75 80.26"/><polygon class="cls-21" points="75.66 82.14 76.95 82.87 78.38 82.06 77.08 81.31 75.66 82.14"/><polygon class="cls-21" points="74.08 81.22 75.38 81.97 76.79 81.15 75.5 80.41 74.08 81.22"/><polygon class="cls-21" points="75.58 78.53 76.87 79.28 73.8 81.05 72.51 80.32 75.58 78.53"/><polygon class="cls-21" points="74.03 83.07 75.33 83.82 76.74 83 75.44 82.26 74.03 83.07"/><polygon class="cls-21" points="72.46 82.17 73.75 82.91 75.16 82.09 73.86 81.35 72.46 82.17"/><polygon class="cls-21" points="70.85 83.09 72.26 82.28 75.13 83.93 73.72 84.74 70.85 83.09"/><polygon class="cls-21" points="72.28 80.44 73.58 81.19 70.57 82.92 69.27 82.19 72.28 80.44"/><polygon class="cls-21" points="87.32 86.93 88.61 87.67 90.03 86.87 88.74 86.12 87.32 86.93"/><polygon class="cls-21" points="85.68 87.87 86.98 88.61 88.4 87.81 87.1 87.06 85.68 87.87"/><polygon class="cls-21" points="84.13 86.97 85.43 87.72 86.84 86.91 85.55 86.16 84.13 86.97"/><polygon class="cls-21" points="84.06 88.81 85.36 89.57 86.77 88.75 85.47 88.02 84.06 88.81"/><polygon class="cls-21" points="82.44 89.77 83.72 90.51 85.14 89.69 83.84 88.94 82.44 89.77"/><polygon class="cls-21" points="80.87 88.88 82.17 89.61 83.58 88.79 82.28 88.04 80.87 88.88"/><polygon class="cls-21" points="79.17 87.89 80.67 88.75 82.08 87.93 80.59 87.06 79.17 87.89"/><polygon class="cls-21" points="69.54 83.17 71.92 84.54 72.14 84.42 69.75 83.04 69.54 83.17"/><polygon class="cls-21" points="69.05 83.45 71.44 84.83 71.64 84.7 69.26 83.32 69.05 83.45"/><polygon class="cls-21" points="68.55 83.74 70.94 85.12 71.14 85 68.76 83.61 68.55 83.74"/><polygon class="cls-21" points="69.53 84.28 69.96 84.55 70.17 84.43 69.74 84.17 69.53 84.28"/><path class="cls-22" d="M83.93,102a1.09,1.09,0,0,1,1.07,0l5.49-3.19a1.19,1.19,0,0,1,1,0L109.2,109a1.18,1.18,0,0,1,1.11,0v1.26h0c0,.13-.08.25-.25.34l-6.3,3.65a1.21,1.21,0,0,1-1.06.05l-18.6-10.72a.3.3,0,0,1-.18-.25Z" transform="translate(-35.35 -1.04)"/><path class="cls-23" d="M84.11,102.31,102.7,113a1.21,1.21,0,0,0,1.06,0l6.3-3.66c.3-.17.35-.44.07-.6L91.53,98a1.19,1.19,0,0,0-1,.06l-6.3,3.63C83.88,101.86,83.84,102.15,84.11,102.31Z" transform="translate(-35.35 -1.04)"/><path class="cls-4" d="M119.26,83.32,78.91,60a.52.52,0,0,0-.54,0h0l-1.16.69L78,61.83l.23-.2V89.07A1.62,1.62,0,0,0,79,90.32l39.39,22.75.27,1.29,1.13-.67h0a.52.52,0,0,0,.22-.47V84.59A1.59,1.59,0,0,0,119.26,83.32Z" transform="translate(-35.35 -1.04)"/><path class="cls-4" d="M118.12,114.32,77.77,91A1.64,1.64,0,0,1,77,89.76V61.12c0-.47.32-.66.73-.43L118.12,84a1.63,1.63,0,0,1,.72,1.26v28.64C118.84,114.36,118.51,114.54,118.12,114.32Z" transform="translate(-35.35 -1.04)"/><polygon class="cls-23" points="66.59 98.75 66.58 110.22 68.55 109.11 68.55 94.98 67.81 95.34 66.59 98.75"/><polygon class="cls-4" points="52.17 90.44 52.17 101.89 66.58 110.22 66.59 98.75 52.17 90.44"/><polygon class="cls-23" points="53.39 87.02 52.17 90.42 66.59 98.75 67.81 95.34 53.39 87.02"/><polygon class="cls-23" points="54.13 86.67 53.4 87.01 67.81 95.34 68.55 94.98 54.13 86.67"/><polygon class="cls-18" points="44.98 93.2 44.98 92.07 47.34 92.17 47.34 93.31 45.73 93.63 44.98 93.2"/><polygon class="cls-18" points="49.17 91.12 47.37 90.08 45.54 91.13 44.98 92.07 45.73 92.5 47.34 92.17 49.17 91.12"/><polygon class="cls-19" points="49.17 92.25 49.17 91.12 47.34 92.17 47.34 93.31 49.17 92.25"/><polygon class="cls-16" points="35.39 91.84 33.96 92.67 32.52 77.22 33.96 76.4 35.39 91.84"/><polygon class="cls-23" points="33.96 76.4 32.52 77.22 25.53 73.19 26.96 72.36 33.96 76.4"/><polygon class="cls-4" points="33.96 92.67 26.96 88.63 25.53 73.19 32.52 77.22 33.96 92.67"/><polygon class="cls-16" points="30.56 89.58 32.48 85.98 33.05 92.14 30.56 93.58 30.56 89.58"/><polygon class="cls-23" points="25.36 86.58 27.28 82.98 32.48 85.98 30.56 89.58 25.36 86.58"/><polygon class="cls-4" points="25.36 86.58 30.56 89.58 30.56 93.58 25.36 90.58 25.36 86.58"/><path class="cls-10" d="M63.69,94a.78.78,0,0,1-.27-.29l-.06-.13a.69.69,0,0,1-.05-.25c0-.24.17-.35.39-.22a.85.85,0,0,1,.39.67C64.08,94.05,63.91,94.15,63.69,94Z" transform="translate(-35.35 -1.04)"/><path class="cls-11" d="M63.69,93.14a.85.85,0,0,1,.39.67A.29.29,0,0,1,64,94l1.35-.78h0a.27.27,0,0,0,.11-.25.85.85,0,0,0-.39-.67.27.27,0,0,0-.28,0L63.58,93l-.16.09A.26.26,0,0,1,63.69,93.14Z" transform="translate(-35.35 -1.04)"/><path class="cls-10" d="M63.69,92.51a.8.8,0,0,1-.27-.29l-.06-.13a.68.68,0,0,1-.05-.25c0-.25.17-.34.39-.22a.86.86,0,0,1,.39.67C64.08,92.53,63.91,92.63,63.69,92.51Z" transform="translate(-35.35 -1.04)"/><path class="cls-11" d="M63.69,91.62a.86.86,0,0,1,.39.67.28.28,0,0,1-.1.24l1.35-.78h0a.26.26,0,0,0,.11-.25.86.86,0,0,0-.39-.68.26.26,0,0,0-.28,0l-1.19.69-.16.09A.27.27,0,0,1,63.69,91.62Z" transform="translate(-35.35 -1.04)"/><polygon class="cls-16" points="103.67 127.66 102.24 128.49 100.81 113.04 102.24 112.21 103.67 127.66"/><polygon class="cls-23" points="102.24 112.21 100.81 113.04 93.82 109.01 95.25 108.18 102.24 112.21"/><polygon class="cls-4" points="102.24 128.49 95.25 124.45 93.82 109.01 100.81 113.04 102.24 128.49"/><polygon class="cls-16" points="98.84 125.39 100.77 121.8 101.34 127.96 98.84 129.4 98.84 125.39"/><polygon class="cls-23" points="93.64 122.39 95.56 118.8 100.77 121.8 98.84 125.39 93.64 122.39"/><polygon class="cls-4" points="93.64 122.39 98.84 125.39 98.84 129.4 93.64 126.4 93.64 122.39"/><path class="cls-10" d="M132,129.85a.79.79,0,0,1-.27-.29l-.06-.13a.8.8,0,0,1-.05-.25c0-.25.17-.35.39-.23a.86.86,0,0,1,.39.67C132.37,129.87,132.19,130,132,129.85Z" transform="translate(-35.35 -1.04)"/><path class="cls-11" d="M132,129a.86.86,0,0,1,.39.67.28.28,0,0,1-.1.24l1.35-.78h0a.27.27,0,0,0,.11-.25.88.88,0,0,0-.39-.67.28.28,0,0,0-.29,0l-1.19.69-.16.09A.28.28,0,0,1,132,129Z" transform="translate(-35.35 -1.04)"/><path class="cls-11" d="M122.78,132.07a25.34,25.34,0,0,1-8.19-1.47c-6-2-12.19-6.19-17.59-11.69-8.31-8.48-18.18-13.53-25.38-17.22-5.34-2.73-8.86-4.54-9.05-6.39a2.14,2.14,0,0,1,1-1.86.18.18,0,0,1,.25,0,.18.18,0,0,1,0,.24,1.84,1.84,0,0,0-.89,1.56c.17,1.67,3.82,3.53,8.86,6.12,7.22,3.7,17.11,8.77,25.47,17.29,9,9.16,23.45,17.43,34.64,10.57a.17.17,0,0,1,.24.06.17.17,0,0,1-.06.24A17.51,17.51,0,0,1,122.78,132.07Z" transform="translate(-35.35 -1.04)"/><path class="cls-11" d="M56.13,137.3a1.07,1.07,0,0,1-.43-.09c-1.84-.76-3.61-6.52-4.11-13.4-.41-5.57-.74-24.32,12-31.9a.17.17,0,1,1,.18.29c-12.57,7.48-12.25,26.06-11.85,31.57.54,7.42,2.41,12.49,3.89,13.11a.75.75,0,0,0,.83-.17.17.17,0,0,1,.23.26A1.16,1.16,0,0,1,56.13,137.3Z" transform="translate(-35.35 -1.04)"/><path class="cls-11" d="M47.88,148.21c-.49,0-.76-.12-.91-.36-.43-.7.61-1.81,3.1-4.48a80.87,80.87,0,0,0,12.36-16.21c2.19-4,3-8.33,3.79-12.55,1.55-8.36,3-16.25,14.32-21a.35.35,0,0,1,.27.64c-11,4.61-12.39,12.33-13.91,20.49-.79,4.28-1.61,8.7-3.86,12.76a82.3,82.3,0,0,1-12.46,16.34c-1.5,1.61-3.05,3.27-3,3.67.08,0,.63.14,3.38-.64a.35.35,0,0,1,.43.24.34.34,0,0,1-.24.43A13.54,13.54,0,0,1,47.88,148.21Z" transform="translate(-35.35 -1.04)"/><path class="cls-15" d="M134.65,64c-3.67.64-6.79,1.77-9.42,1.54-.54.62.9,6.79.9,6.79s7.56,1.45,11.39-.91L139.19,67Z" transform="translate(-35.35 -1.04)"/><path class="cls-16" d="M134.65,64A16.46,16.46,0,0,0,137.29,70C134,68.44,134.65,64,134.65,64Z" transform="translate(-35.35 -1.04)"/><path class="cls-2" d="M124.86,72.35a13.32,13.32,0,0,0,0-3.15l1.16-.28s-.56,1.87.83,1.83,1.11-2.08.89-3-.81-2.18-2.09-2.22-2.72.76-4.15,1.2c-1.82.56-2.14,3.93-1.86,5.3a5.35,5.35,0,0,0,3,3.59C124.44,76.47,124.6,74.22,124.86,72.35Z" transform="translate(-35.35 -1.04)"/><path class="cls-4" d="M121.23,68.21a5.65,5.65,0,0,1,2.76-.65l1.05.06a5.23,5.23,0,0,1,1.77.59c1.53.88,1.53,2.34,0,3.22a6.19,6.19,0,0,1-5.59,0C119.7,70.55,119.7,69.11,121.23,68.21Z" transform="translate(-35.35 -1.04)"/><path class="cls-24" d="M127,70.75a2.58,2.58,0,0,0-.54-.41,4.52,4.52,0,0,0-1.55-.51l-.92-.08a5.3,5.3,0,0,0-2.4.59,2.63,2.63,0,0,0-.54.41c-.76-.75-.58-1.73.54-2.39a5.26,5.26,0,0,1,2.4-.58l.92.08a4.93,4.93,0,0,1,1.55.51C127.58,69,127.75,70,127,70.75Z" transform="translate(-35.35 -1.04)"/><path class="cls-25" d="M127,70.75a3,3,0,0,1-.54.42,5.41,5.41,0,0,1-4.86,0,3,3,0,0,1-.54-.42,2.63,2.63,0,0,1,.54-.41,5.3,5.3,0,0,1,2.4-.59l.92.08a4.52,4.52,0,0,1,1.55.51A2.58,2.58,0,0,1,127,70.75Z" transform="translate(-35.35 -1.04)"/><path class="cls-4" d="M126.82,71.43a6.19,6.19,0,0,1-5.59,0,2,2,0,0,1-1.15-1.51v6.57h0a2,2,0,0,0,1.15,1.6,6.2,6.2,0,0,0,5.59,0A1.93,1.93,0,0,0,128,76.38V69.84A2,2,0,0,1,126.82,71.43Z" transform="translate(-35.35 -1.04)"/><path class="cls-2" d="M140.69,89c-3.65-2.21-4.41-2.77-6.34-3.09s-7.06,2.09-7.18,3.53,2,3.81,3.21,4.33,4.49-.44,4.49-.44,4,1.93,5.82.72a12.2,12.2,0,0,1,2.81-1.28l-1-2.53A4.77,4.77,0,0,1,140.69,89Z" transform="translate(-35.35 -1.04)"/><path class="cls-15" d="M164.12,69.54A88.16,88.16,0,0,0,161,87c-13.4.8-15.24,2-15.24,2h-5.06a3.72,3.72,0,0,1,0,5.05s2.94.32,5.38.56c.88,1.85,11.47,1.32,16.34,1.1,5.83-.27,6.61-3.34,6.61-3.34s5.4-18.53,6.27-21.34.71-8.51-4-10.52C169.26,59.94,165.3,64.25,164.12,69.54Z" transform="translate(-35.35 -1.04)"/><path class="cls-16" d="M146.07,94.6s2.17-3.13-.32-5.62C149.62,91.79,146.07,94.6,146.07,94.6Z" transform="translate(-35.35 -1.04)"/><path class="cls-16" d="M165.75,91.17S162.54,87.57,161,87C164.19,86.6,165.75,91.17,165.75,91.17Z" transform="translate(-35.35 -1.04)"/></svg>