<svg id="line" xmlns="http://www.w3.org/2000/svg" viewBox="0 0 799.47 466.37"><defs><style>.cls-1{fill:#fff;}</style></defs><title>line</title><path class="cls-1" d="M639.42,1024.17a25.22,25.22,0,0,1-12.43-2.91h0L176.24,761c-3.68-2.12-5.71-5.19-5.71-8.63,0-4,2.75-7.81,7.55-10.58l307.27-180c8.43-4.87,20.81-5.34,28.19-1.07L964.29,821c3.68,2.12,5.71,5.19,5.71,8.63,0,4-2.75,7.81-7.55,10.58l-307.26,180A32.24,32.24,0,0,1,639.42,1024.17ZM501.17,562.91a27.42,27.42,0,0,0-13.26,3.27l-307.26,180c-3.15,1.82-5,4.13-5,6.18s1.72,3.39,3.16,4.22l450.76,260.24h0c5.75,3.33,16.33,2.84,23.08-1.06l307.27-180c3.15-1.82,5-4.12,5-6.18s-1.72-3.39-3.16-4.22L511,565.12A20.16,20.16,0,0,0,501.17,562.91Z" transform="translate(-170.53 -557.8)"/></svg>