<svg id="Réteg_1" data-name="Réteg 1" xmlns="http://www.w3.org/2000/svg" viewBox="0 0 1522.52 3197.28"><defs><style>.cls-1{fill:none;stroke:#0071e3;stroke-width:7px;}</style></defs><title>path</title><g id="Réteg_2" data-name="Réteg 2"><path class="cls-1" d="M775.9,0S710.7,305,998,359.22c0,0,194,29.35,221.6,167.34a41.42,41.42,0,0,1,.8,7.9v668.4a37.81,37.81,0,0,1-1.3,10c-7,26.4-45.4,138.68-182.42,90.56l-4.41-1.75C1014.6,1294,885.57,1241,848.9,1329.86a39.72,39.72,0,0,0-2.7,10.67c-2.6,24.44-19.5,138.1-115,156.45a35.19,35.19,0,0,1-4.7.53c-13.1.43-85.3,7-89.5,99.14a53.4,53.4,0,0,0,.1,5.66c1.1,11.63,3.2,64.46-50.5,69.9,0,0-28.9,2.67-46.8-32.55,0,0-31.3-61.9-117.3,26.57a37,37,0,0,0-3.6,4.38c-4.1,5.87-17.5,22.73-37.3,26.57-22.1,4.27-267,52.08-308,60.08a32.64,32.64,0,0,0-12.2,5.12C36.2,1779.69-67,1872.55,120,1890.05c136.5,6.5,118.5,56.5,96,92.5-14.92,23.58-127.73,12.84-138,94C73.59,2128,97.35,2156,141.26,2181.17a28.1,28.1,0,0,0,5.24,2.32c56.1,18.31,35.5,43.18,88.69,46,54,2.88,102.7,2.88,124,49s168.3,98.4,268.1-20.06a22.17,22.17,0,0,0,1.4-1.81c7.1-9.6,72.2-95.2,132.6-87.73a23.91,23.91,0,0,1,3.8.75c9.9,2.56,52.3,15.47,71.1,51.44a8.1,8.1,0,0,0,.7,1.28c2.5,4.38,19.6,35.54,14.1,73a33.37,33.37,0,0,1-1.7,6.94c-4.6,13.13-21.1,69.48,21.7,97.86.9.53,1.7,1.17,2.6,1.81,6.8,5.34,48.4,34.68,138.7,26.89,0,0,71.5-5.44,89.5-28.71a30.93,30.93,0,0,1,4.7-5c10-8.22,41-28.28,69.3,12.06.6.85,1.1,1.6,1.6,2.45,2.5,4.27,15.2,21.56,55.9,20.49,46.4-1.28,213.9-1.92,213.9-1.92s111.3-1.49,47.3,169.37c-.4,1-.7,2-1,3-3.8,13.34-28.09,106.05,6.39,146.3l2.71,3.42c12.3,17.46,83.25,126-105.6,73.76a36.36,36.36,0,0,0-6.8-1.17c-31-1.71-256.1-9.39-320.7,134.15l-.9,2.24c-4.7,12.49-55.9,138.2-180.1,64.57a30.32,30.32,0,0,1-3-2c-8.9-6.72-60.6-42.26-83.3,21-24,66.81-8.2,128.07-68.9,148.56a32.38,32.38,0,0,1-13.5,1.49c-18.3-2-70.3-10.89-74.2-58.7-.7-9.07-4.4-17.72-10.9-23.69-9.3-8.54-25.4-14.73-51.2-.53a33.06,33.06,0,0,0-11.9,11.42c-7.6,12.06-25.6,36.82-46.4,39.06-27.7,3-189.1,0-189.1,0" transform="translate(-6.79 0.73)"/></g></svg>