<svg id="Réteg_1" data-name="Réteg 1" xmlns="http://www.w3.org/2000/svg" viewBox="0 0 215.89 205.18"><defs><style>.cls-1{fill:#9b9b9b;}.cls-1,.cls-21{opacity:0.3;}.cls-2{fill:#0066ba;}.cls-3{fill:#0071e3;}.cls-4{fill:#2b5e85;}.cls-5{fill:#919191;}.cls-6{fill:#c7a496;}.cls-7{fill:#0f2034;}.cls-8{fill:#121214;}.cls-9{fill:#f0c6b4;}.cls-10{fill:#1d374e;}.cls-11{fill:#dadada;}.cls-12{fill:#fff;}.cls-13{fill:#ccc;}.cls-14{fill:#56799c;}.cls-15{fill:#b7c0c9;}.cls-16{fill:#6c839a;}.cls-17{fill:#2a4e68;}.cls-18{fill:#ddce92;}.cls-19{fill:#faf0be;}.cls-20{fill:#a7a9ac;}.cls-22{fill:#b8b8b8;}.cls-23{fill:#d1d3d4;}.cls-24{fill:#603913;}.cls-25{fill:#d6c995;}.cls-26{fill:#bcbec0;}.cls-27{fill:#3c2415;}.cls-28{fill:#128742;}.cls-29{fill:#0a8074;}.cls-30{fill:#0f7338;}.cls-31{fill:#16a851;}.cls-32{fill:#303033;}.cls-33{fill:#bababa;}</style></defs><title>Publikálás</title><path class="cls-1" d="M93.18,110.39a31.42,31.42,0,0,0-7.71-3.12,13.15,13.15,0,0,0,3.33-8.49c0-5.19-3.41-10-9.59-13.59-6-3.45-13.87-5.34-22.25-5.34S40.67,81.75,34.7,85.2c-6.19,3.57-9.59,8.4-9.59,13.59s3.41,10,9.59,13.59c6,3.44,13.87,5.34,22.25,5.34a51.3,51.3,0,0,0,13.13-1.66,18.58,18.58,0,0,0,5.46,4.52c7.33,4.23,17.23,5.39,22.09,2.58S100.51,114.63,93.18,110.39ZM57,115.14c-7.94,0-15.38-1.78-21-5-5.36-3.09-8.31-7.13-8.3-11.36s2.95-8.27,8.3-11.36c5.58-3.22,13-5,21-5s15.38,1.77,21,5c5.36,3.09,8.31,7.12,8.31,11.36a11.2,11.2,0,0,1-3.67,7.87c-4.51-.73-8.76-.4-11.47,1.17-2.46,1.42-3.16,3.58-2.32,5.91A49,49,0,0,1,57,115.14Z" transform="translate(-25.11 -0.51)"/><path class="cls-2" d="M26.4,67.87V98.78c0,4.52,3,9,8.95,12.48,11.93,6.89,31.28,6.89,43.21,0,6-3.45,9-8,9-12.48h0V67.87Z" transform="translate(-25.11 -0.51)"/><path class="cls-3" d="M78.55,80.34c-11.93,6.89-31.28,6.89-43.21,0s-11.93-18.06,0-24.95,31.28-6.89,43.21,0S90.49,73.45,78.55,80.34Z" transform="translate(-25.11 -0.51)"/><path class="cls-4" d="M67.4,68.19s5.24-5.71,12.24-3A74.56,74.56,0,0,0,67.4,68.19Z" transform="translate(-25.11 -0.51)"/><path class="cls-4" d="M60.79,70.52s8.49-3.92,13.45,3.41C67.08,69.57,60.79,70.52,60.79,70.52Z" transform="translate(-25.11 -0.51)"/><path class="cls-2" d="M56.09,76c-7.28-2.12-18.79-1.42-18.79-1.42S44.67,69.61,56.09,76Z" transform="translate(-25.11 -0.51)"/><path class="cls-2" d="M47.75,66.93a34.53,34.53,0,0,0-12.47-4.56A11,11,0,0,1,47.75,66.93Z" transform="translate(-25.11 -0.51)"/><path class="cls-5" d="M47.94,17.44s.54-2.72,2.88-2.27c.5.41-.89,3.61-.89,3.61L48,19.85Z" transform="translate(-25.11 -0.51)"/><path class="cls-6" d="M50.15,14.53C50,16.52,48,18.8,48,18.8s2.79,3.35,3.47,4a2.44,2.44,0,0,0,3.87-.47S50.34,12.55,50.15,14.53Z" transform="translate(-25.11 -0.51)"/><path class="cls-7" d="M73.21,89.48s.95.36,2.21-.86l11.35-6.8L81.5,77.63s-3.6,1.76-5,2.66c-6.22,4.37-4,8.24-4,8.24Z" transform="translate(-25.11 -0.51)"/><path class="cls-8" d="M75.91,100.1a2.93,2.93,0,0,0-3.51.37,3.69,3.69,0,0,0-.55,3.92c.49,1.36,2,3.29,3,5.27.92,1.76,1.52,7.75,4.38,10.47a2.08,2.08,0,0,0,2.43.32c2-1.12,1.64-2.82,1.56-4.13-.13-3.56-3-8.65-3-8.65Z" transform="translate(-25.11 -0.51)"/><path class="cls-6" d="M79.47,79.25c2.41,1.61,4.76,3,4.76,3A7,7,0,0,0,81.53,85c-1.29,2.12-5.3,14.1-5.82,14.77-.34.55-.57.08-1.06.45a2.16,2.16,0,0,0-.9,2.61A33.93,33.93,0,0,0,75.19,106c1,1.93,3.87,7.83,5.31,7.47,1-.45.68-2,.09-4.41.11-3.49,1-3.63,1.26-7C88.34,89,94,85.18,94.56,83.44c.56-1.29-.54-3.46-1.42-4.86a13.55,13.55,0,0,0-1.6-2.08L89.19,74S79.51,78.7,79.47,79.25Z" transform="translate(-25.11 -0.51)"/><path class="cls-8" d="M82.41,103.82c-1.06,1-1.57,3.28-.61,4.35,1.31,1.44,4.87,9.68,8.14,12.08,4.17,2.55,7-.15,7-1.33,0-1.88-4.49-6.87-7.22-11.43C88.93,107.09,86.54,101.9,82.41,103.82Z" transform="translate(-25.11 -0.51)"/><path class="cls-9" d="M72.4,87.95C74,89.29,75.81,89.65,76,90.2s-.1,1.83.2,3.27,4.93,7.22,5.81,9.24c1,2.25,1.52,5.52,2.84,7.3.81,1.09,5.1,6.7,7.29,5.22,1.39-1-.38-3.2-1.35-5.58-.59-1.45-.44-2-1.26-3.6a13,13,0,0,0-1.67-2.31c-2-5.54-1.86-11.38-2.47-13.81C83.81,86,77.44,79,77.44,79S69.76,81.62,72.4,87.95Z" transform="translate(-25.11 -0.51)"/><path class="cls-10" d="M42.4,60.34a20.71,20.71,0,0,0,3.65,9.18c8.54,11.26,21.39,15,27.16,20,0,0-1.66-1.85,2.07-6,9.4-8.22,15.26-8.2,15.26-8.2C80.64,59,68.1,52.64,68.1,52.64l-10.65.73Z" transform="translate(-25.11 -0.51)"/><path class="cls-11" d="M56.9,74.61l1,.46,19.9-11.49a.83.83,0,0,1,.75,0l12.07,7V70h.84v1.14a.28.28,0,0,1-.16.22l-20.74,12a.86.86,0,0,1-.75,0L57.05,76a.27.27,0,0,1-.16-.22h0Z" transform="translate(-25.11 -0.51)"/><path class="cls-12" d="M70.55,82.21l20.74-12a.23.23,0,0,0,0-.43L78.54,62.44a.85.85,0,0,0-.75,0l-20.74,12a.23.23,0,0,0,0,.43L69.8,82.21A.85.85,0,0,0,70.55,82.21Z" transform="translate(-25.11 -0.51)"/><polygon class="cls-13" points="56.93 66.34 57.9 65.78 56.93 65.22 55.95 65.78 56.93 66.34"/><polygon class="cls-13" points="55.1 67.4 56.07 66.84 55.1 66.28 54.12 66.84 55.1 67.4"/><polygon class="cls-13" points="58.33 67.16 59.3 66.59 58.33 66.03 57.36 66.59 58.33 67.16"/><polygon class="cls-13" points="58.05 68.69 60.5 67.28 59.53 66.72 57.08 68.13 58.05 68.69"/><polygon class="cls-13" points="59.25 69.38 61.69 67.97 60.72 67.41 58.28 68.82 59.25 69.38"/><polygon class="cls-13" points="60.47 70.09 62.91 68.68 61.94 68.11 59.5 69.53 60.47 70.09"/><polygon class="cls-13" points="53.88 68.1 54.85 67.54 53.88 66.98 52.9 67.54 53.88 68.1"/><polygon class="cls-13" points="52.66 68.81 53.63 68.25 52.66 67.69 51.69 68.25 52.66 68.81"/><polygon class="cls-13" points="51.44 69.51 52.41 68.96 51.44 68.39 50.46 68.96 51.44 69.51"/><polygon class="cls-13" points="56.86 68 57.83 67.44 56.86 66.88 55.88 67.44 56.86 68"/><polygon class="cls-13" points="55.64 68.7 56.61 68.14 55.64 67.59 54.67 68.14 55.64 68.7"/><polygon class="cls-13" points="54.42 69.41 55.39 68.85 54.42 68.29 53.44 68.85 54.42 69.41"/><polygon class="cls-13" points="53.2 70.11 54.17 69.55 53.2 68.99 52.23 69.55 53.2 70.11"/><polygon class="cls-13" points="51.98 70.82 52.95 70.26 51.98 69.7 51.01 70.26 51.98 70.82"/><polygon class="cls-13" points="50.76 71.53 51.73 70.97 50.76 70.4 49.79 70.97 50.76 71.53"/><polygon class="cls-13" points="49.54 72.23 50.51 71.67 49.54 71.11 48.56 71.67 49.54 72.23"/><polygon class="cls-13" points="48.32 72.93 49.29 72.37 48.32 71.81 47.34 72.37 48.32 72.93"/><polygon class="cls-13" points="47.13 73.62 48.11 73.06 47.13 72.5 46.16 73.06 47.13 73.62"/><polygon class="cls-13" points="45.91 74.33 46.88 73.76 45.91 73.2 44.94 73.76 45.91 74.33"/><polygon class="cls-13" points="44.69 75.03 45.66 74.46 44.69 73.91 43.72 74.46 44.69 75.03"/><polygon class="cls-13" points="43.47 75.73 44.44 75.17 43.47 74.61 42.5 75.17 43.47 75.73"/><polygon class="cls-13" points="42.25 76.44 43.22 75.88 42.25 75.31 41.28 75.88 42.25 76.44"/><polygon class="cls-13" points="41.03 77.14 42.01 76.58 41.03 76.02 40.06 76.58 41.03 77.14"/><polygon class="cls-13" points="58.03 70.09 59 69.53 58.03 68.96 57.06 69.53 58.03 70.09"/><polygon class="cls-13" points="56.81 70.79 57.78 70.23 56.81 69.67 55.84 70.23 56.81 70.79"/><polygon class="cls-13" points="55.59 71.5 56.56 70.94 55.59 70.37 54.62 70.94 55.59 71.5"/><polygon class="cls-13" points="54.37 72.2 55.34 71.64 54.37 71.08 53.4 71.64 54.37 72.2"/><polygon class="cls-13" points="53.15 72.9 54.12 72.34 53.15 71.78 52.18 72.34 53.15 72.9"/><polygon class="cls-13" points="51.93 73.61 52.9 73.05 51.93 72.49 50.95 73.05 51.93 73.61"/><polygon class="cls-13" points="50.71 74.31 51.68 73.75 50.71 73.19 49.73 73.75 50.71 74.31"/><polygon class="cls-13" points="49.52 75 50.5 74.44 49.52 73.88 48.55 74.44 49.52 75"/><polygon class="cls-13" points="48.3 75.71 49.27 75.14 48.3 74.58 47.33 75.14 48.3 75.71"/><polygon class="cls-13" points="47.09 76.41 48.06 75.84 47.09 75.29 46.11 75.84 47.09 76.41"/><polygon class="cls-13" points="45.86 77.11 46.83 76.55 45.86 75.99 44.89 76.55 45.86 77.11"/><polygon class="cls-13" points="44.64 77.82 45.61 77.25 44.64 76.69 43.67 77.25 44.64 77.82"/><polygon class="cls-13" points="43.42 78.52 44.39 77.96 43.42 77.4 42.45 77.96 43.42 78.52"/><polygon class="cls-13" points="59.25 70.79 60.22 70.23 59.25 69.67 58.28 70.23 59.25 70.79"/><polygon class="cls-13" points="58.03 71.5 59 70.94 58.03 70.37 57.06 70.94 58.03 71.5"/><polygon class="cls-13" points="56.81 72.2 57.78 71.64 56.81 71.08 55.84 71.64 56.81 72.2"/><polygon class="cls-13" points="55.59 72.9 56.56 72.34 55.59 71.78 54.62 72.34 55.59 72.9"/><polygon class="cls-13" points="54.37 73.61 55.34 73.05 54.37 72.49 53.4 73.05 54.37 73.61"/><polygon class="cls-13" points="53.15 74.31 54.12 73.75 53.15 73.19 52.18 73.75 53.15 74.31"/><polygon class="cls-13" points="51.93 75.02 52.9 74.46 51.93 73.9 50.95 74.46 51.93 75.02"/><polygon class="cls-13" points="50.74 75.71 51.71 75.14 50.74 74.58 49.77 75.14 50.74 75.71"/><polygon class="cls-13" points="49.52 76.41 50.5 75.84 49.52 75.29 48.55 75.84 49.52 76.41"/><polygon class="cls-13" points="48.3 77.11 49.27 76.55 48.3 75.99 47.33 76.55 48.3 77.11"/><polygon class="cls-13" points="47.09 77.82 48.06 77.25 47.09 76.69 46.11 77.25 47.09 77.82"/><polygon class="cls-13" points="45.86 78.52 46.83 77.96 45.86 77.4 44.89 77.96 45.86 78.52"/><polygon class="cls-13" points="43.42 79.93 45.61 78.67 44.64 78.1 42.45 79.37 43.42 79.93"/><polygon class="cls-13" points="62.9 70.08 64.12 69.37 63.15 68.81 61.92 69.51 62.9 70.08"/><polygon class="cls-13" points="60.45 71.49 61.43 70.92 60.45 70.36 59.48 70.92 60.45 71.49"/><polygon class="cls-13" points="61.67 70.78 62.65 70.22 61.67 69.66 60.7 70.22 61.67 70.78"/><polygon class="cls-13" points="51.95 76.4 60.21 71.63 59.23 71.07 50.97 75.84 51.95 76.4"/><polygon class="cls-13" points="50.73 77.1 51.7 76.54 50.73 75.98 49.76 76.54 50.73 77.1"/><polygon class="cls-13" points="49.51 77.81 50.48 77.25 49.51 76.68 48.53 77.25 49.51 77.81"/><polygon class="cls-13" points="48.28 78.51 49.26 77.95 48.28 77.39 47.31 77.95 48.28 78.51"/><polygon class="cls-13" points="47.07 79.22 48.04 78.66 47.07 78.09 46.09 78.66 47.07 79.22"/><polygon class="cls-13" points="44.63 80.62 46.82 79.36 45.84 78.8 43.65 80.07 44.63 80.62"/><polygon class="cls-13" points="39.81 77.85 40.78 77.28 39.81 76.73 38.84 77.28 39.81 77.85"/><polygon class="cls-13" points="56.84 69.4 57.81 68.84 56.84 68.28 55.86 68.84 56.84 69.4"/><polygon class="cls-13" points="55.61 70.1 56.59 69.54 55.61 68.98 54.64 69.54 55.61 70.1"/><polygon class="cls-13" points="54.4 70.8 55.37 70.25 54.4 69.68 53.42 70.25 54.4 70.8"/><polygon class="cls-13" points="53.17 71.51 54.15 70.95 53.17 70.39 52.2 70.95 53.17 71.51"/><polygon class="cls-13" points="51.95 72.21 52.92 71.65 51.95 71.09 50.98 71.65 51.95 72.21"/><polygon class="cls-13" points="50.73 72.92 51.7 72.36 50.73 71.8 49.76 72.36 50.73 72.92"/><polygon class="cls-13" points="49.51 73.63 50.49 73.06 49.51 72.5 48.54 73.06 49.51 73.63"/><polygon class="cls-13" points="48.33 74.31 49.3 73.75 48.33 73.19 47.35 73.75 48.33 74.31"/><polygon class="cls-13" points="47.1 75.01 48.08 74.45 47.1 73.89 46.14 74.45 47.1 75.01"/><polygon class="cls-13" points="45.89 75.72 46.86 75.16 45.89 74.59 44.91 75.16 45.89 75.72"/><polygon class="cls-13" points="44.66 76.42 45.64 75.86 44.66 75.3 43.69 75.86 44.66 76.42"/><polygon class="cls-13" points="43.45 77.13 44.42 76.56 43.45 76 42.47 76.56 43.45 77.13"/><polygon class="cls-13" points="42.2 79.23 43.17 78.67 41.95 77.96 43.17 77.25 42.2 76.69 40.01 77.96 42.2 79.23"/><polygon class="cls-13" points="49.61 70.57 50.58 70.01 49.61 69.45 48.64 70.01 49.61 70.57"/><polygon class="cls-13" points="48.39 71.28 49.36 70.72 48.39 70.15 47.41 70.72 48.39 71.28"/><polygon class="cls-13" points="47.17 71.98 48.14 71.42 47.17 70.86 46.19 71.42 47.17 71.98"/><polygon class="cls-13" points="45.95 72.69 46.91 72.13 45.95 71.56 44.97 72.13 45.95 72.69"/><polygon class="cls-13" points="44.11 73.74 45.09 73.19 44.11 72.62 43.14 73.19 44.11 73.74"/><polygon class="cls-13" points="42.89 74.45 43.87 73.89 42.89 73.33 41.92 73.89 42.89 74.45"/><polygon class="cls-13" points="41.67 75.16 42.65 74.59 41.67 74.03 40.7 74.59 41.67 75.16"/><polygon class="cls-13" points="40.45 75.86 41.43 75.3 40.45 74.73 39.48 75.3 40.45 75.86"/><polygon class="cls-13" points="38.41 77.04 40.2 76 39.22 75.44 37.43 76.47 38.41 77.04"/><polygon class="cls-13" points="44.1 71.38 50.41 67.73 47.43 66.01 41.12 69.66 44.1 71.38"/><polygon class="cls-14" points="50.88 64.03 51.8 63.51 52.67 64.01 51.76 64.54 50.88 64.03"/><polygon class="cls-15" points="51.98 63.4 52.9 62.88 53.77 63.38 52.85 63.9 51.98 63.4"/><path class="cls-9" d="M64.24,68.85c.18.9,4.28,1.75,5.72,2.57s4.55,4.46,4.6,5.07a3.46,3.46,0,0,1-1,2c-.48.63-2.71,1.22-3.86,1.16s-4.46-2.19-5.5-2.84-3.38-3.81-4.07-4.32,0-3.58,0-3.58S63.57,67.9,64.24,68.85Z" transform="translate(-25.11 -0.51)"/><path class="cls-12" d="M60.87,66.05s3,2.48,3.38,2.8A4.72,4.72,0,0,0,60.33,73l-4.24-3.47Z" transform="translate(-25.11 -0.51)"/><path class="cls-9" d="M77.17,59.48c.9,2.7-.31,4.91-.31,6.57s1.12,4.46,1.66,4.41c1.08-.09.34-2.43.89-2.43s.59,3,1.72,3.65a3.08,3.08,0,0,0,2.25.58,3.11,3.11,0,0,0,2-2.75,15.09,15.09,0,0,0-.36-4.82C84.78,63.58,82.63,61.84,82,60l-.63-2.3S77.71,57.41,77.17,59.48Z" transform="translate(-25.11 -0.51)"/><path class="cls-12" d="M75.71,57.1l1.35,3.24s3.18-2.84,5.47-.41c.2.54-1.71-4.64-2-5.54C77.13,53.22,75.71,57.1,75.71,57.1Z" transform="translate(-25.11 -0.51)"/><path class="cls-16" d="M67.4,38.86a27.59,27.59,0,0,1,2.3,4.86c1.42,5.94,4.39,10.4,5.81,14.59.91-1.05,2.75-4.15,6.35-2.07L75.91,40.61s-4.85-11.39-5-13.38-2.79-11-4.41-11.21-3.51,4.32-3.51,4.32Z" transform="translate(-25.11 -0.51)"/><path class="cls-12" d="M47.18,20.57l.77-3.13c.13,2.36,4.19,5.67,7.39,4.93a10.51,10.51,0,0,0,4.23-1.76L62.94,31.2l-1.89,5.22-6-2.34-3.2-6.4Z" transform="translate(-25.11 -0.51)"/><path class="cls-17" d="M39.16,28.14c3.79-2.25,7.21-7,8-7.56,5.41,1.44,7.12,14.5,13.51,14.05,3.06-7.66-5.5-14.41-4.6-17.75,8.38,2.07,10.45,7.39,10.45,7.39s5.22,8.65,5,12.79c-.18,3.33-4.05,4.41-4.05,4.41a25.23,25.23,0,0,0-.81,5.86c.1,2.43,1.72,4.59,1.89,5.85-2.88.54-6.13,6.48-6.13,6.48L61,57.41l-1.17,4.14S49.25,59.12,42,60.47c-.54-2.43,3.51-9.37,3.15-13.7S40.42,38.77,39.16,28.14Z" transform="translate(-25.11 -0.51)"/><path class="cls-16" d="M39.16,28.14c-3,.63,0,11.53,0,11.53s3.24,17.82,5,20.52,11.89,10.47,13,10.92C58.62,66.5,62,66.61,62,66.61L50.51,55.43,47.27,35.52S46.46,27.32,39.16,28.14Z" transform="translate(-25.11 -0.51)"/><path class="cls-9" d="M62,4.72c6.76,4.14,6,10.18,6,10.18s-1,8.92-8.38,12.34c-3.06.09-5.94-5-7.21-6.31-1.62-3.24-4-8.55-2.55-11.34C50.53,8.7,55.27.57,62,4.72Z" transform="translate(-25.11 -0.51)"/><path class="cls-18" d="M55.2,2a3.91,3.91,0,0,1-1.29,5.37,3.92,3.92,0,0,1-5.48-.68,3.92,3.92,0,0,1,1.28-5.38A3.92,3.92,0,0,1,55.2,2Z" transform="translate(-25.11 -0.51)"/><path class="cls-19" d="M53.45,19.41c-.76-2.79,0-3.66-1.49-4.6C50.38,13.58,50.38,16,50.38,16a7,7,0,0,1-.87-6.07c.64-2.52,4.72-7.21,9.27-6.67,6.78.39,13.15,8.92,9,14.72.44-1.39-1.6.13-2-3.08-.39,6-5.29,5.79-7.66,4.94C54.5,18.47,53.54,16.8,53.45,19.41Z" transform="translate(-25.11 -0.51)"/><path class="cls-18" d="M64.91,12.61C63,8.7,56,4.34,56,4.34S64.41,7.26,64.91,12.61Z" transform="translate(-25.11 -0.51)"/><path class="cls-10" d="M67.21,41.65,56,46.72A.89.89,0,0,0,55.61,48v0a.89.89,0,0,0,1.22.27Z" transform="translate(-25.11 -0.51)"/><path class="cls-12" d="M70.8,66.82l20.73-12a.26.26,0,0,1,.28,0h0l.63.36-.42.6-.12-.11v14.1a.82.82,0,0,1-.38.65L71.29,82.13l-.14.66-.61-.35h0a.27.27,0,0,1-.11-.24V67.47A.84.84,0,0,1,70.8,66.82Z" transform="translate(-25.11 -0.51)"/><path class="cls-11" d="M71.42,82.76l20.74-12a.83.83,0,0,0,.37-.65V55.42c0-.24-.16-.33-.37-.22l-20.74,12a.84.84,0,0,0-.38.65V82.55C71,82.79,71.21,82.88,71.42,82.76Z" transform="translate(-25.11 -0.51)"/><path class="cls-13" d="M84.84,68.24a5.26,5.26,0,0,1-2.38,4.13c-1.32.76-2.39.15-2.39-1.38a5.27,5.27,0,0,1,2.39-4.13C83.78,66.1,84.84,66.72,84.84,68.24Z" transform="translate(-25.11 -0.51)"/><path class="cls-1" d="M107.21,173.17,67.76,150.39l72.4-41.8,39.45,22.77ZM71.62,150.39l35.59,20.55,68.54-39.57-35.59-20.54Z" transform="translate(-25.11 -0.51)"/><polygon class="cls-3" points="82.1 140.37 82.1 171.54 44.58 149.88 44.58 118.71 82.1 140.37"/><polygon class="cls-2" points="152.57 130.86 82.1 171.54 82.1 140.37 152.57 99.69 152.57 130.86"/><polygon class="cls-3" points="152.57 99.69 82.1 140.37 44.58 118.71 115.05 78.03 152.57 99.69"/><path class="cls-2" d="M148.56,109.45a11.78,11.78,0,0,0,10.65,0c2.94-1.7,2.94-4.46,0-6.16a11.76,11.76,0,0,0-10.65,0C145.61,105,145.61,107.75,148.56,109.45Z" transform="translate(-25.11 -0.51)"/><path class="cls-20" d="M146.35,105.37l15.07,0v.36h0a3.74,3.74,0,0,1-2.21,3.08,11.77,11.77,0,0,1-10.65,0,3.74,3.74,0,0,1-2.21-3.08h0Z" transform="translate(-25.11 -0.51)"/><path class="cls-12" d="M148.56,108.47a11.78,11.78,0,0,0,10.65,0c2.94-1.7,2.94-4.46,0-6.15a11.75,11.75,0,0,0-10.65,0C145.61,104,145.61,106.77,148.56,108.47Z" transform="translate(-25.11 -0.51)"/><path class="cls-20" d="M148.21,105.43a2.88,2.88,0,0,1,1.66-2.21,8.88,8.88,0,0,1,8,0,2.9,2.9,0,0,1,1.66,2.21A2.77,2.77,0,0,0,157.9,103a8.88,8.88,0,0,0-8,0A2.77,2.77,0,0,0,148.21,105.43Z" transform="translate(-25.11 -0.51)"/><path class="cls-12" d="M148.21,105.43a2.89,2.89,0,0,0,1.66,2.21,8.89,8.89,0,0,0,8,0,2.3,2.3,0,0,0,0-4.42,8.88,8.88,0,0,0-8,0A2.88,2.88,0,0,0,148.21,105.43Z" transform="translate(-25.11 -0.51)"/><path class="cls-21" d="M157,107.13a6.9,6.9,0,0,1-6.25,0c-1.72-1-1.72-2.61,0-3.6a6.89,6.89,0,0,1,6.25,0C158.71,104.52,158.71,106.14,157,107.13Z" transform="translate(-25.11 -0.51)"/><path class="cls-12" d="M158.26,104.72h-.93l.26-.39a4,4,0,0,0,2-.24.59.59,0,0,0,.29-.52c0-.34-.07-.77-.4-.91a2.2,2.2,0,0,0-1.3.2l-.07-.35a2.22,2.22,0,0,1,1.58-.16,1.19,1.19,0,0,1,.64,1.22.91.91,0,0,1-.45.79A3.23,3.23,0,0,1,158.26,104.72Z" transform="translate(-25.11 -0.51)"/><path class="cls-22" d="M158.26,105.06h-.93l.26-.39a4,4,0,0,0,2-.24.6.6,0,0,0,.29-.53c0-.34-.07-.77-.4-.91a2.44,2.44,0,0,0-1.37.22v-.37a2.2,2.2,0,0,1,1.58-.16,1.18,1.18,0,0,1,.64,1.22.91.91,0,0,1-.45.79A3.25,3.25,0,0,1,158.26,105.06Z" transform="translate(-25.11 -0.51)"/><path class="cls-23" d="M158.28,102.29a4.42,4.42,0,1,1-8.83,0Z" transform="translate(-25.11 -0.51)"/><path class="cls-12" d="M157,104.05a6.9,6.9,0,0,1-6.25,0c-1.72-1-1.72-2.61,0-3.6a6.89,6.89,0,0,1,6.25,0C158.71,101.44,158.71,103.06,157,104.05Z" transform="translate(-25.11 -0.51)"/><path class="cls-20" d="M157.73,102.75a2.37,2.37,0,0,0-1.07-1.12,6.23,6.23,0,0,0-5.62,0,2.36,2.36,0,0,0-1.06,1.12c-.29-.74.07-1.55,1.06-2.12a6.22,6.22,0,0,1,5.62,0C157.67,101.2,158,102,157.73,102.75Z" transform="translate(-25.11 -0.51)"/><path class="cls-24" d="M157.73,102.75a2.35,2.35,0,0,1-1.07,1.12,6.24,6.24,0,0,1-5.62,0,2.35,2.35,0,0,1-1.06-1.12,2.36,2.36,0,0,1,1.06-1.12,6.23,6.23,0,0,1,5.62,0A2.37,2.37,0,0,1,157.73,102.75Z" transform="translate(-25.11 -0.51)"/><path class="cls-25" d="M150,102.75a1.44,1.44,0,0,0,.1.21h0l0,.06h0l0,.06h0l0,0h0a2.79,2.79,0,0,0,.85.73,5.79,5.79,0,0,0,2.81.67,6.48,6.48,0,0,0,1.13-.09c.83-.65.73-1.57-.29-2.16a4.51,4.51,0,0,0-3-.4,5.6,5.6,0,0,1,4.76.27c.5.3.95,1.07-.13,1.87a2.35,2.35,0,0,0,1.37-1.28,2.37,2.37,0,0,0-1.07-1.12,6.23,6.23,0,0,0-5.62,0A2.36,2.36,0,0,0,150,102.75Zm1.5,0s0,0,0,.07a.15.15,0,0,1-.12,0s0-.05,0-.07A.14.14,0,0,1,151.48,102.75Zm.11-.29a.09.09,0,0,1-.08,0s0,0,0,0a.07.07,0,0,1,.08,0S151.62,102.44,151.59,102.45Zm0,.25a.13.13,0,0,1-.12,0,0,0,0,0,1,0-.07.15.15,0,0,1,.12,0A0,0,0,0,1,151.62,102.7Zm0,.22a.11.11,0,0,1-.08,0s0,0,0,0a.11.11,0,0,1,.08,0S151.68,102.91,151.66,102.92Zm2.7.69a.06.06,0,0,1,0-.12.22.22,0,0,1,.2,0,.06.06,0,0,1,0,.12A.24.24,0,0,1,154.36,103.62Zm.07.09a.13.13,0,0,1,.12,0s0,.05,0,.07a.14.14,0,0,1-.12,0S154.4,103.73,154.43,103.71Zm.56-.5s0-.06,0-.09a.16.16,0,0,1,.15,0s0,.06,0,.09A.16.16,0,0,1,155,103.2Zm.14.25a.09.09,0,0,1,.09,0s0,0,0,0a.1.1,0,0,1-.09,0A0,0,0,0,1,155.14,103.45Zm-.13,0a.09.09,0,0,1-.08,0,0,0,0,0,1,0,0,.08.08,0,0,1,.08,0A0,0,0,0,1,155,103.5Zm-.08.25a.23.23,0,0,1-.2,0,.06.06,0,0,1,0-.12.22.22,0,0,1,.2,0C155,103.66,155,103.72,154.92,103.75Zm-.18-.4s0-.07,0-.09a.17.17,0,0,1,.16,0s0,.06,0,.09A.18.18,0,0,1,154.74,103.35Zm.15-.32a.09.09,0,0,1-.08,0s0,0,0,0a.08.08,0,0,1,.08,0A0,0,0,0,1,154.89,103Zm-.17.07a.09.09,0,0,1,.08,0s0,0,0,0a.1.1,0,0,1-.08,0S154.69,103.12,154.72,103.1Zm0-.25a0,0,0,0,1,0-.05.1.1,0,0,1,.08,0s0,0,0,.05A.1.1,0,0,1,154.69,102.85Zm-.16-.23a.14.14,0,0,1,.12,0s0,.05,0,.07a.13.13,0,0,1-.12,0S154.5,102.64,154.54,102.62Zm0,.23a.09.09,0,0,1,.08,0s0,0,0,0a.08.08,0,0,1-.08,0S154.5,102.86,154.53,102.84Zm.13.23a.13.13,0,0,1-.12,0s0-.05,0-.07a.13.13,0,0,1,.12,0S154.69,103.05,154.66,103.07Zm0,.32a.08.08,0,0,1-.08,0s0,0,0,0a.08.08,0,0,1,.08,0S154.63,103.38,154.61,103.39Zm-.67-1s0,.05,0,.07a.14.14,0,0,1-.12,0s0-.06,0-.07A.16.16,0,0,1,153.94,102.42Zm0-.07a.08.08,0,0,1-.08,0s0,0,0,0a.1.1,0,0,1,.08,0S153.95,102.34,153.92,102.35Zm.18.77a.22.22,0,0,1-.2,0c-.05,0-.05-.08,0-.11a.21.21,0,0,1,.2,0C154.16,103,154.16,103.09,154.11,103.12Zm0,.47a.11.11,0,0,1-.08,0,0,0,0,0,1,0,0,.09.09,0,0,1,.08,0S154.13,103.58,154.11,103.59Zm.17.13a.14.14,0,0,1-.12,0,0,0,0,0,1,0-.07.14.14,0,0,1,.12,0S154.31,103.71,154.28,103.73Zm0-.33s0-.05,0-.07a.13.13,0,0,1,.12,0s0,0,0,.07A.13.13,0,0,1,154.28,103.39Zm-.44-.55a0,0,0,0,1,0-.07.13.13,0,0,1,.12,0s0,0,0,.07A.14.14,0,0,1,153.84,102.84Zm.25-.3c.05,0,.05.07,0,.1a.2.2,0,0,1-.18,0c-.05,0-.05-.08,0-.1A.19.19,0,0,1,154.1,102.54Zm.08.26s0,0,0,0a.08.08,0,0,1-.08,0s0,0,0,0A.11.11,0,0,1,154.18,102.8Zm.06.42s0,0,0,0a.1.1,0,0,1-.08,0,0,0,0,0,1,0,0A.08.08,0,0,1,154.24,103.22Zm.23-.51a0,0,0,0,1,0,.09.16.16,0,0,1-.15,0s0-.06,0-.09A.17.17,0,0,1,154.46,102.71Zm-.09-.11a.11.11,0,0,1-.08,0,0,0,0,0,1,0,0,.08.08,0,0,1,.08,0A0,0,0,0,1,154.37,102.6Zm0,.26s0,0,0,.07a.14.14,0,0,1-.12,0s0-.05,0-.07A.15.15,0,0,1,154.36,102.87Zm.1.31a.2.2,0,0,1-.2,0c-.06,0-.06-.09,0-.12a.22.22,0,0,1,.2,0C154.52,103.09,154.52,103.15,154.46,103.18Zm-.1.7a.12.12,0,0,1-.12,0s0-.05,0-.07a.12.12,0,0,1,.12,0S154.4,103.86,154.36,103.87Zm-.16.13a.12.12,0,0,1-.12,0s0,0,0-.07a.12.12,0,0,1,.12,0S154.24,104,154.21,104Zm-.15-.13a.22.22,0,0,1-.2,0c-.06,0-.06-.08,0-.11a.22.22,0,0,1,.2,0A.06.06,0,0,1,154.05,103.88Zm-.22-.46a.07.07,0,0,1,0-.14.25.25,0,0,1,.23,0c.06,0,.06.1,0,.14A.27.27,0,0,1,153.84,103.42Zm-.18-.45s0-.06,0-.09a.18.18,0,0,1,.16,0s0,.07,0,.09A.15.15,0,0,1,153.65,103Zm-.06-.46s0-.05,0-.07a.15.15,0,0,1,.12,0s0,.05,0,.07A.14.14,0,0,1,153.6,102.51Zm0,.26a.06.06,0,0,1,.07,0s0,0,0,0a.06.06,0,0,1-.07,0S153.61,102.77,153.62,102.76Zm.13-.15a0,0,0,0,1,0,.06.13.13,0,0,1-.1,0,0,0,0,0,1,0-.06A.13.13,0,0,1,153.75,102.62Zm0,.58a.13.13,0,0,1-.12,0s0,0,0-.07a.14.14,0,0,1,.12,0S153.78,103.18,153.74,103.19Zm0,.34a.1.1,0,0,1-.09,0s0,0,0,0a.09.09,0,0,1,.09,0A0,0,0,0,1,153.73,103.53Zm0,.36a.15.15,0,0,1-.12,0s0-.05,0-.07a.13.13,0,0,1,.12,0A0,0,0,0,1,153.72,103.9Zm-.16-.8a.09.09,0,0,1-.09,0s0,0,0,0h.09S153.58,103.09,153.56,103.1Zm-1.53-.37c.06,0,.06.1,0,.13a.25.25,0,0,1-.23,0c-.06,0-.06-.1,0-.13A.24.24,0,0,1,152,102.73Zm-.23-.08a.09.09,0,0,1-.09,0s0,0,0,0a.09.09,0,0,1,.09,0A0,0,0,0,1,151.79,102.65Zm.24-.07a.15.15,0,0,1-.12,0s0-.05,0-.07a.14.14,0,0,1,.12,0S152.07,102.56,152,102.58Zm-.13-.27a.14.14,0,0,1,.14,0s0,.06,0,.08a.15.15,0,0,1-.14,0S151.86,102.34,151.9,102.31Zm.23.77s0,.06,0,.08a.15.15,0,0,1-.14,0,0,0,0,0,1,0-.08A.15.15,0,0,1,152.14,103.09Zm0-.38a.17.17,0,0,1,.14,0,0,0,0,0,1,0,.08.16.16,0,0,1-.14,0A0,0,0,0,1,152.16,102.71Zm1.06.39s0-.05,0-.07a.12.12,0,0,1,.12,0s0,0,0,.07A.13.13,0,0,1,153.22,103.1Zm.08.11a.21.21,0,0,1,.2,0c.05,0,.05.08,0,.11a.22.22,0,0,1-.2,0C153.25,103.29,153.25,103.24,153.3,103.21Zm0-.32a.07.07,0,0,1,0-.13.25.25,0,0,1,.23,0,.07.07,0,0,1,0,.13A.26.26,0,0,1,153.26,102.89Zm-.07.08a.08.08,0,0,1-.08,0s0,0,0,0a.1.1,0,0,1,.08,0S153.2,103,153.18,103Zm0-.36a.14.14,0,0,1-.13,0,0,0,0,0,1,0-.07.14.14,0,0,1,.13,0S153.21,102.59,153.18,102.61Zm-.07.65a.26.26,0,0,1-.23,0,.07.07,0,0,1,0-.13.25.25,0,0,1,.23,0A.07.07,0,0,1,153.11,103.27Zm-.25-.34s0,.05,0,.07a.13.13,0,0,1-.12,0s0-.05,0-.07A.13.13,0,0,1,152.85,102.93Zm-.06-.47a.15.15,0,0,1,.14,0s0,.06,0,.08a.15.15,0,0,1-.14,0S152.75,102.48,152.79,102.46Zm.11,1a.26.26,0,0,1-.23,0c-.06,0-.06-.1,0-.13a.25.25,0,0,1,.23,0C153,103.39,153,103.45,152.9,103.49Zm-.48-.26c-.06,0-.06-.1,0-.13a.26.26,0,0,1,.23,0c.06,0,.06.1,0,.13A.24.24,0,0,1,152.42,103.23Zm.06-.21a.25.25,0,0,1-.23,0c-.06,0-.06-.1,0-.13a.24.24,0,0,1,.23,0C152.55,102.92,152.55,103,152.49,103Zm-.14.27a.15.15,0,0,1-.14,0s0-.06,0-.08a.15.15,0,0,1,.14,0S152.39,103.26,152.35,103.28Zm-.11-.82a.15.15,0,0,1,.14,0s0,.06,0,.08a.16.16,0,0,1-.14,0A0,0,0,0,1,152.24,102.46Zm.18.17a.25.25,0,0,1,.23,0c.06,0,.06.09,0,.13a.27.27,0,0,1-.23,0C152.36,102.73,152.36,102.67,152.42,102.63Zm.32-.43a.21.21,0,0,1,.18,0c.05,0,.05.08,0,.11a.2.2,0,0,1-.18,0C152.69,102.29,152.69,102.24,152.74,102.21Zm.28.47a.06.06,0,0,1,0,.11.21.21,0,0,1-.2,0c-.06,0-.06-.08,0-.11A.21.21,0,0,1,153,102.68Zm0-.28a.08.08,0,0,1,.08,0s0,0,0,0H153S153,102.41,153,102.4Zm.07-.16a.09.09,0,0,1,.08,0s0,0,0,0a.11.11,0,0,1-.08,0S153.05,102.25,153.07,102.24Zm.13.1a.15.15,0,0,1,.12,0s0,.05,0,.07a.14.14,0,0,1-.12,0S153.17,102.36,153.2,102.34Zm.09-.14a.14.14,0,0,1,.12,0s0,0,0,.07a.14.14,0,0,1-.12,0S153.26,102.22,153.29,102.2Zm.2.35s0,.07,0,.1a.19.19,0,0,1-.17,0s0-.07,0-.1A.18.18,0,0,1,153.49,102.55Zm0-.19a.08.08,0,0,1,.08,0s0,0,0,0a.08.08,0,0,1-.08,0S153.43,102.38,153.45,102.36Zm.06,1.31a.15.15,0,0,1-.12,0s0,0,0-.07a.15.15,0,0,1,.12,0S153.55,103.66,153.52,103.68Zm0,.25a.12.12,0,0,1-.12,0s0-.05,0-.07a.12.12,0,0,1,.12,0S153.52,103.91,153.48,103.92Zm-.25-.42s0,0,0-.07a.12.12,0,0,1,.12,0s0,.05,0,.07A.11.11,0,0,1,153.23,103.51Zm0,.35a.24.24,0,0,1-.23,0,.07.07,0,0,1,0-.13.26.26,0,0,1,.23,0C153.33,103.76,153.33,103.82,153.26,103.86Zm-.15.2a.13.13,0,0,1-.12,0,0,0,0,0,1,0-.07.13.13,0,0,1,.12,0A0,0,0,0,1,153.11,104.06Zm-.26-.4s0-.06,0-.08a.15.15,0,0,1,.14,0s0,.06,0,.08A.15.15,0,0,1,152.85,103.66Zm.05.27a.15.15,0,0,1-.14,0s0-.06,0-.08a.15.15,0,0,1,.14,0A0,0,0,0,1,152.9,103.93Zm-.13.17a.08.08,0,0,1-.08,0s0,0,0,0a.09.09,0,0,1,.08,0A0,0,0,0,1,152.77,104.1Zm-.27-.34c-.06,0-.06-.1,0-.13a.24.24,0,0,1,.23,0c.06,0,.06.09,0,.13A.25.25,0,0,1,152.51,103.76Zm-.06-.37s0-.06,0-.08a.14.14,0,0,1,.14,0s0,.06,0,.08A.16.16,0,0,1,152.44,103.39Zm0,.15a.26.26,0,0,1-.23,0,.07.07,0,0,1,0-.13.25.25,0,0,1,.23,0C152.47,103.44,152.47,103.5,152.41,103.54Zm-.17.26s0,0,0,0a.09.09,0,0,1-.08,0s0,0,0,0A.08.08,0,0,1,152.24,103.8Zm-.1-.12h-.08s0,0,0-.05a.09.09,0,0,1,.08,0S152.16,103.67,152.13,103.68Zm-.19-.32a0,0,0,0,1,0-.07.17.17,0,0,1,.12,0s0,.05,0,.07A.14.14,0,0,1,151.95,103.36Zm0,.18a.1.1,0,0,1-.09,0,0,0,0,0,1,0,0,.09.09,0,0,1,.09,0A0,0,0,0,1,151.93,103.55Zm-.2-.14s0-.05,0-.07a.13.13,0,0,1,.12,0s0,.05,0,.07A.15.15,0,0,1,151.73,103.41Zm-.06-.31s0-.05,0-.07a.12.12,0,0,1,.12,0,0,0,0,0,1,0,.07A.13.13,0,0,1,151.67,103.1Zm0,.17a.1.1,0,0,1-.09,0,0,0,0,0,1,0,0,.08.08,0,0,1,.09,0A0,0,0,0,1,151.68,103.27Zm.11-.85a0,0,0,0,1,0,0,.12.12,0,0,1-.09,0,0,0,0,0,1,0,0A.12.12,0,0,1,151.79,102.42Zm.1-.44a.08.08,0,0,1-.08,0s0,0,0,0a.1.1,0,0,1,.08,0S151.91,102,151.89,102Zm.11.19a.21.21,0,0,1-.19,0,.06.06,0,0,1,0-.11.2.2,0,0,1,.19,0A.06.06,0,0,1,152,102.17Zm.13-.17a.08.08,0,0,1-.08,0s0,0,0,0a.08.08,0,0,1,.08,0S152.16,102,152.13,102Zm.12.27a0,0,0,0,1,0,.07.13.13,0,0,1-.12,0,0,0,0,0,1,0-.07A.14.14,0,0,1,152.26,102.27Zm.08-.37a.09.09,0,0,1-.08,0s0,0,0,0a.09.09,0,0,1,.08,0S152.36,101.89,152.34,101.9Zm.05.21a.15.15,0,0,1-.14,0s0-.06,0-.08a.16.16,0,0,1,.14,0S152.43,102.09,152.39,102.11Zm.05.15a.13.13,0,0,1-.12,0s0,0,0-.07a.14.14,0,0,1,.12,0S152.47,102.24,152.44,102.26Zm.07.19a.12.12,0,0,1,.12,0s0,0,0,.07a.13.13,0,0,1-.12,0S152.48,102.47,152.51,102.45Zm.1-.08a.09.09,0,0,1-.08,0s0,0,0,0a.09.09,0,0,1,.08,0S152.64,102.35,152.61,102.36Zm0-.38a.09.09,0,0,1-.08,0s0,0,0,0a.09.09,0,0,1,.08,0S152.62,102,152.6,102Zm.11.16a.12.12,0,0,1-.12,0s0,0,0-.07a.14.14,0,0,1,.12,0S152.75,102.12,152.72,102.14Zm.12-.16a.09.09,0,0,1-.08,0s0,0,0,0a.09.09,0,0,1,.08,0S152.86,102,152.83,102Zm.08,0a.18.18,0,0,1,.15,0,0,0,0,0,1,0,.09.17.17,0,0,1-.15,0A0,0,0,0,1,152.91,102Zm.09-.12a.09.09,0,0,1-.08,0s0,0,0,0a.09.09,0,0,1,.08,0S153,101.89,153,101.9Zm.15,0a.1.1,0,0,1-.08,0s0,0,0,0a.09.09,0,0,1,.08,0S153.18,101.94,153.16,102Zm.12.1a.1.1,0,0,1-.09,0s0,0,0,0a.09.09,0,0,1,.09,0S153.3,102,153.28,102Zm.16-.07a.08.08,0,0,1-.08,0s0,0,0,0a.08.08,0,0,1,.08,0S153.47,102,153.44,102Zm.17.15a.18.18,0,0,1-.16,0,0,0,0,0,1,0-.09.17.17,0,0,1,.16,0A0,0,0,0,1,153.61,102.13Zm.15.1c.06,0,.06.08,0,.11a.23.23,0,0,1-.2,0c-.06,0-.06-.08,0-.11A.21.21,0,0,1,153.75,102.23Zm.08-.12a.11.11,0,0,1-.08,0s0,0,0,0a.09.09,0,0,1,.08,0S153.85,102.1,153.83,102.11Zm.13.1a.11.11,0,0,1-.08,0,0,0,0,0,1,0-.05H154A0,0,0,0,1,154,102.21Zm.06.21a.11.11,0,0,1,.08,0s0,0,0,0a.11.11,0,0,1-.08,0A0,0,0,0,1,154,102.42Zm.11-.27a.11.11,0,0,1-.09,0s0,0,0,0a.09.09,0,0,1,.09,0A0,0,0,0,1,154.14,102.15Zm.07.18a.18.18,0,0,1-.15,0,0,0,0,0,1,0-.09.17.17,0,0,1,.15,0A0,0,0,0,1,154.2,102.33Zm.09.07s0,0,0,0h-.08s0,0,0,0A.07.07,0,0,1,154.29,102.4Zm.06-.19a.09.09,0,0,1-.08,0s0,0,0,0a.09.09,0,0,1,.08,0S154.38,102.2,154.36,102.21Zm0,.13a.08.08,0,0,1-.08,0s0,0,0,0a.1.1,0,0,1,.08,0S154.42,102.34,154.4,102.35Zm.17.06s0,.06,0,.09a.18.18,0,0,1-.16,0,0,0,0,0,1,0-.09A.16.16,0,0,1,154.57,102.4Zm.07-.06a.08.08,0,0,1-.08,0s0,0,0,0a.09.09,0,0,1,.08,0S154.67,102.34,154.64,102.35Zm.1.2a.09.09,0,0,1-.08,0s0,0,0,0h.08S154.77,102.54,154.75,102.55Zm.06.09s0,0,0,0a.08.08,0,0,1-.08,0s0,0,0,0A.09.09,0,0,1,154.81,102.64Zm.08-.13h-.08s0,0,0,0a.09.09,0,0,1,.08,0S154.91,102.49,154.89,102.51Zm.12.18a.08.08,0,0,1-.08,0s0,0,0,0a.09.09,0,0,1,.08,0S155,102.68,155,102.69Zm0,.12s0,.06,0,.09a.18.18,0,0,1-.16,0,0,0,0,0,1,0-.09A.17.17,0,0,1,155,102.81Zm.1,0a.08.08,0,0,1-.08,0,0,0,0,0,1,0,0,.09.09,0,0,1,.08,0A0,0,0,0,1,155.14,102.77Zm0,.23a.09.09,0,0,1-.08,0s0,0,0,0a.09.09,0,0,1,.08,0S155.18,103,155.16,103Zm.09.3a0,0,0,0,1,0,0,.1.1,0,0,1-.08,0s0,0,0,0A.09.09,0,0,1,155.25,103.31Zm.07-.38a.08.08,0,0,1-.09,0s0,0,0,0a.09.09,0,0,1,.09,0S155.35,102.92,155.32,102.93Zm.1.24a.11.11,0,0,1-.08,0s0,0,0,0a.08.08,0,0,1,.08,0S155.44,103.15,155.42,103.17Zm0,.5a.08.08,0,0,1,.08,0s0,0,0,0a.08.08,0,0,1-.08,0S155.36,103.68,155.38,103.67Zm0-.22a.09.09,0,0,1,.09,0,0,0,0,0,1,0,0,.08.08,0,0,1-.09,0A0,0,0,0,1,155.37,103.45Zm0-.16a.08.08,0,0,1,.08,0s0,0,0,0a.08.08,0,0,1-.08,0S155.32,103.3,155.34,103.28Zm0,.34a.09.09,0,0,1-.08,0s0,0,0,0a.08.08,0,0,1,.08,0A0,0,0,0,1,155.31,103.63Zm-.06.26a.09.09,0,0,1-.08,0s0,0,0,0a.1.1,0,0,1,.08,0S155.27,103.87,155.25,103.88Zm-.13.14a.08.08,0,0,1,.08,0s0,0,0,0a.1.1,0,0,1-.08,0S155.09,104,155.12,104Zm-.06-.32s0,0,0,0a.09.09,0,0,1,.08,0s0,0,0,0A.08.08,0,0,1,155.06,103.7Zm-.08.56a.08.08,0,0,1,.08,0s0,0,0,0a.1.1,0,0,1-.08,0S155,104.27,155,104.26Zm0-.17a.09.09,0,0,1,.08,0s0,0,0,0a.09.09,0,0,1-.08,0S154.92,104.1,154.94,104.09Zm0-.14a.11.11,0,0,1,.08,0,0,0,0,0,1,0,0,.09.09,0,0,1-.08,0A0,0,0,0,1,154.92,103.95Zm0-.07s0,0,0,0a.1.1,0,0,1,.08,0s0,0,0,0A.09.09,0,0,1,154.89,103.88Zm0,.42a.11.11,0,0,1-.08,0s0,0,0,0a.09.09,0,0,1,.08,0S154.89,104.29,154.87,104.3Zm-.11.08a.08.08,0,0,1,.08,0s0,0,0,0a.08.08,0,0,1-.08,0S154.73,104.4,154.75,104.38Zm-.08-.33a.08.08,0,0,1,.08,0s0,0,0,0a.08.08,0,0,1-.08,0A0,0,0,0,1,154.67,104.05Zm0-.17a.08.08,0,0,1,.08,0s0,0,0,0a.1.1,0,0,1-.08,0S154.64,103.9,154.67,103.88Zm0-.46a.13.13,0,0,1,.12,0s0,.05,0,.07a.15.15,0,0,1-.12,0S154.64,103.44,154.67,103.42Zm-.15.87a.08.08,0,0,1,.08,0s0,0,0,0a.09.09,0,0,1-.08,0S154.5,104.3,154.53,104.29Zm0-.29a.09.09,0,0,1-.08,0,0,0,0,0,1,0,0,.11.11,0,0,1,.08,0A0,0,0,0,1,154.48,104Zm0,.17a.09.09,0,0,1-.08,0s0,0,0,0a.1.1,0,0,1,.08,0S154.49,104.16,154.46,104.17Zm-.13.18a.09.09,0,0,1,.08,0s0,0,0,0a.08.08,0,0,1-.08,0S154.31,104.36,154.33,104.35Zm-.25-.18a.21.21,0,0,1,.2,0c.05,0,.05.08,0,.11a.22.22,0,0,1-.2,0C154,104.25,154,104.2,154.08,104.17Zm-.13.21a.09.09,0,0,1,.08,0s0,0,0,0a.09.09,0,0,1-.08,0S153.93,104.4,153.95,104.38Zm-.09-.25s0,0,0,0a.09.09,0,0,1,.09,0,0,0,0,0,1,0,0A.09.09,0,0,1,153.86,104.13Zm-.07.15a.08.08,0,0,1,.08,0s0,0,0,0a.08.08,0,0,1-.08,0S153.77,104.3,153.79,104.28Zm0-.63a0,0,0,0,1,0-.07.13.13,0,0,1,.12,0,0,0,0,0,1,0,.07A.12.12,0,0,1,153.78,103.65Zm0,.48a.13.13,0,0,1-.12,0,0,0,0,0,1,0-.07.13.13,0,0,1,.12,0S153.78,104.11,153.74,104.13Zm-.12.29a.09.09,0,0,1,.08,0s0,0,0,0a.08.08,0,0,1-.08,0S153.59,104.43,153.62,104.42Zm-.06-.13a.08.08,0,0,1,.08,0s0,0,0,0a.08.08,0,0,1-.08,0S153.53,104.3,153.55,104.28Zm-.1-.16a.07.07,0,0,1,.08,0s0,0,0,0a.08.08,0,0,1-.08,0S153.43,104.13,153.45,104.12Zm-.11.12s0,0,0,0a.1.1,0,0,1,.08,0s0,0,0,0A.08.08,0,0,1,153.34,104.23Zm-.1.09a.1.1,0,0,1,.09,0,0,0,0,0,1,0,0,.08.08,0,0,1-.09,0S153.22,104.34,153.24,104.32Zm0-.27a.13.13,0,0,1,.12,0,0,0,0,0,1,0,.07.13.13,0,0,1-.12,0A0,0,0,0,1,153.22,104.06Zm0,.11a.1.1,0,0,1-.08,0s0,0,0,0a.11.11,0,0,1,.08,0S153.22,104.16,153.19,104.17Zm-.1.13s0,0,0,0a.09.09,0,0,1,.09,0s0,0,0,0A.11.11,0,0,1,153.09,104.3Zm-.11.08a.09.09,0,0,1,.09,0s0,0,0,0a.09.09,0,0,1-.09,0A0,0,0,0,1,153,104.38Zm-.07-.16a.09.09,0,0,1,.08,0s0,0,0,0a.09.09,0,0,1-.08,0S152.9,104.23,152.92,104.22Zm-.1-.12s0,0,0-.05a.11.11,0,0,1,.08,0s0,0,0,.05A.08.08,0,0,1,152.82,104.1Zm-.1.14s0,0,0,0a.11.11,0,0,1,.08,0s0,0,0,0A.09.09,0,0,1,152.72,104.23Zm-.09.08a.11.11,0,0,1,.09,0s0,0,0,0a.09.09,0,0,1-.09,0A0,0,0,0,1,152.63,104.32Zm-.07-.31a0,0,0,0,1,0,0,.09.09,0,0,1,.09,0,0,0,0,0,1,0,0A.08.08,0,0,1,152.56,104Zm0,.16a.09.09,0,0,1-.08,0s0,0,0,0a.08.08,0,0,1,.08,0A0,0,0,0,1,152.56,104.17Zm-.13.08a.09.09,0,0,1,.09,0s0,0,0,0a.1.1,0,0,1-.09,0S152.4,104.26,152.42,104.25Zm0-.39a.09.09,0,0,1,.08,0s0,0,0,0a.08.08,0,0,1-.08,0S152.39,103.87,152.41,103.86Zm-.16-.12a0,0,0,0,1,0-.07.13.13,0,0,1,.12,0s0,.05,0,.07A.12.12,0,0,1,152.25,103.74Zm0,.44a.12.12,0,0,1,.09,0,0,0,0,0,1,0,0,.09.09,0,0,1-.09,0S152.19,104.2,152.21,104.19Zm0-.16a.08.08,0,0,1,.09,0s0,0,0,0a.11.11,0,0,1-.09,0S152.19,104,152.21,104Zm-.06,0a.09.09,0,0,1-.08,0s0,0,0,0a.11.11,0,0,1,.08,0S152.17,104,152.15,104Zm-.13.15a.08.08,0,0,1,.09,0,0,0,0,0,1,0,0,.09.09,0,0,1-.09,0A0,0,0,0,1,152,104.12Zm-.11-.16a.09.09,0,0,1,.08,0s0,0,0,0a.08.08,0,0,1-.08,0A0,0,0,0,1,151.9,104Zm0-.2a.08.08,0,0,1,.08,0s0,0,0,0a.09.09,0,0,1-.08,0S151.84,103.77,151.87,103.76Zm-.1-.11a.09.09,0,0,1,.08,0s0,0,0,.05a.09.09,0,0,1-.08,0A0,0,0,0,1,151.76,103.65Zm-.14.21a.1.1,0,0,1,.08,0s0,0,0,0a.09.09,0,0,1-.08,0S151.61,103.87,151.63,103.86Zm0-.26a.11.11,0,0,1-.09,0s0,0,0,0a.1.1,0,0,1,.09,0A0,0,0,0,1,151.61,103.59Zm-.15.12a.1.1,0,0,1,.08,0s0,0,0,0a.11.11,0,0,1-.08,0A0,0,0,0,1,151.46,103.72Zm-.06-.59a.12.12,0,0,1,.12,0,0,0,0,0,1,0,.07.12.12,0,0,1-.12,0S151.37,103.15,151.41,103.13Zm-.11.25a.08.08,0,0,1,.08,0s0,0,0,0a.08.08,0,0,1-.08,0S151.27,103.39,151.29,103.38Zm-.22,0a.09.09,0,0,1,.08,0,0,0,0,0,1,0,0,.09.09,0,0,1-.08,0S151,103.39,151.07,103.38Z" transform="translate(-25.11 -0.51)"/><path class="cls-2" d="M131.73,104.37c-4.4-2.55-11.55-2.55-16,0s-4.41,6.67,0,9.21a17.57,17.57,0,0,0,16,0C136.13,111,136.13,106.91,131.73,104.37Z" transform="translate(-25.11 -0.51)"/><path class="cls-26" d="M123.85,91.08c-3.25.48-4.77.72-6.71,2.1-1.86,2-4.18,6.71-4.18,9.43,0,5.62,4.87,10.21,10.89,10.21s10.88-4.59,10.88-10.21A13,13,0,0,0,130.35,93,10.1,10.1,0,0,0,123.85,91.08Z" transform="translate(-25.11 -0.51)"/><path class="cls-12" d="M129.26,92.2a12,12,0,0,0-10.83,0c-3,1.72-3,4.54,0,6.25a11.89,11.89,0,0,0,10.83,0C132.25,96.74,132.25,93.92,129.26,92.2Z" transform="translate(-25.11 -0.51)"/><path class="cls-27" d="M127.62,94.4a8.36,8.36,0,0,0-7.55,0,3.27,3.27,0,0,0-1.37,1.37,3.23,3.23,0,0,0,1.37,1.36,8.27,8.27,0,0,0,7.55,0A3.12,3.12,0,0,0,129,95.77,3.23,3.23,0,0,0,127.62,94.4Z" transform="translate(-25.11 -0.51)"/><path class="cls-20" d="M127.62,92.77a8.3,8.3,0,0,0-7.55,0c-1.41.82-1.87,2-1.37,3a3.27,3.27,0,0,1,1.37-1.37,8.36,8.36,0,0,1,7.55,0A3.23,3.23,0,0,1,129,95.77C129.48,94.74,129,93.59,127.62,92.77Z" transform="translate(-25.11 -0.51)"/><path class="cls-28" d="M98.27,90.69c11.34-2.95,16.85,4.75,22.12-4.16S101.55,84.59,98.27,90.69Z" transform="translate(-25.11 -0.51)"/><path class="cls-29" d="M102.48,88.16a28.13,28.13,0,0,0-3.36,1.76C100.28,89.25,101.4,88.67,102.48,88.16Z" transform="translate(-25.11 -0.51)"/><path class="cls-30" d="M102.48,88.16c9.34-4.11,16.74-.77,17.2-1.53S113,83.25,102.48,88.16Z" transform="translate(-25.11 -0.51)"/><path class="cls-28" d="M117.48,73.81c.61,6.53-3.15,12.7,7.39,11.86S126.8,74.14,117.48,73.81Z" transform="translate(-25.11 -0.51)"/><path class="cls-30" d="M120.26,75c5.9,3.95,3.49,10.28,4.41,10.22S127.2,79.36,120.26,75Z" transform="translate(-25.11 -0.51)"/><path class="cls-29" d="M120.26,75A13.5,13.5,0,0,0,118,73.84,18.88,18.88,0,0,1,120.26,75Z" transform="translate(-25.11 -0.51)"/><path class="cls-28" d="M129.17,90.24c-4,9.87,7.53-2.78,21-5.25C145.94,82.76,133.26,80.37,129.17,90.24Z" transform="translate(-25.11 -0.51)"/><path class="cls-30" d="M129.51,91c-.39,1,3.81-5.71,19.69-6C134.21,84.27,129.91,90,129.51,91Z" transform="translate(-25.11 -0.51)"/><path class="cls-28" d="M124.8,94.15c-8.29-4.41-4.32,9.5.13,15.77C128,107.24,133.05,98.57,124.8,94.15Z" transform="translate(-25.11 -0.51)"/><path class="cls-30" d="M124,94.28c-.82-.45,1.23,4,1.13,15C126.82,100.48,124.8,94.7,124,94.28Z" transform="translate(-25.11 -0.51)"/><path class="cls-28" d="M126.22,92.26c-11.25.1,4.12,5.52,8.8,16.34C136.82,104.07,137.51,92.17,126.22,92.26Z" transform="translate(-25.11 -0.51)"/><path class="cls-30" d="M125.49,92.82c-1.12,0,6.75,1.19,9.38,15C133.45,94.43,126.56,92.81,125.49,92.82Z" transform="translate(-25.11 -0.51)"/><path class="cls-28" d="M111.51,106.11c7-7.86,15-4.86,14.54-14.14S110.94,99.88,111.51,106.11Z" transform="translate(-25.11 -0.51)"/><path class="cls-29" d="M113.34,102.21a25.32,25.32,0,0,0-1.58,2.89C112.27,104.06,112.81,103.1,113.34,102.21Z" transform="translate(-25.11 -0.51)"/><path class="cls-30" d="M113.34,102.21c5-7.8,12.27-9,12.22-9.82S118.83,93.21,113.34,102.21Z" transform="translate(-25.11 -0.51)"/><path class="cls-31" d="M101.29,78.34c11,4.2,9,16.46,20.23,10S108.73,73.71,101.29,78.34Z" transform="translate(-25.11 -0.51)"/><path class="cls-29" d="M106.38,78.26a23.45,23.45,0,0,0-3.81-.24A35.73,35.73,0,0,1,106.38,78.26Z" transform="translate(-25.11 -0.51)"/><path class="cls-28" d="M106.38,78.26c10.54,1.57,13.53,10.26,14.49,9.73S118.47,79.72,106.38,78.26Z" transform="translate(-25.11 -0.51)"/><path class="cls-31" d="M123,90.54c8.4,5.52,10.3-8.44,23.39-11.35C135.55,72.33,113.45,82.49,123,90.54Z" transform="translate(-25.11 -0.51)"/><path class="cls-28" d="M123.6,90.17c1.13.64,6.16-13.12,22.39-11.19C130.8,76.1,122.52,89.52,123.6,90.17Z" transform="translate(-25.11 -0.51)"/><path class="cls-31" d="M123.14,89c-16.21-6.29-21.7,8.93-21.66,16.56C110.07,94.61,136.58,94.2,123.14,89Z" transform="translate(-25.11 -0.51)"/><path class="cls-28" d="M104.86,98.81c6.7-8.79,18.57-8.84,17.56-9.4S111.31,89.54,104.86,98.81Z" transform="translate(-25.11 -0.51)"/><path class="cls-29" d="M104.86,98.81a20.4,20.4,0,0,0-3.37,6.75A26.88,26.88,0,0,1,104.86,98.81Z" transform="translate(-25.11 -0.51)"/><path class="cls-31" d="M126.89,90c-12.18,7,7.84,3.44,19.51,12.32C145.58,96.3,139.06,83,126.89,90Z" transform="translate(-25.11 -0.51)"/><path class="cls-28" d="M126.39,91.07c-1.18.7,8.07-2.85,19.35,10.43C136,87.93,127.57,90.38,126.39,91.07Z" transform="translate(-25.11 -0.51)"/><path class="cls-1" d="M231.41,173.18c-6-3.44-13.86-5.34-22.25-5.34A50.48,50.48,0,0,0,194.42,170c-1.05-2.87-4.6-6.39-10.06-9.54-9.22-5.32-20.38-7.58-24.93-5.05s-.76,8.9,8.46,14.23a47.74,47.74,0,0,0,15.79,5.76c-4.14,3.25-6.37,7.21-6.37,11.42,0,5.19,3.41,10,9.59,13.59,6,3.44,13.87,5.34,22.25,5.34s16.29-1.9,22.25-5.34c6.19-3.57,9.59-8.4,9.59-13.59S237.6,176.75,231.41,173.18Zm-1.29,24.95c-5.58,3.22-13,5-21,5s-15.38-1.77-21-5c-5.36-3.09-8.31-7.12-8.3-11.36s2.79-8,7.85-11.08a10.75,10.75,0,0,0,5.08-1,3.54,3.54,0,0,0,1.78-2,47.41,47.41,0,0,1,14.55-2.19c7.94,0,15.39,1.77,21,5,5.36,3.09,8.3,7.13,8.3,11.36S235.48,195,230.12,198.12Z" transform="translate(-25.11 -0.51)"/><path d="M183.84,158.61c-4,.3-6-1.31-8.69-1.29a1.69,1.69,0,0,0-1.73,2.5c1.36,3.44,8.33,5.8,8.33,5.8s3.86,6.92,7.51,4.71c1.7-1,1.06-7,1.06-7S187,158.37,183.84,158.61Z" transform="translate(-25.11 -0.51)"/><path class="cls-8" d="M184.35,140.55c-.12,6.34-1.4,14.18-2.27,16.1-3.47,7.69,6.31,9.33,8.8,7.08,1.29-7.57,3.15-12,3.36-18,.16-2.29-4-3.84-4-3.84A17,17,0,0,0,184.35,140.55Z" transform="translate(-25.11 -0.51)"/><path d="M169.17,156.09c-2.59.1-6.46-3.5-9.2-3.48-1.71,0-3.6,2.89-2.13,6.44s8.9,6,8.9,6,4.78,4.32,7.54,2.95c1.78-.88,2.35-4.83,2.35-4.83S172.3,156,169.17,156.09Z" transform="translate(-25.11 -0.51)"/><path class="cls-32" d="M169.22,140.19c-.12,6.34-.37,14.18-1.23,16.1-3.47,7.69,6.31,9.33,8.8,7.08,1.28-7.57,3.15-12,3.35-18,.16-2.3-4-3.84-4-3.84A27.14,27.14,0,0,0,169.22,140.19Z" transform="translate(-25.11 -0.51)"/><path class="cls-8" d="M180.14,145.37a22.43,22.43,0,0,1-8-2.94S175.82,146.87,180.14,145.37Z" transform="translate(-25.11 -0.51)"/><path class="cls-2" d="M178.6,155.85v30.91c0,4.52,3,9,8.95,12.48,11.93,6.89,31.28,6.89,43.21,0,6-3.44,8.95-8,8.95-12.47h0V155.85Z" transform="translate(-25.11 -0.51)"/><path class="cls-3" d="M230.76,168.32c-11.93,6.89-31.28,6.89-43.21,0s-11.93-18.06,0-24.95,31.28-6.89,43.21,0S242.7,161.43,230.76,168.32Z" transform="translate(-25.11 -0.51)"/><path class="cls-2" d="M219.6,156.17s5.23-5.71,12.23-3A74.72,74.72,0,0,0,219.6,156.17Z" transform="translate(-25.11 -0.51)"/><path class="cls-2" d="M213,158.5s8.49-3.92,13.44,3.4C219.28,157.55,213,158.5,213,158.5Z" transform="translate(-25.11 -0.51)"/><path class="cls-2" d="M210.57,160a185.91,185.91,0,0,0-22.78.9S200.26,156.14,210.57,160Z" transform="translate(-25.11 -0.51)"/><path class="cls-2" d="M203.48,156.17a63.27,63.27,0,0,0-13.2-1.46S198.26,151.29,203.48,156.17Z" transform="translate(-25.11 -0.51)"/><path class="cls-8" d="M203.49,127.74c-7.22-1.23-10.93-2.15-10.93-2.15s-6-2.5-7.6,1.18c-.67,1.54-.26,5.42-.23,9.1.32.89,20.89,4.32,20.89,4.32S207.7,128.46,203.49,127.74Z" transform="translate(-25.11 -0.51)"/><path class="cls-32" d="M202.82,139a150.21,150.21,0,0,0-27.48-6.55c-7.11-.93-6.12,7.78-6.12,7.78s4.73,4.78,10.92,5.18c4.19,2.58,24.23,15.7,30.43,14.65,17.08-2.88,18.21-17.87,18.21-17.87S205.2,140.34,202.82,139Z" transform="translate(-25.11 -0.51)"/><path class="cls-26" d="M187.79,114.25c-.8-3.62-8.57-15.58-10.1-18.52.15-2-2.1-1.77-3.79.65.42,3.45,1.58,13.2,5.48,20.44l5,1.57Z" transform="translate(-25.11 -0.51)"/><path class="cls-9" d="M173.89,96.38c-.43-2.27-1.26-6.63,0-8.66.89-1.43,3.93-3.24,3.93-3.24l1.83,6.32a13.68,13.68,0,0,1-1,2,5.26,5.26,0,0,1-1,2.94A12.44,12.44,0,0,0,173.89,96.38Z" transform="translate(-25.11 -0.51)"/><path class="cls-32" d="M192.59,91.88,188.1,73.77a.94.94,0,0,0-.37-.57l.06-.24a2.41,2.41,0,0,0-1,.24l-10.68,6.17a1.68,1.68,0,0,0-.75,1.76l4.49,18.11a.84.84,0,0,0,.94.69h0l.53-.08,0-.13,10.56-6.09A1.69,1.69,0,0,0,192.59,91.88Z" transform="translate(-25.11 -0.51)"/><path class="cls-8" d="M193.13,91.78a1.7,1.7,0,0,1-.75,1.76L181.7,99.71a.85.85,0,0,1-1.32-.56L175.88,81a1.69,1.69,0,0,1,.75-1.76l10.69-6.16a.85.85,0,0,1,1.32.56Z" transform="translate(-25.11 -0.51)"/><polygon class="cls-12" points="166.85 90.44 155.88 96.78 152.15 81.76 163.12 75.42 166.85 90.44"/><polygon class="cls-33" points="158.93 93.96 156.37 95.43 155.51 91.94 158.06 90.47 158.93 93.96"/><polygon class="cls-33" points="162.42 91.95 159.86 93.42 158.16 86.36 160.71 84.89 162.42 91.95"/><polygon class="cls-33" points="165.91 89.92 163.36 91.39 160.82 80.86 163.37 79.39 165.91 89.92"/><path class="cls-3" d="M180.34,91.49a.26.26,0,0,1-.18-.08.25.25,0,0,1,0-.36l1.54-1.49V85.85l3.19-2.56L184.44,80,187.72,78a.26.26,0,0,1,.35.08.25.25,0,0,1-.08.35l-3,1.89.45,3.21-3.23,2.59v3.68l-1.69,1.64A.26.26,0,0,1,180.34,91.49Z" transform="translate(-25.11 -0.51)"/><path class="cls-3" d="M182.5,89.47a.64.64,0,0,1-.46.78.63.63,0,0,1-.71-.55.6.6,0,1,1,1.17-.22Z" transform="translate(-25.11 -0.51)"/><ellipse class="cls-3" cx="182.04" cy="85.96" rx="0.6" ry="0.68" transform="translate(-38.02 35.25) rotate(-10.84)"/><ellipse class="cls-3" cx="185.05" cy="83.36" rx="0.6" ry="0.68" transform="translate(-37.29 34.98) rotate(-10.61)"/><path class="cls-3" d="M185.3,80.07a.6.6,0,1,1-.71-.56A.64.64,0,0,1,185.3,80.07Z" transform="translate(-25.11 -0.51)"/><path class="cls-9" d="M195.78,100.48a43.85,43.85,0,0,1-3.86-3.83c-.86-1.16-2.66-3.68-2-4.22.92-.78,3.29,2.75,4.27,1.58s-4.6-4.93-3.84-5.71,3,1.33,3.5,1.57c3.18,1.06,3.85,2.41,4,2.92s1,5.27,1,5.27Z" transform="translate(-25.11 -0.51)"/><path class="cls-26" d="M195.83,100.64c-1-1,1-4.07,3.12-2.81,4.69,3.89,9.18,5.67,13.42,8.3.82.51-2.95,3.81-6,5.17C202.5,108.86,197.13,102,195.83,100.64Z" transform="translate(-25.11 -0.51)"/><path class="cls-9" d="M175.84,89.87c1.19-1,2.76-3.58,3.25-3.21,1,.79-1.19,4-1,4.3a6.06,6.06,0,0,1-.14,4l-3-1.1S174.65,90.85,175.84,89.87Z" transform="translate(-25.11 -0.51)"/><path class="cls-26" d="M234,108.82a6.77,6.77,0,1,1-.45-9.6A6.8,6.8,0,0,1,234,108.82Z" transform="translate(-25.11 -0.51)"/><path class="cls-9" d="M212.58,99.82c1.14,1.83.33,5.13.33,5.13l1.05,1.73h5.63l5-1.45,1-4.06-1.13-1.93a27.51,27.51,0,0,1-1.13-2.8c-.91-.75-1.89-3.52-1.89-3.52L212,95A25.62,25.62,0,0,1,212.58,99.82Z" transform="translate(-25.11 -0.51)"/><path class="cls-12" d="M203.34,113.18c5.22-4,8.28-6.27,9.56-8.23,14.8.73,11.6-5.72,11.6-5.72s9.32.88,10,8.29-3.91,15.47-4.32,20.62c-.57,7.39-1.13,13.36-1.13,13.36s-2.85,7.63-15.74,10.14c-9,1.76-11.55-4.75-10.57-12.24a123.7,123.7,0,0,0,.09-15.4C202.49,121.69,201.81,115.82,203.34,113.18Z" transform="translate(-25.11 -0.51)"/><path class="cls-9" d="M207.38,84.75a6.74,6.74,0,0,0-.56,6s-.88,3.15,2.25,8.59c4.38,3.43,8.63-5.29,8.63-5.29L214.45,83.4S207.94,84.35,207.38,84.75Z" transform="translate(-25.11 -0.51)"/><path class="cls-32" d="M204.87,84.66c.16,4.24,4.54,5.14,4.25,7.79.47.46,1.38-1.92,2.65-.52s.7,4.56,2.31,5.9c.66.55,1.61,1.07,4.24,1a7.38,7.38,0,0,0,5-2.42c3.37-7.9,2.62-11.9,2.62-11.9s-1.32-7-6.85-6.29C208.45,74.15,204.87,83.21,204.87,84.66Z" transform="translate(-25.11 -0.51)"/><path class="cls-26" d="M179.37,116.82c.45.83,3.86,4.73,6.06,5.6,5,2,16.71,2.66,19.16,2.68,3.06,0,9.57-1.32,9.79-5.8.27-5.62-6.07-7.16-9.37-6.41-4.23,1-12.07.51-17.22,1.35Z" transform="translate(-25.11 -0.51)"/><path class="cls-8" d="M223.29,82.49c.85-.44-4.16-4.24-4.16-4.24S222.45,82.93,223.29,82.49Z" transform="translate(-25.11 -0.51)"/><path class="cls-20" d="M184.52,117.31c1.07.82,3.27-3.06,3.27-3.06S183.44,116.49,184.52,117.31Z" transform="translate(-25.11 -0.51)"/></svg>