<svg id="Réteg_1" data-name="Réteg 1" xmlns="http://www.w3.org/2000/svg" viewBox="0 0 265.08 205.47"><defs><style>.cls-1,.cls-33{fill:#dadada;}.cls-1,.cls-21,.cls-25{opacity:0.3;}.cls-2{fill:#0071e3;}.cls-3{fill:#0066ba;}.cls-4{fill:#fff;}.cls-5{fill:#eee;}.cls-6{fill:#2c5e83;}.cls-7{fill:#3676a9;}.cls-8{fill:#1d374e;}.cls-9{fill:#c4a294;}.cls-10{fill:#2a4e68;}.cls-11{fill:#ddce92;}.cls-12{fill:#eec4b2;}.cls-13{fill:#faf0be;}.cls-14{fill:#6c839a;}.cls-15{fill:#b6b6b6;}.cls-16{fill:#919395;}.cls-17{fill:#babcbe;}.cls-18{opacity:0.2;}.cls-19{opacity:0.49;}.cls-20{fill:#191919;}.cls-20,.cls-22{opacity:0.6;}.cls-21{fill:#212121;}.cls-23{opacity:0.6;}.cls-24{fill:#232d3d;}.cls-25{fill:#9b9b9b;}.cls-26{fill:#343f51;}.cls-27{fill:#182230;}.cls-28{fill:#303033;}.cls-29{fill:#121214;}.cls-30{fill:#e4d8ad;}.cls-31{fill:#7d7d7d;}.cls-32{fill:#bababa;}</style></defs><title>Személyes konzultáció</title><path class="cls-1" d="M148.74,80.87,105,106.15a29.87,29.87,0,0,0-7.71-6.1c-.93-.54-1.89-1-2.86-1.51L117.5,85.19c2.83-1.63,2.83-4.31,0-5.94L78.9,57a11.41,11.41,0,0,0-10.29,0L2.12,95.35c-2.83,1.64-2.83,4.31,0,5.94l38.6,22.29a11.4,11.4,0,0,0,10.29,0l22.3-12.88q1.23.85,2.62,1.65A47.46,47.46,0,0,0,86.5,116.8L41.14,143l68,39.24L216.7,120.1Z" transform="translate(0 -0.53)"/><path class="cls-2" d="M89.51,10.38l-7.8-4.51h0C78,3.64,72.79,3.92,67.06,7.23L20.56,34.07C9.22,40.62,0,47.47,0,60.56L.11,79.34C.11,85.56,2.2,90,5.62,92.29l10.09,5.85,2.11-5.55a25.13,25.13,0,0,0,2.81-1.4l41.5-24C73.44,60.7,82.64,44.75,82.64,31.69l0-13.32c0-1.37-.11.92-.3-.27l1.13.13Z" transform="translate(0 -0.53)"/><path class="cls-3" d="M92.2,18.31C92.2,5.22,83,9,71.65,15.57l-41.58,24C18.73,46.11,9.52,53,9.52,66l.11,6.67V84.84c0,13.06,9.2,18.38,20.52,11.84l41.5-24C83,66.19,92.16,50.25,92.16,37.19Z" transform="translate(0 -0.53)"/><path class="cls-2" d="M112.55,75.51l9-35.54L90.88,22.22h0l0,0h0a3.11,3.11,0,0,0-3.08.32,9.75,9.75,0,0,0-4.41,7.64v2.65c0,7.45-5.25,16.54-11.7,20.27Z" transform="translate(0 -0.53)"/><path class="cls-2" d="M71.64,53.07,34.25,74.66s-8.37,15.44,20,37.26c4,1.51,58.33-36.41,58.33-36.41Z" transform="translate(0 -0.53)"/><path class="cls-2" d="M45.7,81.32,17.28,64.86a3,3,0,0,0-3.24.22,9.73,9.73,0,0,0-4.41,7.64V85c0,6.45,2.25,11,5.88,13.19h0l.07,0,.13.07,30.66,17.71s17.48-10.24,18.5-10.65Z" transform="translate(0 -0.53)"/><path class="cls-3" d="M102.53,90.76l-41.5,24c-11.32,6.53-20.52,1.21-20.52-11.85V90.55a9.74,9.74,0,0,1,4.41-7.63c2.44-1.41,4.41-.27,4.41,2.54v2.64c0,7.45,5.25,10.48,11.7,6.76l41.5-24c6.45-3.72,11.7-12.81,11.7-20.27V48a9.75,9.75,0,0,1,4.41-7.63C121.07,39,123,40.1,123,42.91V55.22C123,68.29,113.84,84.23,102.53,90.76Z" transform="translate(0 -0.53)"/><path class="cls-4" d="M103.48,107.41c.52.3,1,1.65,0,2.11-3.55,1.6-10.7-1.23-10.7-1.23s-4.66.63-5.72-.1c-.3-.2-.57-1.33-.32-1.55C86.57,104.75,98.4,109,103.48,107.41Z" transform="translate(0 -0.53)"/><path class="cls-5" d="M93.08,100.9a17.85,17.85,0,0,0,3.69,3.26c1.43.69,4.61,1.47,6.71,2.66.52.3,1,1.65,0,2.12-3.55,1.6-10.7-1.23-10.7-1.23s-4.66.63-5.72-.1-.28-6.33-.28-6.33Z" transform="translate(0 -0.53)"/><path class="cls-6" d="M74.14,55.32c10.3,7,12.37,13,19.1,19.36,1.22,1.15.82,5.77.82,5.77a76.58,76.58,0,0,0-1.13,20.13c-3.3,1.39-6-2.16-6-2.16s-4.7-13.53.26-20.09a96.52,96.52,0,0,1-10.91-5.2C72,70.76,64.1,63.44,64.1,63.44l.59-9.9,7.54.41S72.57,54.6,74.14,55.32Z" transform="translate(0 -0.53)"/><path class="cls-4" d="M103.24,112.52s.93.94.77,1.75c-.26,1.31-3.18,3.94-5.59,3.07s-2-1.73-3.74-3a2.81,2.81,0,0,1-1-1.59c-.14-.54-.22-1-.11-1C100,119.31,103.24,112.52,103.24,112.52Z" transform="translate(0 -0.53)"/><path class="cls-5" d="M97.45,108.94a27.56,27.56,0,0,0,5.57,3.11s.93.94.77,1.75c-.26,1.31-3.18,3.94-5.59,3.07s-2-1.72-3.74-3a3.15,3.15,0,0,1-1.15-2.56S96.37,108.85,97.45,108.94Z" transform="translate(0 -0.53)"/><path class="cls-7" d="M51.5,66C56.24,73.59,78,85,78.3,86.59c3.72,11,11,15.74,14.53,24.67,3.89.25,4.21-1.66,4.79-2.63-6.44-8.81-10.44-23.45-13.12-26.95-1.41-1.83-10.4-13.16-19.06-20.46,0,0,2.49-2.61,4.15-8.28.25-3.41-.72-.82-.72-.82L54,58.8S50.94,64,51.5,66Z" transform="translate(0 -0.53)"/><path class="cls-8" d="M81,32.89C70,24,68.13,16.93,63.34,19.8c-6.16,3.7,9.38,15,17.76,20.53,1.63.37,3-.54,4.16-2a13,13,0,0,1-.7-2.55S80.45,35.55,81,32.89Z" transform="translate(0 -0.53)"/><rect class="cls-9" x="51.89" y="13.8" width="11.48" height="13.29"/><path class="cls-4" d="M62,20.64s1.14,4.67-1.37,6.15-6.84-2.07-6.84-2.07l6.84,34.77a25.81,25.81,0,0,0,9.56-6c1.13-.9.59-19.78.59-19.78Z" transform="translate(0 -0.53)"/><path class="cls-10" d="M60.26,20.39c3,7.5,7.86,12.28,8.43,15.9s-2.36,14.12.37,22C72,55,74.14,55.32,74.14,55.32c-3.55-10.8-1-18.07-1.69-21.27-.49-2.18-3.83-6.44-4.79-9.3A8.06,8.06,0,0,0,63.37,20S59.89,18.72,60.26,20.39Z" transform="translate(0 -0.53)"/><path class="cls-10" d="M46,28.31l3.42-3.77s.87-3.71,3.21-2.3c3.65,2.19,5,5.25,6.87,8.65,1.51,2.69,4.06,4.66,4.24,8.58.2,4.07-2.25,13.61.93,21.3-7.91,2.12-9.24,7-13.68,5.05-4.22-9.39.18-14,.15-15.1C51.05,47.51,46,28.31,46,28.31Z" transform="translate(0 -0.53)"/><path class="cls-11" d="M66.74,7.13c.57,3.23-1.12,4.61-1.12,4.61l-1.78-.81-.47-5.25h1.82S66.3,6.78,66.74,7.13Z" transform="translate(0 -0.53)"/><path class="cls-12" d="M64.68,6.88c1.61,1.79.88,12.63,0,13.95a3.22,3.22,0,0,1-2.09,1c-7-.37-8.25-4.1-8.25-4.1l-1.59-2.63L54.31,4.93l8.84-.7A8.16,8.16,0,0,0,64.68,6.88Z" transform="translate(0 -0.53)"/><path class="cls-8" d="M51.53,48.05c-1-15.19,2.54-19.77-2.09-20.37-8.51-1.1-4.69,11.89-4,22.37A5.55,5.55,0,0,1,51.53,48.05Z" transform="translate(0 -0.53)"/><path class="cls-13" d="M62.4,8.56A3,3,0,0,0,60,9.4c-.92,1,1,4.9-4.14,8.38A1.5,1.5,0,0,0,55,16.5a1.84,1.84,0,0,1-1,1.75c.57,2.71-1.28,4.46,0,7.15-1.83.37-2.61-1.85-2.61-1.85A10.22,10.22,0,0,0,52,26.79c-2.54-.7-2.64-2.55-2.64-2.55s-1.48,2-3.55,1.18C47,23.25,45.79,20.64,47,15.07,48.15,10,45.73,3.27,53.46,1.79c.89-1.07,3.55-2,7-.41a14.55,14.55,0,0,1,6.3,5.74C64.44,5.78,62.4,8.56,62.4,8.56Z" transform="translate(0 -0.53)"/><path class="cls-11" d="M54.79,2.16A9.79,9.79,0,0,1,62,7,20.57,20.57,0,0,0,54.79,2.16Z" transform="translate(0 -0.53)"/><path class="cls-12" d="M49.24,54.51s4.27,0,4.71.44c0,1,.12,2.68.79,3.4s2.79,2.07,3.53,1.21,0-3.23-.44-3.77-.9-1.52-.74-1.6c.91-.47,3,1.46,3.45.58s-2.22-2.84-2.71-3c-1.16-.38-2.12-.47-2.88-.67a10,10,0,0,1-2.42-1.75l-1-1.31-2.33.34-1.74,2.3v2.58Z" transform="translate(0 -0.53)"/><path class="cls-9" d="M53.95,55a2.37,2.37,0,0,1,.75-2.84A12.72,12.72,0,0,0,53.95,55Z" transform="translate(0 -0.53)"/><path class="cls-14" d="M52.52,49.36a2.62,2.62,0,0,0-3.35,1.28,3.8,3.8,0,0,0,.07,3.87s-.22.58-1.45,0-2.67-2.08-2.74-3.15c-.13-1.91.31-3.77,3.2-4.54a4.2,4.2,0,0,1,4.28,1.55C52.82,48.74,52.52,49.36,52.52,49.36Z" transform="translate(0 -0.53)"/><path class="cls-12" d="M84.57,30.15s5.73-5.85,6.12-6.53.11-1.66,1-2.32c1.82-1.36,3.34-3.87,3.73-3.54,1,.83-1.11,3.74-1.11,3.74a15.68,15.68,0,0,0,2.48,0c.54-.14,2.64-2.38,3.28-2s-1.18,4.19-2.39,5.07-4.73,1.44-5.23,1.83-4.35,6.82-4.35,6.82l-1,1.77-1.63.63s-2.88-1-2.88-1.31-.3-2.8-.3-2.8A6.59,6.59,0,0,1,84.57,30.15Z" transform="translate(0 -0.53)"/><path class="cls-14" d="M84.57,30.15s-2.47,2.22.11,3.62,3.42-.63,3.42-.63a3.55,3.55,0,0,1,.09,1.28c-.35,1.23-1.77,3.79-2.94,3.94-3.42.45-5.13-2.59-4.29-5.47a6.3,6.3,0,0,1,2.31-2.59A1.6,1.6,0,0,1,84.57,30.15Z" transform="translate(0 -0.53)"/><path class="cls-4" d="M55,53.69a5.15,5.15,0,0,1,2.54-.6l1,.05a4.88,4.88,0,0,1,1.64.55c1.42.81,1.42,2.15,0,3a5.72,5.72,0,0,1-5.15,0C53.6,55.85,53.6,54.52,55,53.69Z" transform="translate(0 -0.53)"/><path class="cls-15" d="M60.33,56a2.45,2.45,0,0,0-.5-.37,4.07,4.07,0,0,0-1.42-.47l-.85-.08a4.86,4.86,0,0,0-2.21.55,2.37,2.37,0,0,0-.5.37c-.7-.69-.54-1.6.5-2.2a4.86,4.86,0,0,1,2.21-.54l.85.07a4.52,4.52,0,0,1,1.42.47C60.86,54.41,61,55.33,60.33,56Z" transform="translate(0 -0.53)"/><path class="cls-2" d="M60.33,56a2.75,2.75,0,0,1-.5.39,5,5,0,0,1-4.48,0,2.65,2.65,0,0,1-.5-.39,2.37,2.37,0,0,1,.5-.37,4.86,4.86,0,0,1,2.21-.55l.85.08a4.07,4.07,0,0,1,1.42.47A2.45,2.45,0,0,1,60.33,56Z" transform="translate(0 -0.53)"/><path class="cls-4" d="M60.17,56.66a5.72,5.72,0,0,1-5.15,0A1.85,1.85,0,0,1,54,55.27v6.05h0A1.81,1.81,0,0,0,55,62.8a5.71,5.71,0,0,0,5.15,0,1.78,1.78,0,0,0,1.06-1.58v-6A1.81,1.81,0,0,1,60.17,56.66Z" transform="translate(0 -0.53)"/><path class="cls-16" d="M111.89,139.35a2.91,2.91,0,0,0-.42-.29,5.72,5.72,0,0,0-5.18,0,3.24,3.24,0,0,0-.39.27l-.67,0V175.2h0a1.81,1.81,0,0,0,1.07,1.51,5.73,5.73,0,0,0,5.18,0,1.76,1.76,0,0,0,1.06-1.6h0V139.24l-.55-.07Z" transform="translate(0 -0.53)"/><path class="cls-17" d="M111.48,137.79a5.73,5.73,0,0,0-5.18,0c-1.43.82-1.43,2.16,0,3a5.72,5.72,0,0,0,5.18,0C112.91,140,112.91,138.62,111.48,137.79Z" transform="translate(0 -0.53)"/><path class="cls-16" d="M55.33,106.69a3,3,0,0,0-.42-.3,5.73,5.73,0,0,0-5.18,0,3,3,0,0,0-.39.27l-.68,0v35.85h0a1.81,1.81,0,0,0,1.07,1.51,5.72,5.72,0,0,0,5.18,0,1.76,1.76,0,0,0,1.06-1.6h0V106.58l-.55-.07Z" transform="translate(0 -0.53)"/><path class="cls-17" d="M54.91,105.13a5.72,5.72,0,0,0-5.18,0c-1.43.83-1.43,2.16,0,3a5.73,5.73,0,0,0,5.18,0C56.34,107.3,56.34,106,54.91,105.13Z" transform="translate(0 -0.53)"/><path class="cls-16" d="M208.83,83.38a3,3,0,0,0-.42-.29,5.72,5.72,0,0,0-5.18,0,3,3,0,0,0-.39.27l-.67,0v35.85h0a1.8,1.8,0,0,0,1.07,1.51,5.73,5.73,0,0,0,5.18,0,1.76,1.76,0,0,0,1.07-1.6h0V83.27l-.55-.07Z" transform="translate(0 -0.53)"/><path class="cls-17" d="M208.41,81.82a5.73,5.73,0,0,0-5.18,0c-1.43.82-1.43,2.16,0,3a5.73,5.73,0,0,0,5.18,0C209.84,84,209.84,82.65,208.41,81.82Z" transform="translate(0 -0.53)"/><path class="cls-16" d="M152.27,50.72a3.07,3.07,0,0,0-.42-.29,5.71,5.71,0,0,0-5.18,0,3.23,3.23,0,0,0-.39.27l-.67,0V86.57h0a1.8,1.8,0,0,0,1.07,1.51,5.72,5.72,0,0,0,5.18,0,1.76,1.76,0,0,0,1.06-1.6h0V50.62l-.55-.07Z" transform="translate(0 -0.53)"/><path class="cls-17" d="M151.85,49.16a5.72,5.72,0,0,0-5.18,0c-1.43.83-1.43,2.16,0,3a5.72,5.72,0,0,0,5.18,0C153.28,51.33,153.28,50,151.85,49.16Z" transform="translate(0 -0.53)"/><polygon class="cls-18" points="109.1 146.38 41.14 107.14 148.74 45.02 216.7 84.25 109.1 146.38"/><polygon class="cls-19" points="148.74 45.02 41.14 107.14 41.14 104.26 148.74 42.13 148.74 45.02"/><polygon class="cls-20" points="216.7 84.25 148.74 45.02 148.74 42.13 216.7 81.37 216.7 84.25"/><polygon class="cls-21" points="109.1 143.49 41.14 104.26 148.74 42.13 216.7 81.37 109.1 143.49"/><polygon class="cls-22" points="109.1 146.38 41.14 107.14 41.14 104.26 109.1 143.49 109.1 146.38"/><polygon class="cls-23" points="216.7 84.25 109.1 146.38 109.1 143.49 216.7 81.37 216.7 84.25"/><path class="cls-2" d="M150.44,106.85a5.19,5.19,0,0,0-2.55-.6l-1,.06a4.82,4.82,0,0,0-1.64.55c-1.42.81-1.42,2.16,0,3a5.74,5.74,0,0,0,5.15,0C151.86,109,151.86,107.67,150.44,106.85Z" transform="translate(0 -0.53)"/><path class="cls-3" d="M145.12,109.19a2.39,2.39,0,0,1,.5-.38,4.23,4.23,0,0,1,1.43-.47l.85-.08a4.85,4.85,0,0,1,2.21.55,2.3,2.3,0,0,1,.5.38c.7-.69.54-1.6-.5-2.21a4.86,4.86,0,0,0-2.21-.54l-.85.07a4.5,4.5,0,0,0-1.43.47C144.59,107.57,144.42,108.49,145.12,109.19Z" transform="translate(0 -0.53)"/><path class="cls-4" d="M145.12,109.19a3.06,3.06,0,0,0,.5.39,5,5,0,0,0,4.48,0,2.92,2.92,0,0,0,.5-.39,2.3,2.3,0,0,0-.5-.38,4.85,4.85,0,0,0-2.21-.55l-.85.08a4.23,4.23,0,0,0-1.43.47A2.39,2.39,0,0,0,145.12,109.19Z" transform="translate(0 -0.53)"/><path class="cls-2" d="M145.29,109.82a5.74,5.74,0,0,0,5.15,0,1.86,1.86,0,0,0,1.06-1.39v6.06h0a1.81,1.81,0,0,1-1.06,1.48,5.71,5.71,0,0,1-5.15,0,1.78,1.78,0,0,1-1.06-1.58v-6A1.81,1.81,0,0,0,145.29,109.82Z" transform="translate(0 -0.53)"/><path class="cls-2" d="M151.5,114.65h1.68a1.41,1.41,0,0,0,1.4-1.4v-2.9a1.41,1.41,0,0,0-1.4-1.4H151.5v.93h1.68a.47.47,0,0,1,.47.47v2.9a.47.47,0,0,1-.47.47H151.5Z" transform="translate(0 -0.53)"/><path class="cls-4" d="M171,148.59c2.58,3.76,2.92,6.86,4.56,7.79a3.2,3.2,0,0,0,3.92-.44c.6-.74.64-3.23.64-3.23l-6.06-7.52S171.45,148.19,171,148.59Z" transform="translate(0 -0.53)"/><path class="cls-24" d="M173.28,145.91c-2.05,4.16,5.93,9.36,7.24,7.1s2.59-8.39,2.59-8.39l-7.4-3.7S175.33,141.75,173.28,145.91Z" transform="translate(0 -0.53)"/><path class="cls-25" d="M258.66,160.44l-38.6-22.28a11.39,11.39,0,0,0-10.29,0l-66.49,38.38c-2.83,1.64-2.83,4.31,0,5.94l38.6,22.29a11.4,11.4,0,0,0,10.29,0l66.49-38.38C261.48,164.75,261.48,162.08,258.66,160.44Z" transform="translate(0 -0.53)"/><path class="cls-3" d="M245,151.88l9-35.55L223.35,98.59h0l0,0h0a3.11,3.11,0,0,0-3.08.32,9.74,9.74,0,0,0-4.41,7.64v2.65c0,7.44-5.25,16.54-11.7,20.26Z" transform="translate(0 -0.53)"/><path class="cls-4" d="M154.36,149.18c-3.35-1.16-6.48-3.91-7.93-3.55s-2.59,3.87-.89,6.35,11.51,8.59,13.29,8.45,3.72-2.86,3.72-2.86S154.65,150.3,154.36,149.18Z" transform="translate(0 -0.53)"/><path class="cls-26" d="M169.35,134.09c-2.47,1.48-5.52,8.78-15,15.09-1.09,8.87,8.28,9,8.28,9s7.69-7.49,12.92-13.51Z" transform="translate(0 -0.53)"/><path class="cls-3" d="M204.11,129.44,166.73,151s-8.37,15.44,20,37.27c4,1.5,58.33-36.41,58.33-36.41Z" transform="translate(0 -0.53)"/><path class="cls-24" d="M198.26,125.2s-4.65,0-12.27-2.48a5.74,5.74,0,0,0-4.88,1.24c-.89,1.05-.74,7.12-2,11.41-.38,1.27,21.46,4.22,21.46,4.22l1.4-11.17Z" transform="translate(0 -0.53)"/><polygon class="cls-27" points="189.17 136.69 182.15 129.74 190.53 135.44 189.17 136.69"/><path class="cls-26" d="M175.57,144.65c6.9,3.15,21.11,10.91,29,11.14s13.79-8.06,14.79-9.47a9.59,9.59,0,0,0,1.73-6.76s-19.12-1-23.69-2.61-25.57-4.33-28-2.85l.5,6.83Z" transform="translate(0 -0.53)"/><path class="cls-26" d="M228.33,85.9c-2.1,5-6.81,13.53-6.81,13.53l.94,9.31s4.12,4.62,6.46,2.57,4.57-10.18,6.53-22.33C235.4,85.38,229.83,85.53,228.33,85.9Z" transform="translate(0 -0.53)"/><polygon class="cls-12" points="210.58 100.67 210.1 105.62 210.58 107.3 216.06 109.03 221.9 106.22 222.79 102.89 222.31 99.38 213.38 98.31 210.58 100.67"/><path class="cls-4" d="M200.16,112.87c3-2,8-5.35,9.94-6.72,8.28,3.84,11.73-1.45,11.73-1.45a4.54,4.54,0,0,0-.17-2.66c5.32,1.09,7.21,4.14,7.25,9.27,0,6-6.13,12.33-7.4,26.43-.52,5.8-10.61,14.12-18,13.09-9.61-1.33-6.66-11.81-6.66-11.81s1.21-2.29,1.42-15.05C198.11,121.82,198.57,115.18,200.16,112.87Z" transform="translate(0 -0.53)"/><path class="cls-12" d="M210.71,85.9a14.5,14.5,0,0,0-3.48,4.53c-.3.68.3,1.5.22,2.11a4.33,4.33,0,0,1-.58,1.06c-.32.37-.44,3.85.08,5.6s4,2.13,4.95,2.1,3.68-9.53,3.68-9.53Z" transform="translate(0 -0.53)"/><path class="cls-28" d="M213.38,83.8a3,3,0,0,0-2.71.69c-1.13,1.13.15,7.1-1,9.71s2.42,2.12,1.83,8.14c-.19,1.89,1.92,4,5,3.8s6.16-3.46,6.16-3.46,3.55-5.27,3.58-7.22-.57-10.33-8.35-13.48C214.11,80.46,213.38,83.8,213.38,83.8Z" transform="translate(0 -0.53)"/><path class="cls-29" d="M221.17,89.52a40,40,0,0,0-7.79-5.72S219.49,84.89,221.17,89.52Z" transform="translate(0 -0.53)"/><path class="cls-12" d="M183.31,108.75c-2.12-3.18-9.89-7.36-14.89-13.12-1-1.19-1.13-2.42-2.32-3s-2.84.67-3.16.74c-2.17.1-2.86-.59-3.89-.54s-2,1.53-2,3,3,5,4.29,5.18c2.88.35,4.44-.64,4.88-.29s5.6,9.11,9.76,13.06a19.48,19.48,0,0,0,3.74,2.07S185.43,111.94,183.31,108.75Z" transform="translate(0 -0.53)"/><path class="cls-26" d="M209,121.8c1.76-4.87-4-8.19-7.07-8.57s-12.81-4-17.84-4.4c-3.33-.91-6.71,6.16-4,7.27,7.8,3.17,16.83,7.33,18.91,8.18S207.22,126.67,209,121.8Z" transform="translate(0 -0.53)"/><path class="cls-12" d="M229.8,93.86s-2.45-9.47-1.19-11.49a4.15,4.15,0,0,1,7.64,2.86c-.27,2.77-2.91,10.55-2.91,10.55Z" transform="translate(0 -0.53)"/><path class="cls-12" d="M229.5,93.42a2.54,2.54,0,0,0-2.42,1.82c-4.39.79-6.12,5.84-5.42,6.81,1.92,2.66,6.9.79,8,0s3.21-4.49,3.65-5.87S231.43,93.42,229.5,93.42Z" transform="translate(0 -0.53)"/><path class="cls-2" d="M178.17,157.69l-28.42-16.46a3,3,0,0,0-3.24.22,9.73,9.73,0,0,0-4.41,7.64V161.4c0,6.46,2.25,11,5.88,13.19h0l.07,0,.13.07,30.66,17.71s17.48-10.25,18.49-10.65Z" transform="translate(0 -0.53)"/><path class="cls-30" d="M235,167.13l-41.49,24C182.19,197.62,173,192.3,173,179.24V166.92a9.74,9.74,0,0,1,4.41-7.63c2.43-1.41,4.41-.27,4.41,2.54v2.64c0,7.45,5.25,10.48,11.7,6.76l41.49-24c6.45-3.72,11.7-12.81,11.7-20.27v-2.64a9.75,9.75,0,0,1,4.41-7.63c2.44-1.41,4.41-.27,4.41,2.54v12.32C255.52,144.65,246.32,160.6,235,167.13Z" transform="translate(0 -0.53)"/><path class="cls-2" d="M262.38,110.28l-7.8-4.51h0c-3.73-2.23-8.92-1.95-14.65,1.36L193.43,134c-11.34,6.54-20.56,13.39-20.56,26.48l.11,18.78c0,6.22,2.09,10.69,5.51,13L188.58,198l2.11-5.55a25,25,0,0,0,2.82-1.4l41.49-24c11.31-6.53,20.51-22.47,20.51-35.54l0-13.32c0-1.37-.11.92-.3-.27l1.13.13Z" transform="translate(0 -0.53)"/><path class="cls-3" d="M265.08,118.21c0-13.09-9.22-9.28-20.56-2.74l-41.58,24c-11.34,6.54-20.56,13.39-20.56,26.47l.11,6.67v12.11c0,13.06,9.2,18.38,20.52,11.84l41.5-23.95c11.31-6.54,20.52-22.48,20.52-35.54Z" transform="translate(0 -0.53)"/><polygon class="cls-31" points="132.09 106.81 131.62 107.12 127.89 105.2 128.37 104.9 132.09 106.81"/><polygon class="cls-31" points="131.4 107.26 130.93 107.57 128.32 106.22 128.79 105.92 131.4 107.26"/><polygon class="cls-4" points="141.59 106.58 143.05 108.42 137.29 117.3 117.72 113.06 124.36 102.85 141.59 106.58"/><polygon class="cls-32" points="143.05 108.42 140.71 107.93 141.59 106.58 143.05 108.42"/><path class="cls-2" d="M128,112.17a2.81,2.81,0,0,1,2.57.21c.61.47.45,1.13-.36,1.48a2.83,2.83,0,0,1-2.58-.2C127,113.18,127.15,112.52,128,112.17Z" transform="translate(0 -0.53)"/><path class="cls-2" d="M126.17,114.3a5.65,5.65,0,0,0,5.14.42c1.62-.7,1.94-2,.72-3a5.64,5.64,0,0,0-5.15-.41C125.27,112,125,113.36,126.17,114.3Zm1.32-2.51a4.1,4.1,0,0,1,3.74.3c.89.68.65,1.65-.52,2.16A4.11,4.11,0,0,1,127,114C126.08,113.27,126.32,112.3,127.5,111.79Z" transform="translate(0 -0.53)"/><path class="cls-2" d="M132,111.74a1.49,1.49,0,0,1,.67,1.71l-1-.14a1.1,1.1,0,0,0-.49-1.22,4.1,4.1,0,0,0-3.74-.3l-.61-.46A5.64,5.64,0,0,1,132,111.74Z" transform="translate(0 -0.53)"/><path class="cls-2" d="M126.89,111.33l.61.46c-.91.39-1.25,1.06-1,1.65l-1,.16C125.17,112.79,125.65,111.87,126.89,111.33Z" transform="translate(0 -0.53)"/><polygon class="cls-32" points="127.83 104.37 122.1 113.19 121.69 113.1 127.41 104.28 127.83 104.37"/><polygon class="cls-32" points="126.72 104.13 122.84 110.1 122.42 110.01 126.3 104.04 126.72 104.13"/><polygon class="cls-32" points="128.95 104.61 123.22 113.43 122.81 113.34 128.53 104.52 128.95 104.61"/><polygon class="cls-32" points="139.05 108.08 135.11 114.14 134.7 114.06 138.64 107.99 139.05 108.08"/><polygon class="cls-32" points="140.17 108.32 136.23 114.39 135.82 114.29 139.75 108.24 140.17 108.32"/><polygon class="cls-32" points="136.41 107.21 136.06 107.74 132.41 106.96 132.76 106.42 136.41 107.21"/><polygon class="cls-32" points="135.85 108.07 135.5 108.61 132.7 108 133.05 107.47 135.85 108.07"/><polyline class="cls-32" points="135.29 108.93 134.94 109.47 129.52 108.29 129.86 107.76"/><path class="cls-33" d="M113.38,69.5a.91.91,0,0,1,.83,0l13.4,7.73v-.58h.93v1.27a.3.3,0,0,1-.17.24l-23,13.3a.94.94,0,0,1-.83,0L90.34,83.27a.29.29,0,0,1-.17-.24V81.75l1.1.51Z" transform="translate(0 -0.53)"/><path class="cls-5" d="M113.38,68.24a.93.93,0,0,1,.83,0l14.16,8.17a.26.26,0,0,1,0,.48l-23,13.3a.93.93,0,0,1-.83,0L90.34,82a.26.26,0,0,1,0-.49Z" transform="translate(0 -0.53)"/><polygon class="cls-32" points="119.17 71.98 118.09 72.6 117.01 71.98 118.09 71.36 119.17 71.98"/><polygon class="cls-32" points="117.14 73.15 116.06 73.77 114.97 73.15 116.06 72.53 117.14 73.15"/><polygon class="cls-32" points="120.73 72.88 119.65 73.5 118.56 72.88 119.65 72.25 120.73 72.88"/><polygon class="cls-32" points="122.06 73.64 119.34 75.21 118.26 74.58 120.98 73.02 122.06 73.64"/><polygon class="cls-32" points="123.38 74.41 120.67 75.97 119.59 75.36 122.31 73.79 123.38 74.41"/><polygon class="cls-32" points="124.74 75.19 122.03 76.76 120.95 76.14 123.66 74.57 124.74 75.19"/><polygon class="cls-32" points="115.78 73.93 114.7 74.56 113.62 73.93 114.7 73.31 115.78 73.93"/><polygon class="cls-32" points="114.43 74.72 113.35 75.34 112.27 74.72 113.35 74.09 114.43 74.72"/><polygon class="cls-32" points="113.07 75.5 111.99 76.13 110.92 75.5 111.99 74.87 113.07 75.5"/><polygon class="cls-32" points="119.1 73.82 118.01 74.44 116.94 73.82 118.01 73.2 119.1 73.82"/><polygon class="cls-32" points="117.74 74.6 116.66 75.23 115.58 74.6 116.66 73.98 117.74 74.6"/><polygon class="cls-32" points="116.38 75.38 115.31 76.01 114.22 75.38 115.31 74.76 116.38 75.38"/><polygon class="cls-32" points="115.03 76.17 113.94 76.79 112.87 76.17 113.94 75.55 115.03 76.17"/><polygon class="cls-32" points="113.67 76.95 112.59 77.58 111.51 76.95 112.59 76.33 113.67 76.95"/><polygon class="cls-32" points="112.31 77.74 111.24 78.36 110.16 77.74 111.24 77.11 112.31 77.74"/><polygon class="cls-32" points="110.97 78.52 109.88 79.14 108.8 78.52 109.88 77.89 110.97 78.52"/><polygon class="cls-32" points="109.61 79.3 108.52 79.92 107.44 79.3 108.52 78.68 109.61 79.3"/><polygon class="cls-32" points="108.29 80.06 107.21 80.69 106.13 80.06 107.21 79.44 108.29 80.06"/><polygon class="cls-32" points="106.93 80.84 105.85 81.46 104.78 80.84 105.85 80.22 106.93 80.84"/><polygon class="cls-32" points="105.58 81.63 104.5 82.25 103.42 81.63 104.5 81 105.58 81.63"/><polygon class="cls-32" points="104.22 82.41 103.14 83.04 102.06 82.41 103.14 81.79 104.22 82.41"/><polygon class="cls-32" points="102.87 83.19 101.78 83.81 100.7 83.19 101.78 82.57 102.87 83.19"/><polygon class="cls-32" points="101.51 83.98 100.43 84.59 99.36 83.98 100.43 83.35 101.51 83.98"/><polygon class="cls-32" points="120.39 76.14 119.31 76.76 118.24 76.14 119.31 75.51 120.39 76.14"/><polygon class="cls-32" points="119.04 76.92 117.96 77.54 116.88 76.92 117.96 76.3 119.04 76.92"/><polygon class="cls-32" points="117.69 77.7 116.6 78.33 115.52 77.7 116.6 77.08 117.69 77.7"/><polygon class="cls-32" points="116.33 78.48 115.25 79.11 114.17 78.48 115.25 77.86 116.33 78.48"/><polygon class="cls-32" points="114.97 79.27 113.89 79.89 112.81 79.27 113.89 78.64 114.97 79.27"/><polygon class="cls-32" points="113.62 80.05 112.53 80.68 111.45 80.05 112.53 79.42 113.62 80.05"/><polygon class="cls-32" points="112.26 80.83 111.18 81.46 110.1 80.83 111.18 80.22 112.26 80.83"/><polygon class="cls-32" points="110.95 81.59 109.86 82.22 108.78 81.59 109.86 80.97 110.95 81.59"/><polygon class="cls-32" points="109.59 82.38 108.51 83 107.42 82.38 108.51 81.75 109.59 82.38"/><polygon class="cls-32" points="108.23 83.16 107.16 83.78 106.07 83.16 107.16 82.54 108.23 83.16"/><polygon class="cls-32" points="106.88 83.94 105.8 84.56 104.72 83.94 105.8 83.32 106.88 83.94"/><polygon class="cls-32" points="105.53 84.72 104.44 85.34 103.36 84.72 104.44 84.1 105.53 84.72"/><polygon class="cls-32" points="104.17 85.5 103.09 86.14 102.01 85.5 103.09 84.88 104.17 85.5"/><polygon class="cls-32" points="121.75 76.92 120.67 77.54 119.59 76.92 120.67 76.3 121.75 76.92"/><polygon class="cls-32" points="120.39 77.7 119.31 78.33 118.24 77.7 119.31 77.08 120.39 77.7"/><polygon class="cls-32" points="119.04 78.48 117.96 79.11 116.88 78.48 117.96 77.86 119.04 78.48"/><polygon class="cls-32" points="117.69 79.27 116.6 79.89 115.52 79.27 116.6 78.64 117.69 79.27"/><polygon class="cls-32" points="116.33 80.05 115.25 80.68 114.17 80.05 115.25 79.42 116.33 80.05"/><polygon class="cls-32" points="114.97 80.83 113.89 81.46 112.81 80.83 113.89 80.22 114.97 80.83"/><polygon class="cls-32" points="113.62 81.62 112.53 82.24 111.45 81.62 112.53 80.99 113.62 81.62"/><polygon class="cls-32" points="112.3 82.38 111.22 83 110.13 82.38 111.22 81.75 112.3 82.38"/><polygon class="cls-32" points="110.95 83.16 109.86 83.78 108.78 83.16 109.86 82.54 110.95 83.16"/><polygon class="cls-32" points="109.59 83.94 108.51 84.56 107.42 83.94 108.51 83.32 109.59 83.94"/><polygon class="cls-32" points="108.23 84.72 107.16 85.34 106.07 84.72 107.16 84.1 108.23 84.72"/><polygon class="cls-32" points="106.88 85.5 105.8 86.14 104.72 85.5 105.8 84.88 106.88 85.5"/><polygon class="cls-32" points="105.53 86.29 103.09 87.69 102.01 87.08 104.44 85.66 105.53 86.29"/><polygon class="cls-32" points="126.08 75.97 124.72 76.75 123.64 76.13 125 75.34 126.08 75.97"/><polygon class="cls-32" points="123.09 77.69 122 78.32 120.93 77.69 122 77.07 123.09 77.69"/><polygon class="cls-32" points="124.44 76.91 123.36 77.53 122.28 76.91 123.36 76.28 124.44 76.91"/><polygon class="cls-32" points="121.73 78.48 112.55 83.77 111.48 83.15 120.66 77.85 121.73 78.48"/><polygon class="cls-32" points="112.28 83.93 111.2 84.56 110.13 83.93 111.2 83.31 112.28 83.93"/><polygon class="cls-32" points="110.93 84.71 109.84 85.34 108.77 84.71 109.84 84.09 110.93 84.71"/><polygon class="cls-32" points="109.57 85.5 108.49 86.12 107.41 85.5 108.49 84.88 109.57 85.5"/><polygon class="cls-32" points="108.21 86.28 107.13 86.9 106.05 86.28 107.13 85.66 108.21 86.28"/><polygon class="cls-32" points="106.86 87.06 104.42 88.47 103.34 87.85 105.78 86.44 106.86 87.06"/><polygon class="cls-32" points="100.16 84.76 99.08 85.38 98 84.76 99.08 84.14 100.16 84.76"/><polygon class="cls-32" points="119.07 75.37 117.98 75.99 116.91 75.37 117.98 74.75 119.07 75.37"/><polygon class="cls-32" points="117.71 76.15 116.63 76.78 115.55 76.15 116.63 75.53 117.71 76.15"/><polygon class="cls-32" points="116.36 76.93 115.27 77.56 114.19 76.93 115.27 76.31 116.36 76.93"/><polygon class="cls-32" points="115 77.72 113.92 78.35 112.84 77.72 113.92 77.09 115 77.72"/><polygon class="cls-32" points="113.65 78.5 112.56 79.13 111.48 78.5 112.56 77.87 113.65 78.5"/><polygon class="cls-32" points="112.29 79.28 111.21 79.91 110.13 79.28 111.21 78.66 112.29 79.28"/><polygon class="cls-32" points="110.93 80.07 109.85 80.69 108.77 80.07 109.85 79.44 110.93 80.07"/><polygon class="cls-32" points="109.62 80.83 108.54 81.45 107.46 80.83 108.54 80.2 109.62 80.83"/><polygon class="cls-32" points="108.26 81.61 107.19 82.23 106.1 81.61 107.19 80.99 108.26 81.61"/><polygon class="cls-32" points="106.91 82.39 105.83 83.02 104.75 82.39 105.83 81.77 106.91 82.39"/><polygon class="cls-32" points="105.55 83.17 104.47 83.8 103.39 83.17 104.47 82.55 105.55 83.17"/><polygon class="cls-32" points="104.19 83.95 103.12 84.58 102.03 83.95 103.12 83.34 104.19 83.95"/><polygon class="cls-32" points="102.82 84.72 101.45 85.5 102.82 86.29 101.73 86.92 99.3 85.5 101.73 84.1 102.82 84.72"/><polygon class="cls-32" points="111.04 76.67 109.96 77.3 108.88 76.67 109.96 76.05 111.04 76.67"/><polygon class="cls-32" points="109.69 77.45 108.6 78.08 107.52 77.45 108.6 76.83 109.69 77.45"/><polygon class="cls-32" points="108.33 78.25 107.25 78.86 106.17 78.25 107.25 77.62 108.33 78.25"/><polygon class="cls-32" points="106.97 79.03 105.89 79.65 104.81 79.03 105.89 78.4 106.97 79.03"/><polygon class="cls-32" points="104.94 80.2 103.86 80.82 102.78 80.2 103.86 79.57 104.94 80.2"/><polygon class="cls-32" points="103.58 80.98 102.5 81.6 101.42 80.98 102.5 80.36 103.58 80.98"/><polygon class="cls-32" points="102.23 81.76 101.15 82.38 100.07 81.76 101.15 81.14 102.23 81.76"/><polygon class="cls-32" points="100.87 82.54 99.79 83.17 98.71 82.54 99.79 81.92 100.87 82.54"/><polygon class="cls-32" points="99.5 83.34 97.52 84.48 96.44 83.86 98.42 82.71 99.5 83.34"/><polygon class="cls-32" points="110.85 74.14 103.84 78.19 100.53 76.28 107.55 72.23 110.85 74.14"/><path class="cls-33" d="M128.64,59.8a.27.27,0,0,1,.31,0l.7.41-.46.66-.13-.11V76.39a.93.93,0,0,1-.42.73l-22.49,13-.16.73-.68-.39h0a.29.29,0,0,1-.12-.26V73.82a.9.9,0,0,1,.41-.72Z" transform="translate(0 -0.53)"/><path class="cls-5" d="M129.33,60.2c.24-.14.42,0,.42.24V76.79a.92.92,0,0,1-.42.72l-23,13.29c-.23.14-.42,0-.42-.24V74.22a.94.94,0,0,1,.42-.73Z" transform="translate(0 -0.53)"/></svg>